%TF.GenerationSoftware,KiCad,Pcbnew,8.0.5*%
%TF.CreationDate,2025-04-06T12:02:11+02:00*%
%TF.ProjectId,btmdpcb,62746d64-7063-4622-9e6b-696361645f70,rev?*%
%TF.SameCoordinates,Original*%
%TF.FileFunction,Drillmap*%
%TF.FilePolarity,Positive*%
%FSLAX45Y45*%
G04 Gerber Fmt 4.5, Leading zero omitted, Abs format (unit mm)*
G04 Created by KiCad (PCBNEW 8.0.5) date 2025-04-06 12:02:11*
%MOMM*%
%LPD*%
G01*
G04 APERTURE LIST*
%ADD10C,0.050000*%
%ADD11C,0.100000*%
%ADD12C,0.254000*%
%ADD13C,0.200000*%
G04 APERTURE END LIST*
D10*
X9586498Y-5537176D02*
X9588500Y-8572500D01*
D11*
X16827500Y-4127500D02*
X16827500Y-8572500D01*
X16827500Y-8572500D02*
X9588500Y-8572500D01*
X9588500Y-4127500D02*
X16827500Y-4127500D01*
D10*
X9586498Y-4622774D02*
X9588500Y-4127500D01*
D12*
X10218039Y-4622774D02*
X9586498Y-4622774D01*
X10218039Y-4622774D02*
X10218039Y-5524476D01*
X10218039Y-5524476D02*
X10218039Y-5537176D01*
X10218039Y-5537176D02*
X9586498Y-5537176D01*
D13*
D11*
X9764000Y-4303000D02*
X9794000Y-4333000D01*
X9794000Y-4303000D02*
X9764000Y-4333000D01*
X9764000Y-5763500D02*
X9794000Y-5793500D01*
X9794000Y-5763500D02*
X9764000Y-5793500D01*
X9764000Y-6081000D02*
X9794000Y-6111000D01*
X9794000Y-6081000D02*
X9764000Y-6111000D01*
X9764000Y-7160500D02*
X9794000Y-7190500D01*
X9794000Y-7160500D02*
X9764000Y-7190500D01*
X9764000Y-8367000D02*
X9794000Y-8397000D01*
X9794000Y-8367000D02*
X9764000Y-8397000D01*
X9827500Y-6779500D02*
X9857500Y-6809500D01*
X9857500Y-6779500D02*
X9827500Y-6809500D01*
X9891000Y-6081000D02*
X9921000Y-6111000D01*
X9921000Y-6081000D02*
X9891000Y-6111000D01*
X9891000Y-7605000D02*
X9921000Y-7635000D01*
X9921000Y-7605000D02*
X9891000Y-7635000D01*
X9891000Y-8113000D02*
X9921000Y-8143000D01*
X9921000Y-8113000D02*
X9891000Y-8143000D01*
X9954500Y-4303000D02*
X9984500Y-4333000D01*
X9984500Y-4303000D02*
X9954500Y-4333000D01*
X10018000Y-5636500D02*
X10048000Y-5666500D01*
X10048000Y-5636500D02*
X10018000Y-5666500D01*
X10018000Y-6779500D02*
X10048000Y-6809500D01*
X10048000Y-6779500D02*
X10018000Y-6809500D01*
X10018000Y-7351000D02*
X10048000Y-7381000D01*
X10048000Y-7351000D02*
X10018000Y-7381000D01*
X10145000Y-4303000D02*
X10175000Y-4333000D01*
X10175000Y-4303000D02*
X10145000Y-4333000D01*
X10145000Y-6081000D02*
X10175000Y-6111000D01*
X10175000Y-6081000D02*
X10145000Y-6111000D01*
X10272000Y-6779500D02*
X10302000Y-6809500D01*
X10302000Y-6779500D02*
X10272000Y-6809500D01*
X10272000Y-7160500D02*
X10302000Y-7190500D01*
X10302000Y-7160500D02*
X10272000Y-7190500D01*
X10335500Y-4303000D02*
X10365500Y-4333000D01*
X10365500Y-4303000D02*
X10335500Y-4333000D01*
X10335500Y-5763500D02*
X10365500Y-5793500D01*
X10365500Y-5763500D02*
X10335500Y-5793500D01*
X10335500Y-6208000D02*
X10365500Y-6238000D01*
X10365500Y-6208000D02*
X10335500Y-6238000D01*
X10399000Y-7732000D02*
X10429000Y-7762000D01*
X10429000Y-7732000D02*
X10399000Y-7762000D01*
X10462500Y-6335000D02*
X10492500Y-6365000D01*
X10492500Y-6335000D02*
X10462500Y-6365000D01*
X10589500Y-4303000D02*
X10619500Y-4333000D01*
X10619500Y-4303000D02*
X10589500Y-4333000D01*
X10589500Y-4684000D02*
X10619500Y-4714000D01*
X10619500Y-4684000D02*
X10589500Y-4714000D01*
X10589500Y-4827500D02*
X10619500Y-4857500D01*
X10619500Y-4827500D02*
X10589500Y-4857500D01*
X10589500Y-5302500D02*
X10619500Y-5332500D01*
X10619500Y-5302500D02*
X10589500Y-5332500D01*
X10589500Y-5446000D02*
X10619500Y-5476000D01*
X10619500Y-5446000D02*
X10589500Y-5476000D01*
X10653000Y-6716000D02*
X10683000Y-6746000D01*
X10683000Y-6716000D02*
X10653000Y-6746000D01*
X10653000Y-7160500D02*
X10683000Y-7190500D01*
X10683000Y-7160500D02*
X10653000Y-7190500D01*
X10653000Y-7605000D02*
X10683000Y-7635000D01*
X10683000Y-7605000D02*
X10653000Y-7635000D01*
X10659820Y-5065000D02*
X10689820Y-5095000D01*
X10689820Y-5065000D02*
X10659820Y-5095000D01*
X10780000Y-4366500D02*
X10810000Y-4396500D01*
X10810000Y-4366500D02*
X10780000Y-4396500D01*
X10780000Y-5065000D02*
X10810000Y-5095000D01*
X10810000Y-5065000D02*
X10780000Y-5095000D01*
X10780000Y-7986000D02*
X10810000Y-8016000D01*
X10810000Y-7986000D02*
X10780000Y-8016000D01*
X10907000Y-4557000D02*
X10937000Y-4587000D01*
X10937000Y-4557000D02*
X10907000Y-4587000D01*
X10907000Y-5636500D02*
X10937000Y-5666500D01*
X10937000Y-5636500D02*
X10907000Y-5666500D01*
X11034000Y-7224000D02*
X11064000Y-7254000D01*
X11064000Y-7224000D02*
X11034000Y-7254000D01*
X11161000Y-8367000D02*
X11191000Y-8397000D01*
X11191000Y-8367000D02*
X11161000Y-8397000D01*
X11224500Y-6716000D02*
X11254500Y-6746000D01*
X11254500Y-6716000D02*
X11224500Y-6746000D01*
X11288000Y-5319000D02*
X11318000Y-5349000D01*
X11318000Y-5319000D02*
X11288000Y-5349000D01*
X11288000Y-7160500D02*
X11318000Y-7190500D01*
X11318000Y-7160500D02*
X11288000Y-7190500D01*
X11288000Y-7605000D02*
X11318000Y-7635000D01*
X11318000Y-7605000D02*
X11288000Y-7635000D01*
X11451500Y-7732000D02*
X11481500Y-7762000D01*
X11481500Y-7732000D02*
X11451500Y-7762000D01*
X11478500Y-6716000D02*
X11508500Y-6746000D01*
X11508500Y-6716000D02*
X11478500Y-6746000D01*
X11542000Y-4874500D02*
X11572000Y-4904500D01*
X11572000Y-4874500D02*
X11542000Y-4904500D01*
X11669000Y-6398500D02*
X11699000Y-6428500D01*
X11699000Y-6398500D02*
X11669000Y-6428500D01*
X11796000Y-7224000D02*
X11826000Y-7254000D01*
X11826000Y-7224000D02*
X11796000Y-7254000D01*
X12050000Y-4811000D02*
X12080000Y-4841000D01*
X12080000Y-4811000D02*
X12050000Y-4841000D01*
X12050000Y-6271500D02*
X12080000Y-6301500D01*
X12080000Y-6271500D02*
X12050000Y-6301500D01*
X12113500Y-4303000D02*
X12143500Y-4333000D01*
X12143500Y-4303000D02*
X12113500Y-4333000D01*
X12189700Y-5585700D02*
X12219700Y-5615700D01*
X12219700Y-5585700D02*
X12189700Y-5615700D01*
X12240500Y-5382500D02*
X12270500Y-5412500D01*
X12270500Y-5382500D02*
X12240500Y-5412500D01*
X12240500Y-6081000D02*
X12270500Y-6111000D01*
X12270500Y-6081000D02*
X12240500Y-6111000D01*
X12240500Y-6970000D02*
X12270500Y-7000000D01*
X12270500Y-6970000D02*
X12240500Y-7000000D01*
X12304000Y-4811000D02*
X12334000Y-4841000D01*
X12334000Y-4811000D02*
X12304000Y-4841000D01*
X12304000Y-5065000D02*
X12334000Y-5095000D01*
X12334000Y-5065000D02*
X12304000Y-5095000D01*
X12367500Y-8367000D02*
X12397500Y-8397000D01*
X12397500Y-8367000D02*
X12367500Y-8397000D01*
X12558000Y-6335000D02*
X12588000Y-6365000D01*
X12588000Y-6335000D02*
X12558000Y-6365000D01*
X12685000Y-5573000D02*
X12715000Y-5603000D01*
X12715000Y-5573000D02*
X12685000Y-5603000D01*
X12748500Y-6728700D02*
X12778500Y-6758700D01*
X12778500Y-6728700D02*
X12748500Y-6758700D01*
X12812000Y-5636500D02*
X12842000Y-5666500D01*
X12842000Y-5636500D02*
X12812000Y-5666500D01*
X12896100Y-6245600D02*
X12926100Y-6275600D01*
X12926100Y-6245600D02*
X12896100Y-6275600D01*
X12964400Y-5966700D02*
X12994400Y-5996700D01*
X12994400Y-5966700D02*
X12964400Y-5996700D01*
X13002500Y-4811000D02*
X13032500Y-4841000D01*
X13032500Y-4811000D02*
X13002500Y-4841000D01*
X13116800Y-5814300D02*
X13146800Y-5844300D01*
X13146800Y-5814300D02*
X13116800Y-5844300D01*
X13256500Y-6728700D02*
X13286500Y-6758700D01*
X13286500Y-6728700D02*
X13256500Y-6758700D01*
X13294600Y-6042900D02*
X13324600Y-6072900D01*
X13324600Y-6042900D02*
X13294600Y-6072900D01*
X13383500Y-4303000D02*
X13413500Y-4333000D01*
X13413500Y-4303000D02*
X13383500Y-4333000D01*
X13383500Y-5255500D02*
X13413500Y-5285500D01*
X13413500Y-5255500D02*
X13383500Y-5285500D01*
X13447000Y-4747500D02*
X13477000Y-4777500D01*
X13477000Y-4747500D02*
X13447000Y-4777500D01*
X13574000Y-5700000D02*
X13604000Y-5730000D01*
X13604000Y-5700000D02*
X13574000Y-5730000D01*
X13637500Y-7478000D02*
X13667500Y-7508000D01*
X13667500Y-7478000D02*
X13637500Y-7508000D01*
X13701000Y-5763500D02*
X13731000Y-5793500D01*
X13731000Y-5763500D02*
X13701000Y-5793500D01*
X13764500Y-4366500D02*
X13794500Y-4396500D01*
X13794500Y-4366500D02*
X13764500Y-4396500D01*
X13891500Y-8367000D02*
X13921500Y-8397000D01*
X13921500Y-8367000D02*
X13891500Y-8397000D01*
X14018500Y-4874500D02*
X14048500Y-4904500D01*
X14048500Y-4874500D02*
X14018500Y-4904500D01*
X14018500Y-7732000D02*
X14048500Y-7762000D01*
X14048500Y-7732000D02*
X14018500Y-7762000D01*
X14145500Y-4366500D02*
X14175500Y-4396500D01*
X14175500Y-4366500D02*
X14145500Y-4396500D01*
X14272500Y-6017500D02*
X14302500Y-6047500D01*
X14302500Y-6017500D02*
X14272500Y-6047500D01*
X14336000Y-5255500D02*
X14366000Y-5285500D01*
X14366000Y-5255500D02*
X14336000Y-5285500D01*
X14717000Y-4938000D02*
X14747000Y-4968000D01*
X14747000Y-4938000D02*
X14717000Y-4968000D01*
X15352000Y-4303000D02*
X15382000Y-4333000D01*
X15382000Y-4303000D02*
X15352000Y-4333000D01*
X15479000Y-5319000D02*
X15509000Y-5349000D01*
X15509000Y-5319000D02*
X15479000Y-5349000D01*
X15479000Y-7097000D02*
X15509000Y-7127000D01*
X15509000Y-7097000D02*
X15479000Y-7127000D01*
X15606000Y-4938000D02*
X15636000Y-4968000D01*
X15636000Y-4938000D02*
X15606000Y-4968000D01*
X15669500Y-7097000D02*
X15699500Y-7127000D01*
X15699500Y-7097000D02*
X15669500Y-7127000D01*
X15669500Y-7414500D02*
X15699500Y-7444500D01*
X15699500Y-7414500D02*
X15669500Y-7444500D01*
X15669500Y-7795500D02*
X15699500Y-7825500D01*
X15699500Y-7795500D02*
X15669500Y-7825500D01*
X15796500Y-7351000D02*
X15826500Y-7381000D01*
X15826500Y-7351000D02*
X15796500Y-7381000D01*
X15923500Y-7351000D02*
X15953500Y-7381000D01*
X15953500Y-7351000D02*
X15923500Y-7381000D01*
X16114000Y-7097000D02*
X16144000Y-7127000D01*
X16144000Y-7097000D02*
X16114000Y-7127000D01*
X16114000Y-7541500D02*
X16144000Y-7571500D01*
X16144000Y-7541500D02*
X16114000Y-7571500D01*
X16114000Y-7668500D02*
X16144000Y-7698500D01*
X16144000Y-7668500D02*
X16114000Y-7698500D01*
X16431500Y-5763500D02*
X16461500Y-5793500D01*
X16461500Y-5763500D02*
X16431500Y-5793500D01*
X16431500Y-7097000D02*
X16461500Y-7127000D01*
X16461500Y-7097000D02*
X16431500Y-7127000D01*
X16558500Y-5763500D02*
X16588500Y-5793500D01*
X16588500Y-5763500D02*
X16558500Y-5793500D01*
X16622000Y-4303000D02*
X16652000Y-4333000D01*
X16652000Y-4303000D02*
X16622000Y-4333000D01*
X16622000Y-5573000D02*
X16652000Y-5603000D01*
X16652000Y-5573000D02*
X16622000Y-5603000D01*
X16622000Y-6589000D02*
X16652000Y-6619000D01*
X16652000Y-6589000D02*
X16622000Y-6619000D01*
X16622000Y-7732000D02*
X16652000Y-7762000D01*
X16652000Y-7732000D02*
X16622000Y-7762000D01*
X15045000Y-7937500D02*
G75*
G02*
X15015000Y-7937500I-15000J0D01*
G01*
X15015000Y-7937500D02*
G75*
G02*
X15045000Y-7937500I15000J0D01*
G01*
X9802494Y-4481994D02*
X9802494Y-4562994D01*
X9761994Y-4522494D02*
X9842994Y-4522494D01*
X9844494Y-4481994D02*
X9760495Y-4481994D01*
X9760495Y-4562994D02*
G75*
G02*
X9760495Y-4481994I0J40500D01*
G01*
X9760495Y-4562994D02*
X9844494Y-4562994D01*
X9844494Y-4562994D02*
G75*
G03*
X9844494Y-4481994I0J40500D01*
G01*
X9802494Y-5597006D02*
X9802494Y-5678006D01*
X9761994Y-5637506D02*
X9842994Y-5637506D01*
X9844494Y-5597006D02*
X9760495Y-5597006D01*
X9760495Y-5678006D02*
G75*
G02*
X9760495Y-5597006I0J40500D01*
G01*
X9760495Y-5678006D02*
X9844494Y-5678006D01*
X9844494Y-5678006D02*
G75*
G03*
X9844494Y-5597006I0J40500D01*
G01*
X10262515Y-4481994D02*
X10262515Y-4562994D01*
X10222015Y-4522494D02*
X10303015Y-4522494D01*
X10304514Y-4481994D02*
X10220515Y-4481994D01*
X10220515Y-4562994D02*
G75*
G02*
X10220515Y-4481994I0J40500D01*
G01*
X10220515Y-4562994D02*
X10304514Y-4562994D01*
X10304514Y-4562994D02*
G75*
G03*
X10304514Y-4481994I0J40500D01*
G01*
X10262515Y-5597006D02*
X10262515Y-5678006D01*
X10222015Y-5637506D02*
X10303015Y-5637506D01*
X10304514Y-5597006D02*
X10220515Y-5597006D01*
X10220515Y-5678006D02*
G75*
G02*
X10220515Y-5597006I0J40500D01*
G01*
X10220515Y-5678006D02*
X10304514Y-5678006D01*
X10304514Y-5678006D02*
G75*
G03*
X10304514Y-5597006I0J40500D01*
G01*
D13*
X9834574Y-8888984D02*
X9834574Y-8688984D01*
X9834574Y-8688984D02*
X9882193Y-8688984D01*
X9882193Y-8688984D02*
X9910765Y-8698508D01*
X9910765Y-8698508D02*
X9929812Y-8717555D01*
X9929812Y-8717555D02*
X9939336Y-8736603D01*
X9939336Y-8736603D02*
X9948860Y-8774698D01*
X9948860Y-8774698D02*
X9948860Y-8803270D01*
X9948860Y-8803270D02*
X9939336Y-8841365D01*
X9939336Y-8841365D02*
X9929812Y-8860412D01*
X9929812Y-8860412D02*
X9910765Y-8879460D01*
X9910765Y-8879460D02*
X9882193Y-8888984D01*
X9882193Y-8888984D02*
X9834574Y-8888984D01*
X10034574Y-8888984D02*
X10034574Y-8755650D01*
X10034574Y-8793746D02*
X10044098Y-8774698D01*
X10044098Y-8774698D02*
X10053622Y-8765174D01*
X10053622Y-8765174D02*
X10072670Y-8755650D01*
X10072670Y-8755650D02*
X10091717Y-8755650D01*
X10158384Y-8888984D02*
X10158384Y-8755650D01*
X10158384Y-8688984D02*
X10148860Y-8698508D01*
X10148860Y-8698508D02*
X10158384Y-8708031D01*
X10158384Y-8708031D02*
X10167908Y-8698508D01*
X10167908Y-8698508D02*
X10158384Y-8688984D01*
X10158384Y-8688984D02*
X10158384Y-8708031D01*
X10282193Y-8888984D02*
X10263146Y-8879460D01*
X10263146Y-8879460D02*
X10253622Y-8860412D01*
X10253622Y-8860412D02*
X10253622Y-8688984D01*
X10386955Y-8888984D02*
X10367908Y-8879460D01*
X10367908Y-8879460D02*
X10358384Y-8860412D01*
X10358384Y-8860412D02*
X10358384Y-8688984D01*
X10615527Y-8888984D02*
X10615527Y-8688984D01*
X10615527Y-8688984D02*
X10682193Y-8831841D01*
X10682193Y-8831841D02*
X10748860Y-8688984D01*
X10748860Y-8688984D02*
X10748860Y-8888984D01*
X10929812Y-8888984D02*
X10929812Y-8784222D01*
X10929812Y-8784222D02*
X10920289Y-8765174D01*
X10920289Y-8765174D02*
X10901241Y-8755650D01*
X10901241Y-8755650D02*
X10863146Y-8755650D01*
X10863146Y-8755650D02*
X10844098Y-8765174D01*
X10929812Y-8879460D02*
X10910765Y-8888984D01*
X10910765Y-8888984D02*
X10863146Y-8888984D01*
X10863146Y-8888984D02*
X10844098Y-8879460D01*
X10844098Y-8879460D02*
X10834574Y-8860412D01*
X10834574Y-8860412D02*
X10834574Y-8841365D01*
X10834574Y-8841365D02*
X10844098Y-8822317D01*
X10844098Y-8822317D02*
X10863146Y-8812793D01*
X10863146Y-8812793D02*
X10910765Y-8812793D01*
X10910765Y-8812793D02*
X10929812Y-8803270D01*
X11025051Y-8755650D02*
X11025051Y-8955650D01*
X11025051Y-8765174D02*
X11044098Y-8755650D01*
X11044098Y-8755650D02*
X11082193Y-8755650D01*
X11082193Y-8755650D02*
X11101241Y-8765174D01*
X11101241Y-8765174D02*
X11110765Y-8774698D01*
X11110765Y-8774698D02*
X11120289Y-8793746D01*
X11120289Y-8793746D02*
X11120289Y-8850889D01*
X11120289Y-8850889D02*
X11110765Y-8869936D01*
X11110765Y-8869936D02*
X11101241Y-8879460D01*
X11101241Y-8879460D02*
X11082193Y-8888984D01*
X11082193Y-8888984D02*
X11044098Y-8888984D01*
X11044098Y-8888984D02*
X11025051Y-8879460D01*
X11206003Y-8869936D02*
X11215527Y-8879460D01*
X11215527Y-8879460D02*
X11206003Y-8888984D01*
X11206003Y-8888984D02*
X11196479Y-8879460D01*
X11196479Y-8879460D02*
X11206003Y-8869936D01*
X11206003Y-8869936D02*
X11206003Y-8888984D01*
X11206003Y-8765174D02*
X11215527Y-8774698D01*
X11215527Y-8774698D02*
X11206003Y-8784222D01*
X11206003Y-8784222D02*
X11196479Y-8774698D01*
X11196479Y-8774698D02*
X11206003Y-8765174D01*
X11206003Y-8765174D02*
X11206003Y-8784222D01*
D11*
X9543798Y-9202500D02*
X9573798Y-9232500D01*
X9573798Y-9202500D02*
X9543798Y-9232500D01*
D13*
X9872670Y-9108984D02*
X9891717Y-9108984D01*
X9891717Y-9108984D02*
X9910765Y-9118508D01*
X9910765Y-9118508D02*
X9920289Y-9128031D01*
X9920289Y-9128031D02*
X9929812Y-9147079D01*
X9929812Y-9147079D02*
X9939336Y-9185174D01*
X9939336Y-9185174D02*
X9939336Y-9232793D01*
X9939336Y-9232793D02*
X9929812Y-9270889D01*
X9929812Y-9270889D02*
X9920289Y-9289936D01*
X9920289Y-9289936D02*
X9910765Y-9299460D01*
X9910765Y-9299460D02*
X9891717Y-9308984D01*
X9891717Y-9308984D02*
X9872670Y-9308984D01*
X9872670Y-9308984D02*
X9853622Y-9299460D01*
X9853622Y-9299460D02*
X9844098Y-9289936D01*
X9844098Y-9289936D02*
X9834574Y-9270889D01*
X9834574Y-9270889D02*
X9825051Y-9232793D01*
X9825051Y-9232793D02*
X9825051Y-9185174D01*
X9825051Y-9185174D02*
X9834574Y-9147079D01*
X9834574Y-9147079D02*
X9844098Y-9128031D01*
X9844098Y-9128031D02*
X9853622Y-9118508D01*
X9853622Y-9118508D02*
X9872670Y-9108984D01*
X10025051Y-9289936D02*
X10034574Y-9299460D01*
X10034574Y-9299460D02*
X10025051Y-9308984D01*
X10025051Y-9308984D02*
X10015527Y-9299460D01*
X10015527Y-9299460D02*
X10025051Y-9289936D01*
X10025051Y-9289936D02*
X10025051Y-9308984D01*
X10101241Y-9108984D02*
X10225051Y-9108984D01*
X10225051Y-9108984D02*
X10158384Y-9185174D01*
X10158384Y-9185174D02*
X10186955Y-9185174D01*
X10186955Y-9185174D02*
X10206003Y-9194698D01*
X10206003Y-9194698D02*
X10215527Y-9204222D01*
X10215527Y-9204222D02*
X10225051Y-9223270D01*
X10225051Y-9223270D02*
X10225051Y-9270889D01*
X10225051Y-9270889D02*
X10215527Y-9289936D01*
X10215527Y-9289936D02*
X10206003Y-9299460D01*
X10206003Y-9299460D02*
X10186955Y-9308984D01*
X10186955Y-9308984D02*
X10129812Y-9308984D01*
X10129812Y-9308984D02*
X10110765Y-9299460D01*
X10110765Y-9299460D02*
X10101241Y-9289936D01*
X10348860Y-9108984D02*
X10367908Y-9108984D01*
X10367908Y-9108984D02*
X10386955Y-9118508D01*
X10386955Y-9118508D02*
X10396479Y-9128031D01*
X10396479Y-9128031D02*
X10406003Y-9147079D01*
X10406003Y-9147079D02*
X10415527Y-9185174D01*
X10415527Y-9185174D02*
X10415527Y-9232793D01*
X10415527Y-9232793D02*
X10406003Y-9270889D01*
X10406003Y-9270889D02*
X10396479Y-9289936D01*
X10396479Y-9289936D02*
X10386955Y-9299460D01*
X10386955Y-9299460D02*
X10367908Y-9308984D01*
X10367908Y-9308984D02*
X10348860Y-9308984D01*
X10348860Y-9308984D02*
X10329812Y-9299460D01*
X10329812Y-9299460D02*
X10320289Y-9289936D01*
X10320289Y-9289936D02*
X10310765Y-9270889D01*
X10310765Y-9270889D02*
X10301241Y-9232793D01*
X10301241Y-9232793D02*
X10301241Y-9185174D01*
X10301241Y-9185174D02*
X10310765Y-9147079D01*
X10310765Y-9147079D02*
X10320289Y-9128031D01*
X10320289Y-9128031D02*
X10329812Y-9118508D01*
X10329812Y-9118508D02*
X10348860Y-9108984D01*
X10539336Y-9108984D02*
X10558384Y-9108984D01*
X10558384Y-9108984D02*
X10577432Y-9118508D01*
X10577432Y-9118508D02*
X10586955Y-9128031D01*
X10586955Y-9128031D02*
X10596479Y-9147079D01*
X10596479Y-9147079D02*
X10606003Y-9185174D01*
X10606003Y-9185174D02*
X10606003Y-9232793D01*
X10606003Y-9232793D02*
X10596479Y-9270889D01*
X10596479Y-9270889D02*
X10586955Y-9289936D01*
X10586955Y-9289936D02*
X10577432Y-9299460D01*
X10577432Y-9299460D02*
X10558384Y-9308984D01*
X10558384Y-9308984D02*
X10539336Y-9308984D01*
X10539336Y-9308984D02*
X10520289Y-9299460D01*
X10520289Y-9299460D02*
X10510765Y-9289936D01*
X10510765Y-9289936D02*
X10501241Y-9270889D01*
X10501241Y-9270889D02*
X10491717Y-9232793D01*
X10491717Y-9232793D02*
X10491717Y-9185174D01*
X10491717Y-9185174D02*
X10501241Y-9147079D01*
X10501241Y-9147079D02*
X10510765Y-9128031D01*
X10510765Y-9128031D02*
X10520289Y-9118508D01*
X10520289Y-9118508D02*
X10539336Y-9108984D01*
X10691717Y-9308984D02*
X10691717Y-9175650D01*
X10691717Y-9194698D02*
X10701241Y-9185174D01*
X10701241Y-9185174D02*
X10720289Y-9175650D01*
X10720289Y-9175650D02*
X10748860Y-9175650D01*
X10748860Y-9175650D02*
X10767908Y-9185174D01*
X10767908Y-9185174D02*
X10777432Y-9204222D01*
X10777432Y-9204222D02*
X10777432Y-9308984D01*
X10777432Y-9204222D02*
X10786955Y-9185174D01*
X10786955Y-9185174D02*
X10806003Y-9175650D01*
X10806003Y-9175650D02*
X10834574Y-9175650D01*
X10834574Y-9175650D02*
X10853622Y-9185174D01*
X10853622Y-9185174D02*
X10863146Y-9204222D01*
X10863146Y-9204222D02*
X10863146Y-9308984D01*
X10958384Y-9308984D02*
X10958384Y-9175650D01*
X10958384Y-9194698D02*
X10967908Y-9185174D01*
X10967908Y-9185174D02*
X10986955Y-9175650D01*
X10986955Y-9175650D02*
X11015527Y-9175650D01*
X11015527Y-9175650D02*
X11034574Y-9185174D01*
X11034574Y-9185174D02*
X11044098Y-9204222D01*
X11044098Y-9204222D02*
X11044098Y-9308984D01*
X11044098Y-9204222D02*
X11053622Y-9185174D01*
X11053622Y-9185174D02*
X11072670Y-9175650D01*
X11072670Y-9175650D02*
X11101241Y-9175650D01*
X11101241Y-9175650D02*
X11120289Y-9185174D01*
X11120289Y-9185174D02*
X11129813Y-9204222D01*
X11129813Y-9204222D02*
X11129813Y-9308984D01*
X11520289Y-9099460D02*
X11348860Y-9356603D01*
X11777432Y-9108984D02*
X11796479Y-9108984D01*
X11796479Y-9108984D02*
X11815527Y-9118508D01*
X11815527Y-9118508D02*
X11825051Y-9128031D01*
X11825051Y-9128031D02*
X11834574Y-9147079D01*
X11834574Y-9147079D02*
X11844098Y-9185174D01*
X11844098Y-9185174D02*
X11844098Y-9232793D01*
X11844098Y-9232793D02*
X11834574Y-9270889D01*
X11834574Y-9270889D02*
X11825051Y-9289936D01*
X11825051Y-9289936D02*
X11815527Y-9299460D01*
X11815527Y-9299460D02*
X11796479Y-9308984D01*
X11796479Y-9308984D02*
X11777432Y-9308984D01*
X11777432Y-9308984D02*
X11758384Y-9299460D01*
X11758384Y-9299460D02*
X11748860Y-9289936D01*
X11748860Y-9289936D02*
X11739336Y-9270889D01*
X11739336Y-9270889D02*
X11729813Y-9232793D01*
X11729813Y-9232793D02*
X11729813Y-9185174D01*
X11729813Y-9185174D02*
X11739336Y-9147079D01*
X11739336Y-9147079D02*
X11748860Y-9128031D01*
X11748860Y-9128031D02*
X11758384Y-9118508D01*
X11758384Y-9118508D02*
X11777432Y-9108984D01*
X11929813Y-9289936D02*
X11939336Y-9299460D01*
X11939336Y-9299460D02*
X11929813Y-9308984D01*
X11929813Y-9308984D02*
X11920289Y-9299460D01*
X11920289Y-9299460D02*
X11929813Y-9289936D01*
X11929813Y-9289936D02*
X11929813Y-9308984D01*
X12063146Y-9108984D02*
X12082194Y-9108984D01*
X12082194Y-9108984D02*
X12101241Y-9118508D01*
X12101241Y-9118508D02*
X12110765Y-9128031D01*
X12110765Y-9128031D02*
X12120289Y-9147079D01*
X12120289Y-9147079D02*
X12129813Y-9185174D01*
X12129813Y-9185174D02*
X12129813Y-9232793D01*
X12129813Y-9232793D02*
X12120289Y-9270889D01*
X12120289Y-9270889D02*
X12110765Y-9289936D01*
X12110765Y-9289936D02*
X12101241Y-9299460D01*
X12101241Y-9299460D02*
X12082194Y-9308984D01*
X12082194Y-9308984D02*
X12063146Y-9308984D01*
X12063146Y-9308984D02*
X12044098Y-9299460D01*
X12044098Y-9299460D02*
X12034574Y-9289936D01*
X12034574Y-9289936D02*
X12025051Y-9270889D01*
X12025051Y-9270889D02*
X12015527Y-9232793D01*
X12015527Y-9232793D02*
X12015527Y-9185174D01*
X12015527Y-9185174D02*
X12025051Y-9147079D01*
X12025051Y-9147079D02*
X12034574Y-9128031D01*
X12034574Y-9128031D02*
X12044098Y-9118508D01*
X12044098Y-9118508D02*
X12063146Y-9108984D01*
X12320289Y-9308984D02*
X12206003Y-9308984D01*
X12263146Y-9308984D02*
X12263146Y-9108984D01*
X12263146Y-9108984D02*
X12244098Y-9137555D01*
X12244098Y-9137555D02*
X12225051Y-9156603D01*
X12225051Y-9156603D02*
X12206003Y-9166127D01*
X12510765Y-9308984D02*
X12396479Y-9308984D01*
X12453622Y-9308984D02*
X12453622Y-9108984D01*
X12453622Y-9108984D02*
X12434574Y-9137555D01*
X12434574Y-9137555D02*
X12415527Y-9156603D01*
X12415527Y-9156603D02*
X12396479Y-9166127D01*
X12625051Y-9194698D02*
X12606003Y-9185174D01*
X12606003Y-9185174D02*
X12596479Y-9175650D01*
X12596479Y-9175650D02*
X12586955Y-9156603D01*
X12586955Y-9156603D02*
X12586955Y-9147079D01*
X12586955Y-9147079D02*
X12596479Y-9128031D01*
X12596479Y-9128031D02*
X12606003Y-9118508D01*
X12606003Y-9118508D02*
X12625051Y-9108984D01*
X12625051Y-9108984D02*
X12663146Y-9108984D01*
X12663146Y-9108984D02*
X12682194Y-9118508D01*
X12682194Y-9118508D02*
X12691717Y-9128031D01*
X12691717Y-9128031D02*
X12701241Y-9147079D01*
X12701241Y-9147079D02*
X12701241Y-9156603D01*
X12701241Y-9156603D02*
X12691717Y-9175650D01*
X12691717Y-9175650D02*
X12682194Y-9185174D01*
X12682194Y-9185174D02*
X12663146Y-9194698D01*
X12663146Y-9194698D02*
X12625051Y-9194698D01*
X12625051Y-9194698D02*
X12606003Y-9204222D01*
X12606003Y-9204222D02*
X12596479Y-9213746D01*
X12596479Y-9213746D02*
X12586955Y-9232793D01*
X12586955Y-9232793D02*
X12586955Y-9270889D01*
X12586955Y-9270889D02*
X12596479Y-9289936D01*
X12596479Y-9289936D02*
X12606003Y-9299460D01*
X12606003Y-9299460D02*
X12625051Y-9308984D01*
X12625051Y-9308984D02*
X12663146Y-9308984D01*
X12663146Y-9308984D02*
X12682194Y-9299460D01*
X12682194Y-9299460D02*
X12691717Y-9289936D01*
X12691717Y-9289936D02*
X12701241Y-9270889D01*
X12701241Y-9270889D02*
X12701241Y-9232793D01*
X12701241Y-9232793D02*
X12691717Y-9213746D01*
X12691717Y-9213746D02*
X12682194Y-9204222D01*
X12682194Y-9204222D02*
X12663146Y-9194698D01*
X12777432Y-9108984D02*
X12777432Y-9147079D01*
X12853622Y-9108984D02*
X12853622Y-9147079D01*
X13148860Y-9385174D02*
X13139336Y-9375650D01*
X13139336Y-9375650D02*
X13120289Y-9347079D01*
X13120289Y-9347079D02*
X13110765Y-9328031D01*
X13110765Y-9328031D02*
X13101241Y-9299460D01*
X13101241Y-9299460D02*
X13091717Y-9251841D01*
X13091717Y-9251841D02*
X13091717Y-9213746D01*
X13091717Y-9213746D02*
X13101241Y-9166127D01*
X13101241Y-9166127D02*
X13110765Y-9137555D01*
X13110765Y-9137555D02*
X13120289Y-9118508D01*
X13120289Y-9118508D02*
X13139336Y-9089936D01*
X13139336Y-9089936D02*
X13148860Y-9080412D01*
X13329813Y-9308984D02*
X13215527Y-9308984D01*
X13272670Y-9308984D02*
X13272670Y-9108984D01*
X13272670Y-9108984D02*
X13253622Y-9137555D01*
X13253622Y-9137555D02*
X13234575Y-9156603D01*
X13234575Y-9156603D02*
X13215527Y-9166127D01*
X13453622Y-9108984D02*
X13472670Y-9108984D01*
X13472670Y-9108984D02*
X13491717Y-9118508D01*
X13491717Y-9118508D02*
X13501241Y-9128031D01*
X13501241Y-9128031D02*
X13510765Y-9147079D01*
X13510765Y-9147079D02*
X13520289Y-9185174D01*
X13520289Y-9185174D02*
X13520289Y-9232793D01*
X13520289Y-9232793D02*
X13510765Y-9270889D01*
X13510765Y-9270889D02*
X13501241Y-9289936D01*
X13501241Y-9289936D02*
X13491717Y-9299460D01*
X13491717Y-9299460D02*
X13472670Y-9308984D01*
X13472670Y-9308984D02*
X13453622Y-9308984D01*
X13453622Y-9308984D02*
X13434575Y-9299460D01*
X13434575Y-9299460D02*
X13425051Y-9289936D01*
X13425051Y-9289936D02*
X13415527Y-9270889D01*
X13415527Y-9270889D02*
X13406003Y-9232793D01*
X13406003Y-9232793D02*
X13406003Y-9185174D01*
X13406003Y-9185174D02*
X13415527Y-9147079D01*
X13415527Y-9147079D02*
X13425051Y-9128031D01*
X13425051Y-9128031D02*
X13434575Y-9118508D01*
X13434575Y-9118508D02*
X13453622Y-9108984D01*
X13644098Y-9108984D02*
X13663146Y-9108984D01*
X13663146Y-9108984D02*
X13682194Y-9118508D01*
X13682194Y-9118508D02*
X13691717Y-9128031D01*
X13691717Y-9128031D02*
X13701241Y-9147079D01*
X13701241Y-9147079D02*
X13710765Y-9185174D01*
X13710765Y-9185174D02*
X13710765Y-9232793D01*
X13710765Y-9232793D02*
X13701241Y-9270889D01*
X13701241Y-9270889D02*
X13691717Y-9289936D01*
X13691717Y-9289936D02*
X13682194Y-9299460D01*
X13682194Y-9299460D02*
X13663146Y-9308984D01*
X13663146Y-9308984D02*
X13644098Y-9308984D01*
X13644098Y-9308984D02*
X13625051Y-9299460D01*
X13625051Y-9299460D02*
X13615527Y-9289936D01*
X13615527Y-9289936D02*
X13606003Y-9270889D01*
X13606003Y-9270889D02*
X13596479Y-9232793D01*
X13596479Y-9232793D02*
X13596479Y-9185174D01*
X13596479Y-9185174D02*
X13606003Y-9147079D01*
X13606003Y-9147079D02*
X13615527Y-9128031D01*
X13615527Y-9128031D02*
X13625051Y-9118508D01*
X13625051Y-9118508D02*
X13644098Y-9108984D01*
X13948860Y-9308984D02*
X13948860Y-9108984D01*
X14034575Y-9308984D02*
X14034575Y-9204222D01*
X14034575Y-9204222D02*
X14025051Y-9185174D01*
X14025051Y-9185174D02*
X14006003Y-9175650D01*
X14006003Y-9175650D02*
X13977432Y-9175650D01*
X13977432Y-9175650D02*
X13958384Y-9185174D01*
X13958384Y-9185174D02*
X13948860Y-9194698D01*
X14158384Y-9308984D02*
X14139337Y-9299460D01*
X14139337Y-9299460D02*
X14129813Y-9289936D01*
X14129813Y-9289936D02*
X14120289Y-9270889D01*
X14120289Y-9270889D02*
X14120289Y-9213746D01*
X14120289Y-9213746D02*
X14129813Y-9194698D01*
X14129813Y-9194698D02*
X14139337Y-9185174D01*
X14139337Y-9185174D02*
X14158384Y-9175650D01*
X14158384Y-9175650D02*
X14186956Y-9175650D01*
X14186956Y-9175650D02*
X14206003Y-9185174D01*
X14206003Y-9185174D02*
X14215527Y-9194698D01*
X14215527Y-9194698D02*
X14225051Y-9213746D01*
X14225051Y-9213746D02*
X14225051Y-9270889D01*
X14225051Y-9270889D02*
X14215527Y-9289936D01*
X14215527Y-9289936D02*
X14206003Y-9299460D01*
X14206003Y-9299460D02*
X14186956Y-9308984D01*
X14186956Y-9308984D02*
X14158384Y-9308984D01*
X14339337Y-9308984D02*
X14320289Y-9299460D01*
X14320289Y-9299460D02*
X14310765Y-9280412D01*
X14310765Y-9280412D02*
X14310765Y-9108984D01*
X14491718Y-9299460D02*
X14472670Y-9308984D01*
X14472670Y-9308984D02*
X14434575Y-9308984D01*
X14434575Y-9308984D02*
X14415527Y-9299460D01*
X14415527Y-9299460D02*
X14406003Y-9280412D01*
X14406003Y-9280412D02*
X14406003Y-9204222D01*
X14406003Y-9204222D02*
X14415527Y-9185174D01*
X14415527Y-9185174D02*
X14434575Y-9175650D01*
X14434575Y-9175650D02*
X14472670Y-9175650D01*
X14472670Y-9175650D02*
X14491718Y-9185174D01*
X14491718Y-9185174D02*
X14501241Y-9204222D01*
X14501241Y-9204222D02*
X14501241Y-9223270D01*
X14501241Y-9223270D02*
X14406003Y-9242317D01*
X14577432Y-9299460D02*
X14596479Y-9308984D01*
X14596479Y-9308984D02*
X14634575Y-9308984D01*
X14634575Y-9308984D02*
X14653622Y-9299460D01*
X14653622Y-9299460D02*
X14663146Y-9280412D01*
X14663146Y-9280412D02*
X14663146Y-9270889D01*
X14663146Y-9270889D02*
X14653622Y-9251841D01*
X14653622Y-9251841D02*
X14634575Y-9242317D01*
X14634575Y-9242317D02*
X14606003Y-9242317D01*
X14606003Y-9242317D02*
X14586956Y-9232793D01*
X14586956Y-9232793D02*
X14577432Y-9213746D01*
X14577432Y-9213746D02*
X14577432Y-9204222D01*
X14577432Y-9204222D02*
X14586956Y-9185174D01*
X14586956Y-9185174D02*
X14606003Y-9175650D01*
X14606003Y-9175650D02*
X14634575Y-9175650D01*
X14634575Y-9175650D02*
X14653622Y-9185174D01*
X14729813Y-9385174D02*
X14739337Y-9375650D01*
X14739337Y-9375650D02*
X14758384Y-9347079D01*
X14758384Y-9347079D02*
X14767908Y-9328031D01*
X14767908Y-9328031D02*
X14777432Y-9299460D01*
X14777432Y-9299460D02*
X14786956Y-9251841D01*
X14786956Y-9251841D02*
X14786956Y-9213746D01*
X14786956Y-9213746D02*
X14777432Y-9166127D01*
X14777432Y-9166127D02*
X14767908Y-9137555D01*
X14767908Y-9137555D02*
X14758384Y-9118508D01*
X14758384Y-9118508D02*
X14739337Y-9089936D01*
X14739337Y-9089936D02*
X14729813Y-9080412D01*
D11*
X9573798Y-9481500D02*
G75*
G02*
X9543798Y-9481500I-15000J0D01*
G01*
X9543798Y-9481500D02*
G75*
G02*
X9573798Y-9481500I15000J0D01*
G01*
D13*
X9872670Y-9372984D02*
X9891717Y-9372984D01*
X9891717Y-9372984D02*
X9910765Y-9382508D01*
X9910765Y-9382508D02*
X9920289Y-9392031D01*
X9920289Y-9392031D02*
X9929812Y-9411079D01*
X9929812Y-9411079D02*
X9939336Y-9449174D01*
X9939336Y-9449174D02*
X9939336Y-9496793D01*
X9939336Y-9496793D02*
X9929812Y-9534889D01*
X9929812Y-9534889D02*
X9920289Y-9553936D01*
X9920289Y-9553936D02*
X9910765Y-9563460D01*
X9910765Y-9563460D02*
X9891717Y-9572984D01*
X9891717Y-9572984D02*
X9872670Y-9572984D01*
X9872670Y-9572984D02*
X9853622Y-9563460D01*
X9853622Y-9563460D02*
X9844098Y-9553936D01*
X9844098Y-9553936D02*
X9834574Y-9534889D01*
X9834574Y-9534889D02*
X9825051Y-9496793D01*
X9825051Y-9496793D02*
X9825051Y-9449174D01*
X9825051Y-9449174D02*
X9834574Y-9411079D01*
X9834574Y-9411079D02*
X9844098Y-9392031D01*
X9844098Y-9392031D02*
X9853622Y-9382508D01*
X9853622Y-9382508D02*
X9872670Y-9372984D01*
X10025051Y-9553936D02*
X10034574Y-9563460D01*
X10034574Y-9563460D02*
X10025051Y-9572984D01*
X10025051Y-9572984D02*
X10015527Y-9563460D01*
X10015527Y-9563460D02*
X10025051Y-9553936D01*
X10025051Y-9553936D02*
X10025051Y-9572984D01*
X10101241Y-9372984D02*
X10225051Y-9372984D01*
X10225051Y-9372984D02*
X10158384Y-9449174D01*
X10158384Y-9449174D02*
X10186955Y-9449174D01*
X10186955Y-9449174D02*
X10206003Y-9458698D01*
X10206003Y-9458698D02*
X10215527Y-9468222D01*
X10215527Y-9468222D02*
X10225051Y-9487270D01*
X10225051Y-9487270D02*
X10225051Y-9534889D01*
X10225051Y-9534889D02*
X10215527Y-9553936D01*
X10215527Y-9553936D02*
X10206003Y-9563460D01*
X10206003Y-9563460D02*
X10186955Y-9572984D01*
X10186955Y-9572984D02*
X10129812Y-9572984D01*
X10129812Y-9572984D02*
X10110765Y-9563460D01*
X10110765Y-9563460D02*
X10101241Y-9553936D01*
X10348860Y-9372984D02*
X10367908Y-9372984D01*
X10367908Y-9372984D02*
X10386955Y-9382508D01*
X10386955Y-9382508D02*
X10396479Y-9392031D01*
X10396479Y-9392031D02*
X10406003Y-9411079D01*
X10406003Y-9411079D02*
X10415527Y-9449174D01*
X10415527Y-9449174D02*
X10415527Y-9496793D01*
X10415527Y-9496793D02*
X10406003Y-9534889D01*
X10406003Y-9534889D02*
X10396479Y-9553936D01*
X10396479Y-9553936D02*
X10386955Y-9563460D01*
X10386955Y-9563460D02*
X10367908Y-9572984D01*
X10367908Y-9572984D02*
X10348860Y-9572984D01*
X10348860Y-9572984D02*
X10329812Y-9563460D01*
X10329812Y-9563460D02*
X10320289Y-9553936D01*
X10320289Y-9553936D02*
X10310765Y-9534889D01*
X10310765Y-9534889D02*
X10301241Y-9496793D01*
X10301241Y-9496793D02*
X10301241Y-9449174D01*
X10301241Y-9449174D02*
X10310765Y-9411079D01*
X10310765Y-9411079D02*
X10320289Y-9392031D01*
X10320289Y-9392031D02*
X10329812Y-9382508D01*
X10329812Y-9382508D02*
X10348860Y-9372984D01*
X10539336Y-9372984D02*
X10558384Y-9372984D01*
X10558384Y-9372984D02*
X10577432Y-9382508D01*
X10577432Y-9382508D02*
X10586955Y-9392031D01*
X10586955Y-9392031D02*
X10596479Y-9411079D01*
X10596479Y-9411079D02*
X10606003Y-9449174D01*
X10606003Y-9449174D02*
X10606003Y-9496793D01*
X10606003Y-9496793D02*
X10596479Y-9534889D01*
X10596479Y-9534889D02*
X10586955Y-9553936D01*
X10586955Y-9553936D02*
X10577432Y-9563460D01*
X10577432Y-9563460D02*
X10558384Y-9572984D01*
X10558384Y-9572984D02*
X10539336Y-9572984D01*
X10539336Y-9572984D02*
X10520289Y-9563460D01*
X10520289Y-9563460D02*
X10510765Y-9553936D01*
X10510765Y-9553936D02*
X10501241Y-9534889D01*
X10501241Y-9534889D02*
X10491717Y-9496793D01*
X10491717Y-9496793D02*
X10491717Y-9449174D01*
X10491717Y-9449174D02*
X10501241Y-9411079D01*
X10501241Y-9411079D02*
X10510765Y-9392031D01*
X10510765Y-9392031D02*
X10520289Y-9382508D01*
X10520289Y-9382508D02*
X10539336Y-9372984D01*
X10691717Y-9572984D02*
X10691717Y-9439650D01*
X10691717Y-9458698D02*
X10701241Y-9449174D01*
X10701241Y-9449174D02*
X10720289Y-9439650D01*
X10720289Y-9439650D02*
X10748860Y-9439650D01*
X10748860Y-9439650D02*
X10767908Y-9449174D01*
X10767908Y-9449174D02*
X10777432Y-9468222D01*
X10777432Y-9468222D02*
X10777432Y-9572984D01*
X10777432Y-9468222D02*
X10786955Y-9449174D01*
X10786955Y-9449174D02*
X10806003Y-9439650D01*
X10806003Y-9439650D02*
X10834574Y-9439650D01*
X10834574Y-9439650D02*
X10853622Y-9449174D01*
X10853622Y-9449174D02*
X10863146Y-9468222D01*
X10863146Y-9468222D02*
X10863146Y-9572984D01*
X10958384Y-9572984D02*
X10958384Y-9439650D01*
X10958384Y-9458698D02*
X10967908Y-9449174D01*
X10967908Y-9449174D02*
X10986955Y-9439650D01*
X10986955Y-9439650D02*
X11015527Y-9439650D01*
X11015527Y-9439650D02*
X11034574Y-9449174D01*
X11034574Y-9449174D02*
X11044098Y-9468222D01*
X11044098Y-9468222D02*
X11044098Y-9572984D01*
X11044098Y-9468222D02*
X11053622Y-9449174D01*
X11053622Y-9449174D02*
X11072670Y-9439650D01*
X11072670Y-9439650D02*
X11101241Y-9439650D01*
X11101241Y-9439650D02*
X11120289Y-9449174D01*
X11120289Y-9449174D02*
X11129813Y-9468222D01*
X11129813Y-9468222D02*
X11129813Y-9572984D01*
X11520289Y-9363460D02*
X11348860Y-9620603D01*
X11777432Y-9372984D02*
X11796479Y-9372984D01*
X11796479Y-9372984D02*
X11815527Y-9382508D01*
X11815527Y-9382508D02*
X11825051Y-9392031D01*
X11825051Y-9392031D02*
X11834574Y-9411079D01*
X11834574Y-9411079D02*
X11844098Y-9449174D01*
X11844098Y-9449174D02*
X11844098Y-9496793D01*
X11844098Y-9496793D02*
X11834574Y-9534889D01*
X11834574Y-9534889D02*
X11825051Y-9553936D01*
X11825051Y-9553936D02*
X11815527Y-9563460D01*
X11815527Y-9563460D02*
X11796479Y-9572984D01*
X11796479Y-9572984D02*
X11777432Y-9572984D01*
X11777432Y-9572984D02*
X11758384Y-9563460D01*
X11758384Y-9563460D02*
X11748860Y-9553936D01*
X11748860Y-9553936D02*
X11739336Y-9534889D01*
X11739336Y-9534889D02*
X11729813Y-9496793D01*
X11729813Y-9496793D02*
X11729813Y-9449174D01*
X11729813Y-9449174D02*
X11739336Y-9411079D01*
X11739336Y-9411079D02*
X11748860Y-9392031D01*
X11748860Y-9392031D02*
X11758384Y-9382508D01*
X11758384Y-9382508D02*
X11777432Y-9372984D01*
X11929813Y-9553936D02*
X11939336Y-9563460D01*
X11939336Y-9563460D02*
X11929813Y-9572984D01*
X11929813Y-9572984D02*
X11920289Y-9563460D01*
X11920289Y-9563460D02*
X11929813Y-9553936D01*
X11929813Y-9553936D02*
X11929813Y-9572984D01*
X12063146Y-9372984D02*
X12082194Y-9372984D01*
X12082194Y-9372984D02*
X12101241Y-9382508D01*
X12101241Y-9382508D02*
X12110765Y-9392031D01*
X12110765Y-9392031D02*
X12120289Y-9411079D01*
X12120289Y-9411079D02*
X12129813Y-9449174D01*
X12129813Y-9449174D02*
X12129813Y-9496793D01*
X12129813Y-9496793D02*
X12120289Y-9534889D01*
X12120289Y-9534889D02*
X12110765Y-9553936D01*
X12110765Y-9553936D02*
X12101241Y-9563460D01*
X12101241Y-9563460D02*
X12082194Y-9572984D01*
X12082194Y-9572984D02*
X12063146Y-9572984D01*
X12063146Y-9572984D02*
X12044098Y-9563460D01*
X12044098Y-9563460D02*
X12034574Y-9553936D01*
X12034574Y-9553936D02*
X12025051Y-9534889D01*
X12025051Y-9534889D02*
X12015527Y-9496793D01*
X12015527Y-9496793D02*
X12015527Y-9449174D01*
X12015527Y-9449174D02*
X12025051Y-9411079D01*
X12025051Y-9411079D02*
X12034574Y-9392031D01*
X12034574Y-9392031D02*
X12044098Y-9382508D01*
X12044098Y-9382508D02*
X12063146Y-9372984D01*
X12320289Y-9572984D02*
X12206003Y-9572984D01*
X12263146Y-9572984D02*
X12263146Y-9372984D01*
X12263146Y-9372984D02*
X12244098Y-9401555D01*
X12244098Y-9401555D02*
X12225051Y-9420603D01*
X12225051Y-9420603D02*
X12206003Y-9430127D01*
X12510765Y-9572984D02*
X12396479Y-9572984D01*
X12453622Y-9572984D02*
X12453622Y-9372984D01*
X12453622Y-9372984D02*
X12434574Y-9401555D01*
X12434574Y-9401555D02*
X12415527Y-9420603D01*
X12415527Y-9420603D02*
X12396479Y-9430127D01*
X12625051Y-9458698D02*
X12606003Y-9449174D01*
X12606003Y-9449174D02*
X12596479Y-9439650D01*
X12596479Y-9439650D02*
X12586955Y-9420603D01*
X12586955Y-9420603D02*
X12586955Y-9411079D01*
X12586955Y-9411079D02*
X12596479Y-9392031D01*
X12596479Y-9392031D02*
X12606003Y-9382508D01*
X12606003Y-9382508D02*
X12625051Y-9372984D01*
X12625051Y-9372984D02*
X12663146Y-9372984D01*
X12663146Y-9372984D02*
X12682194Y-9382508D01*
X12682194Y-9382508D02*
X12691717Y-9392031D01*
X12691717Y-9392031D02*
X12701241Y-9411079D01*
X12701241Y-9411079D02*
X12701241Y-9420603D01*
X12701241Y-9420603D02*
X12691717Y-9439650D01*
X12691717Y-9439650D02*
X12682194Y-9449174D01*
X12682194Y-9449174D02*
X12663146Y-9458698D01*
X12663146Y-9458698D02*
X12625051Y-9458698D01*
X12625051Y-9458698D02*
X12606003Y-9468222D01*
X12606003Y-9468222D02*
X12596479Y-9477746D01*
X12596479Y-9477746D02*
X12586955Y-9496793D01*
X12586955Y-9496793D02*
X12586955Y-9534889D01*
X12586955Y-9534889D02*
X12596479Y-9553936D01*
X12596479Y-9553936D02*
X12606003Y-9563460D01*
X12606003Y-9563460D02*
X12625051Y-9572984D01*
X12625051Y-9572984D02*
X12663146Y-9572984D01*
X12663146Y-9572984D02*
X12682194Y-9563460D01*
X12682194Y-9563460D02*
X12691717Y-9553936D01*
X12691717Y-9553936D02*
X12701241Y-9534889D01*
X12701241Y-9534889D02*
X12701241Y-9496793D01*
X12701241Y-9496793D02*
X12691717Y-9477746D01*
X12691717Y-9477746D02*
X12682194Y-9468222D01*
X12682194Y-9468222D02*
X12663146Y-9458698D01*
X12777432Y-9372984D02*
X12777432Y-9411079D01*
X12853622Y-9372984D02*
X12853622Y-9411079D01*
X13148860Y-9649174D02*
X13139336Y-9639650D01*
X13139336Y-9639650D02*
X13120289Y-9611079D01*
X13120289Y-9611079D02*
X13110765Y-9592031D01*
X13110765Y-9592031D02*
X13101241Y-9563460D01*
X13101241Y-9563460D02*
X13091717Y-9515841D01*
X13091717Y-9515841D02*
X13091717Y-9477746D01*
X13091717Y-9477746D02*
X13101241Y-9430127D01*
X13101241Y-9430127D02*
X13110765Y-9401555D01*
X13110765Y-9401555D02*
X13120289Y-9382508D01*
X13120289Y-9382508D02*
X13139336Y-9353936D01*
X13139336Y-9353936D02*
X13148860Y-9344412D01*
X13329813Y-9572984D02*
X13215527Y-9572984D01*
X13272670Y-9572984D02*
X13272670Y-9372984D01*
X13272670Y-9372984D02*
X13253622Y-9401555D01*
X13253622Y-9401555D02*
X13234575Y-9420603D01*
X13234575Y-9420603D02*
X13215527Y-9430127D01*
X13567908Y-9572984D02*
X13567908Y-9372984D01*
X13653622Y-9572984D02*
X13653622Y-9468222D01*
X13653622Y-9468222D02*
X13644098Y-9449174D01*
X13644098Y-9449174D02*
X13625051Y-9439650D01*
X13625051Y-9439650D02*
X13596479Y-9439650D01*
X13596479Y-9439650D02*
X13577432Y-9449174D01*
X13577432Y-9449174D02*
X13567908Y-9458698D01*
X13777432Y-9572984D02*
X13758384Y-9563460D01*
X13758384Y-9563460D02*
X13748860Y-9553936D01*
X13748860Y-9553936D02*
X13739337Y-9534889D01*
X13739337Y-9534889D02*
X13739337Y-9477746D01*
X13739337Y-9477746D02*
X13748860Y-9458698D01*
X13748860Y-9458698D02*
X13758384Y-9449174D01*
X13758384Y-9449174D02*
X13777432Y-9439650D01*
X13777432Y-9439650D02*
X13806003Y-9439650D01*
X13806003Y-9439650D02*
X13825051Y-9449174D01*
X13825051Y-9449174D02*
X13834575Y-9458698D01*
X13834575Y-9458698D02*
X13844098Y-9477746D01*
X13844098Y-9477746D02*
X13844098Y-9534889D01*
X13844098Y-9534889D02*
X13834575Y-9553936D01*
X13834575Y-9553936D02*
X13825051Y-9563460D01*
X13825051Y-9563460D02*
X13806003Y-9572984D01*
X13806003Y-9572984D02*
X13777432Y-9572984D01*
X13958384Y-9572984D02*
X13939337Y-9563460D01*
X13939337Y-9563460D02*
X13929813Y-9544412D01*
X13929813Y-9544412D02*
X13929813Y-9372984D01*
X14110765Y-9563460D02*
X14091718Y-9572984D01*
X14091718Y-9572984D02*
X14053622Y-9572984D01*
X14053622Y-9572984D02*
X14034575Y-9563460D01*
X14034575Y-9563460D02*
X14025051Y-9544412D01*
X14025051Y-9544412D02*
X14025051Y-9468222D01*
X14025051Y-9468222D02*
X14034575Y-9449174D01*
X14034575Y-9449174D02*
X14053622Y-9439650D01*
X14053622Y-9439650D02*
X14091718Y-9439650D01*
X14091718Y-9439650D02*
X14110765Y-9449174D01*
X14110765Y-9449174D02*
X14120289Y-9468222D01*
X14120289Y-9468222D02*
X14120289Y-9487270D01*
X14120289Y-9487270D02*
X14025051Y-9506317D01*
X14186956Y-9649174D02*
X14196479Y-9639650D01*
X14196479Y-9639650D02*
X14215527Y-9611079D01*
X14215527Y-9611079D02*
X14225051Y-9592031D01*
X14225051Y-9592031D02*
X14234575Y-9563460D01*
X14234575Y-9563460D02*
X14244098Y-9515841D01*
X14244098Y-9515841D02*
X14244098Y-9477746D01*
X14244098Y-9477746D02*
X14234575Y-9430127D01*
X14234575Y-9430127D02*
X14225051Y-9401555D01*
X14225051Y-9401555D02*
X14215527Y-9382508D01*
X14215527Y-9382508D02*
X14196479Y-9353936D01*
X14196479Y-9353936D02*
X14186956Y-9344412D01*
D11*
X9533298Y-9705000D02*
X9533298Y-9786000D01*
X9492798Y-9745500D02*
X9573798Y-9745500D01*
D13*
X9872670Y-9636984D02*
X9891717Y-9636984D01*
X9891717Y-9636984D02*
X9910765Y-9646508D01*
X9910765Y-9646508D02*
X9920289Y-9656031D01*
X9920289Y-9656031D02*
X9929812Y-9675079D01*
X9929812Y-9675079D02*
X9939336Y-9713174D01*
X9939336Y-9713174D02*
X9939336Y-9760793D01*
X9939336Y-9760793D02*
X9929812Y-9798889D01*
X9929812Y-9798889D02*
X9920289Y-9817936D01*
X9920289Y-9817936D02*
X9910765Y-9827460D01*
X9910765Y-9827460D02*
X9891717Y-9836984D01*
X9891717Y-9836984D02*
X9872670Y-9836984D01*
X9872670Y-9836984D02*
X9853622Y-9827460D01*
X9853622Y-9827460D02*
X9844098Y-9817936D01*
X9844098Y-9817936D02*
X9834574Y-9798889D01*
X9834574Y-9798889D02*
X9825051Y-9760793D01*
X9825051Y-9760793D02*
X9825051Y-9713174D01*
X9825051Y-9713174D02*
X9834574Y-9675079D01*
X9834574Y-9675079D02*
X9844098Y-9656031D01*
X9844098Y-9656031D02*
X9853622Y-9646508D01*
X9853622Y-9646508D02*
X9872670Y-9636984D01*
X10025051Y-9817936D02*
X10034574Y-9827460D01*
X10034574Y-9827460D02*
X10025051Y-9836984D01*
X10025051Y-9836984D02*
X10015527Y-9827460D01*
X10015527Y-9827460D02*
X10025051Y-9817936D01*
X10025051Y-9817936D02*
X10025051Y-9836984D01*
X10148860Y-9722698D02*
X10129812Y-9713174D01*
X10129812Y-9713174D02*
X10120289Y-9703650D01*
X10120289Y-9703650D02*
X10110765Y-9684603D01*
X10110765Y-9684603D02*
X10110765Y-9675079D01*
X10110765Y-9675079D02*
X10120289Y-9656031D01*
X10120289Y-9656031D02*
X10129812Y-9646508D01*
X10129812Y-9646508D02*
X10148860Y-9636984D01*
X10148860Y-9636984D02*
X10186955Y-9636984D01*
X10186955Y-9636984D02*
X10206003Y-9646508D01*
X10206003Y-9646508D02*
X10215527Y-9656031D01*
X10215527Y-9656031D02*
X10225051Y-9675079D01*
X10225051Y-9675079D02*
X10225051Y-9684603D01*
X10225051Y-9684603D02*
X10215527Y-9703650D01*
X10215527Y-9703650D02*
X10206003Y-9713174D01*
X10206003Y-9713174D02*
X10186955Y-9722698D01*
X10186955Y-9722698D02*
X10148860Y-9722698D01*
X10148860Y-9722698D02*
X10129812Y-9732222D01*
X10129812Y-9732222D02*
X10120289Y-9741746D01*
X10120289Y-9741746D02*
X10110765Y-9760793D01*
X10110765Y-9760793D02*
X10110765Y-9798889D01*
X10110765Y-9798889D02*
X10120289Y-9817936D01*
X10120289Y-9817936D02*
X10129812Y-9827460D01*
X10129812Y-9827460D02*
X10148860Y-9836984D01*
X10148860Y-9836984D02*
X10186955Y-9836984D01*
X10186955Y-9836984D02*
X10206003Y-9827460D01*
X10206003Y-9827460D02*
X10215527Y-9817936D01*
X10215527Y-9817936D02*
X10225051Y-9798889D01*
X10225051Y-9798889D02*
X10225051Y-9760793D01*
X10225051Y-9760793D02*
X10215527Y-9741746D01*
X10215527Y-9741746D02*
X10206003Y-9732222D01*
X10206003Y-9732222D02*
X10186955Y-9722698D01*
X10415527Y-9836984D02*
X10301241Y-9836984D01*
X10358384Y-9836984D02*
X10358384Y-9636984D01*
X10358384Y-9636984D02*
X10339336Y-9665555D01*
X10339336Y-9665555D02*
X10320289Y-9684603D01*
X10320289Y-9684603D02*
X10301241Y-9694127D01*
X10539336Y-9636984D02*
X10558384Y-9636984D01*
X10558384Y-9636984D02*
X10577432Y-9646508D01*
X10577432Y-9646508D02*
X10586955Y-9656031D01*
X10586955Y-9656031D02*
X10596479Y-9675079D01*
X10596479Y-9675079D02*
X10606003Y-9713174D01*
X10606003Y-9713174D02*
X10606003Y-9760793D01*
X10606003Y-9760793D02*
X10596479Y-9798889D01*
X10596479Y-9798889D02*
X10586955Y-9817936D01*
X10586955Y-9817936D02*
X10577432Y-9827460D01*
X10577432Y-9827460D02*
X10558384Y-9836984D01*
X10558384Y-9836984D02*
X10539336Y-9836984D01*
X10539336Y-9836984D02*
X10520289Y-9827460D01*
X10520289Y-9827460D02*
X10510765Y-9817936D01*
X10510765Y-9817936D02*
X10501241Y-9798889D01*
X10501241Y-9798889D02*
X10491717Y-9760793D01*
X10491717Y-9760793D02*
X10491717Y-9713174D01*
X10491717Y-9713174D02*
X10501241Y-9675079D01*
X10501241Y-9675079D02*
X10510765Y-9656031D01*
X10510765Y-9656031D02*
X10520289Y-9646508D01*
X10520289Y-9646508D02*
X10539336Y-9636984D01*
X10691717Y-9836984D02*
X10691717Y-9703650D01*
X10691717Y-9722698D02*
X10701241Y-9713174D01*
X10701241Y-9713174D02*
X10720289Y-9703650D01*
X10720289Y-9703650D02*
X10748860Y-9703650D01*
X10748860Y-9703650D02*
X10767908Y-9713174D01*
X10767908Y-9713174D02*
X10777432Y-9732222D01*
X10777432Y-9732222D02*
X10777432Y-9836984D01*
X10777432Y-9732222D02*
X10786955Y-9713174D01*
X10786955Y-9713174D02*
X10806003Y-9703650D01*
X10806003Y-9703650D02*
X10834574Y-9703650D01*
X10834574Y-9703650D02*
X10853622Y-9713174D01*
X10853622Y-9713174D02*
X10863146Y-9732222D01*
X10863146Y-9732222D02*
X10863146Y-9836984D01*
X10958384Y-9836984D02*
X10958384Y-9703650D01*
X10958384Y-9722698D02*
X10967908Y-9713174D01*
X10967908Y-9713174D02*
X10986955Y-9703650D01*
X10986955Y-9703650D02*
X11015527Y-9703650D01*
X11015527Y-9703650D02*
X11034574Y-9713174D01*
X11034574Y-9713174D02*
X11044098Y-9732222D01*
X11044098Y-9732222D02*
X11044098Y-9836984D01*
X11044098Y-9732222D02*
X11053622Y-9713174D01*
X11053622Y-9713174D02*
X11072670Y-9703650D01*
X11072670Y-9703650D02*
X11101241Y-9703650D01*
X11101241Y-9703650D02*
X11120289Y-9713174D01*
X11120289Y-9713174D02*
X11129813Y-9732222D01*
X11129813Y-9732222D02*
X11129813Y-9836984D01*
X11520289Y-9627460D02*
X11348860Y-9884603D01*
X11777432Y-9636984D02*
X11796479Y-9636984D01*
X11796479Y-9636984D02*
X11815527Y-9646508D01*
X11815527Y-9646508D02*
X11825051Y-9656031D01*
X11825051Y-9656031D02*
X11834574Y-9675079D01*
X11834574Y-9675079D02*
X11844098Y-9713174D01*
X11844098Y-9713174D02*
X11844098Y-9760793D01*
X11844098Y-9760793D02*
X11834574Y-9798889D01*
X11834574Y-9798889D02*
X11825051Y-9817936D01*
X11825051Y-9817936D02*
X11815527Y-9827460D01*
X11815527Y-9827460D02*
X11796479Y-9836984D01*
X11796479Y-9836984D02*
X11777432Y-9836984D01*
X11777432Y-9836984D02*
X11758384Y-9827460D01*
X11758384Y-9827460D02*
X11748860Y-9817936D01*
X11748860Y-9817936D02*
X11739336Y-9798889D01*
X11739336Y-9798889D02*
X11729813Y-9760793D01*
X11729813Y-9760793D02*
X11729813Y-9713174D01*
X11729813Y-9713174D02*
X11739336Y-9675079D01*
X11739336Y-9675079D02*
X11748860Y-9656031D01*
X11748860Y-9656031D02*
X11758384Y-9646508D01*
X11758384Y-9646508D02*
X11777432Y-9636984D01*
X11929813Y-9817936D02*
X11939336Y-9827460D01*
X11939336Y-9827460D02*
X11929813Y-9836984D01*
X11929813Y-9836984D02*
X11920289Y-9827460D01*
X11920289Y-9827460D02*
X11929813Y-9817936D01*
X11929813Y-9817936D02*
X11929813Y-9836984D01*
X12063146Y-9636984D02*
X12082194Y-9636984D01*
X12082194Y-9636984D02*
X12101241Y-9646508D01*
X12101241Y-9646508D02*
X12110765Y-9656031D01*
X12110765Y-9656031D02*
X12120289Y-9675079D01*
X12120289Y-9675079D02*
X12129813Y-9713174D01*
X12129813Y-9713174D02*
X12129813Y-9760793D01*
X12129813Y-9760793D02*
X12120289Y-9798889D01*
X12120289Y-9798889D02*
X12110765Y-9817936D01*
X12110765Y-9817936D02*
X12101241Y-9827460D01*
X12101241Y-9827460D02*
X12082194Y-9836984D01*
X12082194Y-9836984D02*
X12063146Y-9836984D01*
X12063146Y-9836984D02*
X12044098Y-9827460D01*
X12044098Y-9827460D02*
X12034574Y-9817936D01*
X12034574Y-9817936D02*
X12025051Y-9798889D01*
X12025051Y-9798889D02*
X12015527Y-9760793D01*
X12015527Y-9760793D02*
X12015527Y-9713174D01*
X12015527Y-9713174D02*
X12025051Y-9675079D01*
X12025051Y-9675079D02*
X12034574Y-9656031D01*
X12034574Y-9656031D02*
X12044098Y-9646508D01*
X12044098Y-9646508D02*
X12063146Y-9636984D01*
X12196479Y-9636984D02*
X12320289Y-9636984D01*
X12320289Y-9636984D02*
X12253622Y-9713174D01*
X12253622Y-9713174D02*
X12282194Y-9713174D01*
X12282194Y-9713174D02*
X12301241Y-9722698D01*
X12301241Y-9722698D02*
X12310765Y-9732222D01*
X12310765Y-9732222D02*
X12320289Y-9751270D01*
X12320289Y-9751270D02*
X12320289Y-9798889D01*
X12320289Y-9798889D02*
X12310765Y-9817936D01*
X12310765Y-9817936D02*
X12301241Y-9827460D01*
X12301241Y-9827460D02*
X12282194Y-9836984D01*
X12282194Y-9836984D02*
X12225051Y-9836984D01*
X12225051Y-9836984D02*
X12206003Y-9827460D01*
X12206003Y-9827460D02*
X12196479Y-9817936D01*
X12510765Y-9836984D02*
X12396479Y-9836984D01*
X12453622Y-9836984D02*
X12453622Y-9636984D01*
X12453622Y-9636984D02*
X12434574Y-9665555D01*
X12434574Y-9665555D02*
X12415527Y-9684603D01*
X12415527Y-9684603D02*
X12396479Y-9694127D01*
X12606003Y-9836984D02*
X12644098Y-9836984D01*
X12644098Y-9836984D02*
X12663146Y-9827460D01*
X12663146Y-9827460D02*
X12672670Y-9817936D01*
X12672670Y-9817936D02*
X12691717Y-9789365D01*
X12691717Y-9789365D02*
X12701241Y-9751270D01*
X12701241Y-9751270D02*
X12701241Y-9675079D01*
X12701241Y-9675079D02*
X12691717Y-9656031D01*
X12691717Y-9656031D02*
X12682194Y-9646508D01*
X12682194Y-9646508D02*
X12663146Y-9636984D01*
X12663146Y-9636984D02*
X12625051Y-9636984D01*
X12625051Y-9636984D02*
X12606003Y-9646508D01*
X12606003Y-9646508D02*
X12596479Y-9656031D01*
X12596479Y-9656031D02*
X12586955Y-9675079D01*
X12586955Y-9675079D02*
X12586955Y-9722698D01*
X12586955Y-9722698D02*
X12596479Y-9741746D01*
X12596479Y-9741746D02*
X12606003Y-9751270D01*
X12606003Y-9751270D02*
X12625051Y-9760793D01*
X12625051Y-9760793D02*
X12663146Y-9760793D01*
X12663146Y-9760793D02*
X12682194Y-9751270D01*
X12682194Y-9751270D02*
X12691717Y-9741746D01*
X12691717Y-9741746D02*
X12701241Y-9722698D01*
X12777432Y-9636984D02*
X12777432Y-9675079D01*
X12853622Y-9636984D02*
X12853622Y-9675079D01*
X13148860Y-9913174D02*
X13139336Y-9903650D01*
X13139336Y-9903650D02*
X13120289Y-9875079D01*
X13120289Y-9875079D02*
X13110765Y-9856031D01*
X13110765Y-9856031D02*
X13101241Y-9827460D01*
X13101241Y-9827460D02*
X13091717Y-9779841D01*
X13091717Y-9779841D02*
X13091717Y-9741746D01*
X13091717Y-9741746D02*
X13101241Y-9694127D01*
X13101241Y-9694127D02*
X13110765Y-9665555D01*
X13110765Y-9665555D02*
X13120289Y-9646508D01*
X13120289Y-9646508D02*
X13139336Y-9617936D01*
X13139336Y-9617936D02*
X13148860Y-9608412D01*
X13263146Y-9636984D02*
X13282194Y-9636984D01*
X13282194Y-9636984D02*
X13301241Y-9646508D01*
X13301241Y-9646508D02*
X13310765Y-9656031D01*
X13310765Y-9656031D02*
X13320289Y-9675079D01*
X13320289Y-9675079D02*
X13329813Y-9713174D01*
X13329813Y-9713174D02*
X13329813Y-9760793D01*
X13329813Y-9760793D02*
X13320289Y-9798889D01*
X13320289Y-9798889D02*
X13310765Y-9817936D01*
X13310765Y-9817936D02*
X13301241Y-9827460D01*
X13301241Y-9827460D02*
X13282194Y-9836984D01*
X13282194Y-9836984D02*
X13263146Y-9836984D01*
X13263146Y-9836984D02*
X13244098Y-9827460D01*
X13244098Y-9827460D02*
X13234575Y-9817936D01*
X13234575Y-9817936D02*
X13225051Y-9798889D01*
X13225051Y-9798889D02*
X13215527Y-9760793D01*
X13215527Y-9760793D02*
X13215527Y-9713174D01*
X13215527Y-9713174D02*
X13225051Y-9675079D01*
X13225051Y-9675079D02*
X13234575Y-9656031D01*
X13234575Y-9656031D02*
X13244098Y-9646508D01*
X13244098Y-9646508D02*
X13263146Y-9636984D01*
X13567908Y-9836984D02*
X13567908Y-9636984D01*
X13653622Y-9836984D02*
X13653622Y-9732222D01*
X13653622Y-9732222D02*
X13644098Y-9713174D01*
X13644098Y-9713174D02*
X13625051Y-9703650D01*
X13625051Y-9703650D02*
X13596479Y-9703650D01*
X13596479Y-9703650D02*
X13577432Y-9713174D01*
X13577432Y-9713174D02*
X13567908Y-9722698D01*
X13777432Y-9836984D02*
X13758384Y-9827460D01*
X13758384Y-9827460D02*
X13748860Y-9817936D01*
X13748860Y-9817936D02*
X13739337Y-9798889D01*
X13739337Y-9798889D02*
X13739337Y-9741746D01*
X13739337Y-9741746D02*
X13748860Y-9722698D01*
X13748860Y-9722698D02*
X13758384Y-9713174D01*
X13758384Y-9713174D02*
X13777432Y-9703650D01*
X13777432Y-9703650D02*
X13806003Y-9703650D01*
X13806003Y-9703650D02*
X13825051Y-9713174D01*
X13825051Y-9713174D02*
X13834575Y-9722698D01*
X13834575Y-9722698D02*
X13844098Y-9741746D01*
X13844098Y-9741746D02*
X13844098Y-9798889D01*
X13844098Y-9798889D02*
X13834575Y-9817936D01*
X13834575Y-9817936D02*
X13825051Y-9827460D01*
X13825051Y-9827460D02*
X13806003Y-9836984D01*
X13806003Y-9836984D02*
X13777432Y-9836984D01*
X13958384Y-9836984D02*
X13939337Y-9827460D01*
X13939337Y-9827460D02*
X13929813Y-9808412D01*
X13929813Y-9808412D02*
X13929813Y-9636984D01*
X14110765Y-9827460D02*
X14091718Y-9836984D01*
X14091718Y-9836984D02*
X14053622Y-9836984D01*
X14053622Y-9836984D02*
X14034575Y-9827460D01*
X14034575Y-9827460D02*
X14025051Y-9808412D01*
X14025051Y-9808412D02*
X14025051Y-9732222D01*
X14025051Y-9732222D02*
X14034575Y-9713174D01*
X14034575Y-9713174D02*
X14053622Y-9703650D01*
X14053622Y-9703650D02*
X14091718Y-9703650D01*
X14091718Y-9703650D02*
X14110765Y-9713174D01*
X14110765Y-9713174D02*
X14120289Y-9732222D01*
X14120289Y-9732222D02*
X14120289Y-9751270D01*
X14120289Y-9751270D02*
X14025051Y-9770317D01*
X14196479Y-9827460D02*
X14215527Y-9836984D01*
X14215527Y-9836984D02*
X14253622Y-9836984D01*
X14253622Y-9836984D02*
X14272670Y-9827460D01*
X14272670Y-9827460D02*
X14282194Y-9808412D01*
X14282194Y-9808412D02*
X14282194Y-9798889D01*
X14282194Y-9798889D02*
X14272670Y-9779841D01*
X14272670Y-9779841D02*
X14253622Y-9770317D01*
X14253622Y-9770317D02*
X14225051Y-9770317D01*
X14225051Y-9770317D02*
X14206003Y-9760793D01*
X14206003Y-9760793D02*
X14196479Y-9741746D01*
X14196479Y-9741746D02*
X14196479Y-9732222D01*
X14196479Y-9732222D02*
X14206003Y-9713174D01*
X14206003Y-9713174D02*
X14225051Y-9703650D01*
X14225051Y-9703650D02*
X14253622Y-9703650D01*
X14253622Y-9703650D02*
X14272670Y-9713174D01*
X14520289Y-9760793D02*
X14672670Y-9760793D01*
X14596480Y-9836984D02*
X14596480Y-9684603D01*
X15006003Y-9703650D02*
X15006003Y-9836984D01*
X14958384Y-9627460D02*
X14910765Y-9770317D01*
X14910765Y-9770317D02*
X15034575Y-9770317D01*
X15253622Y-9827460D02*
X15272670Y-9836984D01*
X15272670Y-9836984D02*
X15310765Y-9836984D01*
X15310765Y-9836984D02*
X15329813Y-9827460D01*
X15329813Y-9827460D02*
X15339337Y-9808412D01*
X15339337Y-9808412D02*
X15339337Y-9798889D01*
X15339337Y-9798889D02*
X15329813Y-9779841D01*
X15329813Y-9779841D02*
X15310765Y-9770317D01*
X15310765Y-9770317D02*
X15282194Y-9770317D01*
X15282194Y-9770317D02*
X15263146Y-9760793D01*
X15263146Y-9760793D02*
X15253622Y-9741746D01*
X15253622Y-9741746D02*
X15253622Y-9732222D01*
X15253622Y-9732222D02*
X15263146Y-9713174D01*
X15263146Y-9713174D02*
X15282194Y-9703650D01*
X15282194Y-9703650D02*
X15310765Y-9703650D01*
X15310765Y-9703650D02*
X15329813Y-9713174D01*
X15453622Y-9836984D02*
X15434575Y-9827460D01*
X15434575Y-9827460D02*
X15425051Y-9808412D01*
X15425051Y-9808412D02*
X15425051Y-9636984D01*
X15558384Y-9836984D02*
X15539337Y-9827460D01*
X15539337Y-9827460D02*
X15529813Y-9817936D01*
X15529813Y-9817936D02*
X15520289Y-9798889D01*
X15520289Y-9798889D02*
X15520289Y-9741746D01*
X15520289Y-9741746D02*
X15529813Y-9722698D01*
X15529813Y-9722698D02*
X15539337Y-9713174D01*
X15539337Y-9713174D02*
X15558384Y-9703650D01*
X15558384Y-9703650D02*
X15586956Y-9703650D01*
X15586956Y-9703650D02*
X15606003Y-9713174D01*
X15606003Y-9713174D02*
X15615527Y-9722698D01*
X15615527Y-9722698D02*
X15625051Y-9741746D01*
X15625051Y-9741746D02*
X15625051Y-9798889D01*
X15625051Y-9798889D02*
X15615527Y-9817936D01*
X15615527Y-9817936D02*
X15606003Y-9827460D01*
X15606003Y-9827460D02*
X15586956Y-9836984D01*
X15586956Y-9836984D02*
X15558384Y-9836984D01*
X15682194Y-9703650D02*
X15758384Y-9703650D01*
X15710765Y-9636984D02*
X15710765Y-9808412D01*
X15710765Y-9808412D02*
X15720289Y-9827460D01*
X15720289Y-9827460D02*
X15739337Y-9836984D01*
X15739337Y-9836984D02*
X15758384Y-9836984D01*
X15815527Y-9827460D02*
X15834575Y-9836984D01*
X15834575Y-9836984D02*
X15872670Y-9836984D01*
X15872670Y-9836984D02*
X15891718Y-9827460D01*
X15891718Y-9827460D02*
X15901242Y-9808412D01*
X15901242Y-9808412D02*
X15901242Y-9798889D01*
X15901242Y-9798889D02*
X15891718Y-9779841D01*
X15891718Y-9779841D02*
X15872670Y-9770317D01*
X15872670Y-9770317D02*
X15844099Y-9770317D01*
X15844099Y-9770317D02*
X15825051Y-9760793D01*
X15825051Y-9760793D02*
X15815527Y-9741746D01*
X15815527Y-9741746D02*
X15815527Y-9732222D01*
X15815527Y-9732222D02*
X15825051Y-9713174D01*
X15825051Y-9713174D02*
X15844099Y-9703650D01*
X15844099Y-9703650D02*
X15872670Y-9703650D01*
X15872670Y-9703650D02*
X15891718Y-9713174D01*
X15967908Y-9913174D02*
X15977432Y-9903650D01*
X15977432Y-9903650D02*
X15996480Y-9875079D01*
X15996480Y-9875079D02*
X16006003Y-9856031D01*
X16006003Y-9856031D02*
X16015527Y-9827460D01*
X16015527Y-9827460D02*
X16025051Y-9779841D01*
X16025051Y-9779841D02*
X16025051Y-9741746D01*
X16025051Y-9741746D02*
X16015527Y-9694127D01*
X16015527Y-9694127D02*
X16006003Y-9665555D01*
X16006003Y-9665555D02*
X15996480Y-9646508D01*
X15996480Y-9646508D02*
X15977432Y-9617936D01*
X15977432Y-9617936D02*
X15967908Y-9608412D01*
M02*
