%TF.GenerationSoftware,KiCad,Pcbnew,8.0.5*%
%TF.CreationDate,2025-04-06T12:02:06+02:00*%
%TF.ProjectId,btmdpcb,62746d64-7063-4622-9e6b-696361645f70,rev?*%
%TF.SameCoordinates,Original*%
%TF.FileFunction,Copper,L2,Inr*%
%TF.FilePolarity,Positive*%
%FSLAX46Y46*%
G04 Gerber Fmt 4.6, Leading zero omitted, Abs format (unit mm)*
G04 Created by KiCad (PCBNEW 8.0.5) date 2025-04-06 12:02:06*
%MOMM*%
%LPD*%
G01*
G04 APERTURE LIST*
%TA.AperFunction,ComponentPad*%
%ADD10O,1.900000X1.100000*%
%TD*%
%TA.AperFunction,ComponentPad*%
%ADD11R,0.900000X0.500000*%
%TD*%
%TA.AperFunction,ViaPad*%
%ADD12C,0.600000*%
%TD*%
G04 APERTURE END LIST*
D10*
%TO.N,/supply/SHIELD*%
%TO.C,J2*%
X102625147Y-45224943D03*
X98024944Y-45224943D03*
X102625147Y-56375057D03*
X98024944Y-56375057D03*
%TD*%
D11*
%TO.N,GND*%
%TO.C,AE1*%
X150300000Y-79375000D03*
%TD*%
D12*
%TO.N,GND*%
X139065000Y-83820000D03*
X133985000Y-52705000D03*
X116840000Y-64135000D03*
X99060000Y-81280000D03*
X102870000Y-67945000D03*
X114935000Y-67310000D03*
X156845000Y-78105000D03*
X121285000Y-43180000D03*
X123825000Y-83820000D03*
X130175000Y-48260000D03*
X142875000Y-60325000D03*
X122555000Y-53975000D03*
X166370000Y-43180000D03*
X97790000Y-60960000D03*
X136525000Y-74930000D03*
X128270000Y-56515000D03*
X97790000Y-71755000D03*
X107950000Y-80010000D03*
X153670000Y-43180000D03*
X107950000Y-43815000D03*
X140335000Y-48895000D03*
X112395000Y-67310000D03*
X166370000Y-55880000D03*
X164465000Y-71120000D03*
X106680000Y-67310000D03*
X111760000Y-83820000D03*
X161290000Y-75565000D03*
X115570000Y-48895000D03*
X134620000Y-47625000D03*
X97790000Y-83820000D03*
X125730000Y-63500000D03*
X166370000Y-66040000D03*
X133096000Y-60579000D03*
X164465000Y-57785000D03*
X141605000Y-43815000D03*
X132715000Y-67437000D03*
X106680000Y-76200000D03*
X143510000Y-52705000D03*
X123190000Y-48260000D03*
X159385000Y-73660000D03*
X156845000Y-71120000D03*
X113030000Y-76200000D03*
X161290000Y-71120000D03*
X166370000Y-77470000D03*
X109220000Y-56515000D03*
X99060000Y-60960000D03*
X165735000Y-57785000D03*
X110490000Y-72390000D03*
X154940000Y-71120000D03*
X140335000Y-77470000D03*
X147320000Y-49530000D03*
X120650000Y-62865000D03*
X154940000Y-53340000D03*
X161290000Y-76835000D03*
X118110000Y-72390000D03*
X106680000Y-71755000D03*
X137795000Y-43815000D03*
X101600000Y-60960000D03*
X120650000Y-48260000D03*
X123190000Y-50800000D03*
X137160000Y-57785000D03*
X127635000Y-67437000D03*
X158115000Y-73660000D03*
X129794000Y-59817000D03*
X133985000Y-43180000D03*
X106045000Y-54610000D03*
X156845000Y-74295000D03*
X106045000Y-43180000D03*
X106045000Y-46990000D03*
%TO.N,Net-(LED2-K)*%
X122047000Y-56007000D03*
X113030000Y-53340000D03*
%TO.N,/KICKSTART{slash}BT_BTN*%
X156210000Y-49530000D03*
X113030000Y-71755000D03*
%TO.N,VDD*%
X127000000Y-55880000D03*
X102870000Y-71755000D03*
%TO.N,VBUS*%
X103505000Y-62230000D03*
X109220000Y-45720000D03*
X106045000Y-48425003D03*
X106045000Y-53174997D03*
%TO.N,/power_we/MODE*%
X131318000Y-58293000D03*
X129111000Y-62606000D03*
%TO.N,+1V5*%
X98425000Y-67945000D03*
X135890000Y-57150000D03*
%TO.N,+SUPPLY*%
X122555000Y-60960000D03*
X104140000Y-77470000D03*
X99060000Y-76200000D03*
X100330000Y-67945000D03*
X104775000Y-63500000D03*
X114665000Y-77470000D03*
X122555000Y-69850000D03*
X100330000Y-73660000D03*
%TO.N,/supply/SHIELD*%
X103505000Y-43180000D03*
X97790000Y-57785000D03*
X103505000Y-57785000D03*
X101600000Y-43180000D03*
X100330000Y-56515000D03*
X99695000Y-43180000D03*
X97790000Y-43180000D03*
%TO.N,/supply/D+*%
X106748200Y-50800000D03*
X107950000Y-50800000D03*
%TD*%
%TA.AperFunction,Conductor*%
%TO.N,GND*%
G36*
X167598531Y-41929213D02*
G01*
X167635076Y-41979513D01*
X167640000Y-42010600D01*
X167640000Y-79528400D01*
X167620787Y-79587531D01*
X167570487Y-79624076D01*
X167539400Y-79629000D01*
X140462000Y-79629000D01*
X140337285Y-84991739D01*
X140316702Y-85050407D01*
X140265566Y-85085773D01*
X140236712Y-85090000D01*
X96620600Y-85090000D01*
X96561469Y-85070787D01*
X96524924Y-85020487D01*
X96520000Y-84989400D01*
X96520000Y-77469996D01*
X103529477Y-77469996D01*
X103529477Y-77470003D01*
X103550279Y-77628014D01*
X103611269Y-77775257D01*
X103611273Y-77775264D01*
X103697159Y-77887192D01*
X103708295Y-77901705D01*
X103708298Y-77901707D01*
X103834735Y-77998726D01*
X103834742Y-77998730D01*
X103981985Y-78059720D01*
X104139997Y-78080523D01*
X104140000Y-78080523D01*
X104140003Y-78080523D01*
X104258511Y-78064920D01*
X104298015Y-78059720D01*
X104445262Y-77998728D01*
X104571705Y-77901705D01*
X104668728Y-77775262D01*
X104729720Y-77628015D01*
X104750523Y-77470000D01*
X104750523Y-77469996D01*
X114054477Y-77469996D01*
X114054477Y-77470003D01*
X114075279Y-77628014D01*
X114136269Y-77775257D01*
X114136273Y-77775264D01*
X114222159Y-77887192D01*
X114233295Y-77901705D01*
X114233298Y-77901707D01*
X114359735Y-77998726D01*
X114359742Y-77998730D01*
X114506985Y-78059720D01*
X114664997Y-78080523D01*
X114665000Y-78080523D01*
X114665003Y-78080523D01*
X114783511Y-78064920D01*
X114823015Y-78059720D01*
X114970262Y-77998728D01*
X115096705Y-77901705D01*
X115193728Y-77775262D01*
X115254720Y-77628015D01*
X115275523Y-77470000D01*
X115275523Y-77469996D01*
X115254721Y-77311988D01*
X115193730Y-77164743D01*
X115193729Y-77164741D01*
X115193728Y-77164740D01*
X115193728Y-77164739D01*
X115096705Y-77038295D01*
X114970262Y-76941272D01*
X114970261Y-76941271D01*
X114970259Y-76941270D01*
X114970257Y-76941269D01*
X114823014Y-76880279D01*
X114665003Y-76859477D01*
X114664997Y-76859477D01*
X114506988Y-76880278D01*
X114359743Y-76941269D01*
X114359741Y-76941270D01*
X114233295Y-77038295D01*
X114136270Y-77164741D01*
X114136269Y-77164743D01*
X114075278Y-77311988D01*
X114054477Y-77469996D01*
X104750523Y-77469996D01*
X104729721Y-77311988D01*
X104668730Y-77164743D01*
X104668729Y-77164741D01*
X104668728Y-77164740D01*
X104668728Y-77164739D01*
X104571705Y-77038295D01*
X104445262Y-76941272D01*
X104445261Y-76941271D01*
X104445259Y-76941270D01*
X104445257Y-76941269D01*
X104298014Y-76880279D01*
X104140003Y-76859477D01*
X104139997Y-76859477D01*
X103981988Y-76880278D01*
X103834743Y-76941269D01*
X103834741Y-76941270D01*
X103708295Y-77038295D01*
X103611270Y-77164741D01*
X103611269Y-77164743D01*
X103550278Y-77311988D01*
X103529477Y-77469996D01*
X96520000Y-77469996D01*
X96520000Y-76199996D01*
X98449477Y-76199996D01*
X98449477Y-76200003D01*
X98470279Y-76358014D01*
X98531269Y-76505257D01*
X98531273Y-76505264D01*
X98617159Y-76617192D01*
X98628295Y-76631705D01*
X98628298Y-76631707D01*
X98754735Y-76728726D01*
X98754742Y-76728730D01*
X98901985Y-76789720D01*
X99059997Y-76810523D01*
X99060000Y-76810523D01*
X99060003Y-76810523D01*
X99178511Y-76794920D01*
X99218015Y-76789720D01*
X99365262Y-76728728D01*
X99491705Y-76631705D01*
X99588728Y-76505262D01*
X99649720Y-76358015D01*
X99670523Y-76200000D01*
X99670523Y-76199996D01*
X99649721Y-76041988D01*
X99588730Y-75894743D01*
X99588729Y-75894741D01*
X99588728Y-75894740D01*
X99588728Y-75894739D01*
X99491705Y-75768295D01*
X99365262Y-75671272D01*
X99365261Y-75671271D01*
X99365259Y-75671270D01*
X99365257Y-75671269D01*
X99218014Y-75610279D01*
X99060003Y-75589477D01*
X99059997Y-75589477D01*
X98901988Y-75610278D01*
X98754743Y-75671269D01*
X98754741Y-75671270D01*
X98628295Y-75768295D01*
X98531270Y-75894741D01*
X98531269Y-75894743D01*
X98470278Y-76041988D01*
X98449477Y-76199996D01*
X96520000Y-76199996D01*
X96520000Y-73659996D01*
X99719477Y-73659996D01*
X99719477Y-73660003D01*
X99740279Y-73818014D01*
X99801269Y-73965257D01*
X99801273Y-73965264D01*
X99887159Y-74077192D01*
X99898295Y-74091705D01*
X99898298Y-74091707D01*
X100024735Y-74188726D01*
X100024742Y-74188730D01*
X100171985Y-74249720D01*
X100329997Y-74270523D01*
X100330000Y-74270523D01*
X100330003Y-74270523D01*
X100448511Y-74254920D01*
X100488015Y-74249720D01*
X100635262Y-74188728D01*
X100761705Y-74091705D01*
X100858728Y-73965262D01*
X100919720Y-73818015D01*
X100940523Y-73660000D01*
X100940523Y-73659996D01*
X100919721Y-73501988D01*
X100858730Y-73354743D01*
X100858729Y-73354741D01*
X100858728Y-73354740D01*
X100858728Y-73354739D01*
X100761705Y-73228295D01*
X100635262Y-73131272D01*
X100635261Y-73131271D01*
X100635259Y-73131270D01*
X100635257Y-73131269D01*
X100488014Y-73070279D01*
X100330003Y-73049477D01*
X100329997Y-73049477D01*
X100171988Y-73070278D01*
X100024743Y-73131269D01*
X100024741Y-73131270D01*
X99898295Y-73228295D01*
X99801270Y-73354741D01*
X99801269Y-73354743D01*
X99740278Y-73501988D01*
X99719477Y-73659996D01*
X96520000Y-73659996D01*
X96520000Y-71754996D01*
X102259477Y-71754996D01*
X102259477Y-71755003D01*
X102280279Y-71913014D01*
X102341269Y-72060257D01*
X102341273Y-72060264D01*
X102427159Y-72172192D01*
X102438295Y-72186705D01*
X102438298Y-72186707D01*
X102564735Y-72283726D01*
X102564742Y-72283730D01*
X102711985Y-72344720D01*
X102869997Y-72365523D01*
X102870000Y-72365523D01*
X102870003Y-72365523D01*
X102988511Y-72349920D01*
X103028015Y-72344720D01*
X103175262Y-72283728D01*
X103301705Y-72186705D01*
X103398728Y-72060262D01*
X103459720Y-71913015D01*
X103480523Y-71755000D01*
X103480523Y-71754996D01*
X112419477Y-71754996D01*
X112419477Y-71755003D01*
X112440279Y-71913014D01*
X112501269Y-72060257D01*
X112501273Y-72060264D01*
X112587159Y-72172192D01*
X112598295Y-72186705D01*
X112598298Y-72186707D01*
X112724735Y-72283726D01*
X112724742Y-72283730D01*
X112871985Y-72344720D01*
X113029997Y-72365523D01*
X113030000Y-72365523D01*
X113030003Y-72365523D01*
X113148511Y-72349920D01*
X113188015Y-72344720D01*
X113335262Y-72283728D01*
X113461705Y-72186705D01*
X113558728Y-72060262D01*
X113619720Y-71913015D01*
X113640523Y-71755000D01*
X113640523Y-71754996D01*
X113619721Y-71596988D01*
X113558730Y-71449743D01*
X113558729Y-71449741D01*
X113558728Y-71449740D01*
X113558728Y-71449739D01*
X113461705Y-71323295D01*
X113335262Y-71226272D01*
X113335261Y-71226271D01*
X113335259Y-71226270D01*
X113335257Y-71226269D01*
X113188014Y-71165279D01*
X113030003Y-71144477D01*
X113029997Y-71144477D01*
X112871988Y-71165278D01*
X112724743Y-71226269D01*
X112724741Y-71226270D01*
X112598295Y-71323295D01*
X112501270Y-71449741D01*
X112501269Y-71449743D01*
X112440278Y-71596988D01*
X112419477Y-71754996D01*
X103480523Y-71754996D01*
X103459721Y-71596988D01*
X103398730Y-71449743D01*
X103398729Y-71449741D01*
X103398728Y-71449740D01*
X103398728Y-71449739D01*
X103301705Y-71323295D01*
X103175262Y-71226272D01*
X103175261Y-71226271D01*
X103175259Y-71226270D01*
X103175257Y-71226269D01*
X103028014Y-71165279D01*
X102870003Y-71144477D01*
X102869997Y-71144477D01*
X102711988Y-71165278D01*
X102564743Y-71226269D01*
X102564741Y-71226270D01*
X102438295Y-71323295D01*
X102341270Y-71449741D01*
X102341269Y-71449743D01*
X102280278Y-71596988D01*
X102259477Y-71754996D01*
X96520000Y-71754996D01*
X96520000Y-69849996D01*
X121944477Y-69849996D01*
X121944477Y-69850003D01*
X121965279Y-70008014D01*
X122026269Y-70155257D01*
X122026273Y-70155264D01*
X122112159Y-70267192D01*
X122123295Y-70281705D01*
X122123298Y-70281707D01*
X122249735Y-70378726D01*
X122249742Y-70378730D01*
X122396985Y-70439720D01*
X122554997Y-70460523D01*
X122555000Y-70460523D01*
X122555003Y-70460523D01*
X122673511Y-70444920D01*
X122713015Y-70439720D01*
X122860262Y-70378728D01*
X122986705Y-70281705D01*
X123083728Y-70155262D01*
X123144720Y-70008015D01*
X123165523Y-69850000D01*
X123165523Y-69849996D01*
X123144721Y-69691988D01*
X123083730Y-69544743D01*
X123083729Y-69544741D01*
X123083728Y-69544740D01*
X123083728Y-69544739D01*
X122986705Y-69418295D01*
X122860262Y-69321272D01*
X122860261Y-69321271D01*
X122860259Y-69321270D01*
X122860257Y-69321269D01*
X122713014Y-69260279D01*
X122555003Y-69239477D01*
X122554997Y-69239477D01*
X122396988Y-69260278D01*
X122249743Y-69321269D01*
X122249741Y-69321270D01*
X122123295Y-69418295D01*
X122026270Y-69544741D01*
X122026269Y-69544743D01*
X121965278Y-69691988D01*
X121944477Y-69849996D01*
X96520000Y-69849996D01*
X96520000Y-67944996D01*
X97814477Y-67944996D01*
X97814477Y-67945003D01*
X97835279Y-68103014D01*
X97896269Y-68250257D01*
X97896273Y-68250264D01*
X97982159Y-68362192D01*
X97993295Y-68376705D01*
X97993298Y-68376707D01*
X98119735Y-68473726D01*
X98119742Y-68473730D01*
X98266985Y-68534720D01*
X98424997Y-68555523D01*
X98425000Y-68555523D01*
X98425003Y-68555523D01*
X98543511Y-68539920D01*
X98583015Y-68534720D01*
X98730262Y-68473728D01*
X98856705Y-68376705D01*
X98953728Y-68250262D01*
X99014720Y-68103015D01*
X99035523Y-67945000D01*
X99035523Y-67944996D01*
X99719477Y-67944996D01*
X99719477Y-67945003D01*
X99740279Y-68103014D01*
X99801269Y-68250257D01*
X99801273Y-68250264D01*
X99887159Y-68362192D01*
X99898295Y-68376705D01*
X99898298Y-68376707D01*
X100024735Y-68473726D01*
X100024742Y-68473730D01*
X100171985Y-68534720D01*
X100329997Y-68555523D01*
X100330000Y-68555523D01*
X100330003Y-68555523D01*
X100448511Y-68539920D01*
X100488015Y-68534720D01*
X100635262Y-68473728D01*
X100761705Y-68376705D01*
X100858728Y-68250262D01*
X100919720Y-68103015D01*
X100940523Y-67945000D01*
X100940523Y-67944996D01*
X100919721Y-67786988D01*
X100858730Y-67639743D01*
X100858729Y-67639741D01*
X100858728Y-67639740D01*
X100858728Y-67639739D01*
X100761705Y-67513295D01*
X100635262Y-67416272D01*
X100635261Y-67416271D01*
X100635259Y-67416270D01*
X100635257Y-67416269D01*
X100488014Y-67355279D01*
X100330003Y-67334477D01*
X100329997Y-67334477D01*
X100171988Y-67355278D01*
X100024743Y-67416269D01*
X100024741Y-67416270D01*
X99898295Y-67513295D01*
X99801270Y-67639741D01*
X99801269Y-67639743D01*
X99740278Y-67786988D01*
X99719477Y-67944996D01*
X99035523Y-67944996D01*
X99014721Y-67786988D01*
X98953730Y-67639743D01*
X98953729Y-67639741D01*
X98953728Y-67639740D01*
X98953728Y-67639739D01*
X98856705Y-67513295D01*
X98730262Y-67416272D01*
X98730261Y-67416271D01*
X98730259Y-67416270D01*
X98730257Y-67416269D01*
X98583014Y-67355279D01*
X98425003Y-67334477D01*
X98424997Y-67334477D01*
X98266988Y-67355278D01*
X98119743Y-67416269D01*
X98119741Y-67416270D01*
X97993295Y-67513295D01*
X97896270Y-67639741D01*
X97896269Y-67639743D01*
X97835278Y-67786988D01*
X97814477Y-67944996D01*
X96520000Y-67944996D01*
X96520000Y-63499996D01*
X104164477Y-63499996D01*
X104164477Y-63500003D01*
X104185279Y-63658014D01*
X104246269Y-63805257D01*
X104246273Y-63805264D01*
X104332159Y-63917192D01*
X104343295Y-63931705D01*
X104343298Y-63931707D01*
X104469735Y-64028726D01*
X104469742Y-64028730D01*
X104616985Y-64089720D01*
X104774997Y-64110523D01*
X104775000Y-64110523D01*
X104775003Y-64110523D01*
X104893511Y-64094920D01*
X104933015Y-64089720D01*
X105080262Y-64028728D01*
X105206705Y-63931705D01*
X105303728Y-63805262D01*
X105364720Y-63658015D01*
X105385523Y-63500000D01*
X105385523Y-63499996D01*
X105364721Y-63341988D01*
X105303730Y-63194743D01*
X105303729Y-63194741D01*
X105303728Y-63194740D01*
X105303728Y-63194739D01*
X105206705Y-63068295D01*
X105080262Y-62971272D01*
X105080261Y-62971271D01*
X105080259Y-62971270D01*
X105080257Y-62971269D01*
X104933014Y-62910279D01*
X104775003Y-62889477D01*
X104774997Y-62889477D01*
X104616988Y-62910278D01*
X104469743Y-62971269D01*
X104469741Y-62971270D01*
X104343295Y-63068295D01*
X104246270Y-63194741D01*
X104246269Y-63194743D01*
X104185278Y-63341988D01*
X104164477Y-63499996D01*
X96520000Y-63499996D01*
X96520000Y-62229996D01*
X102894477Y-62229996D01*
X102894477Y-62230003D01*
X102915279Y-62388014D01*
X102976269Y-62535257D01*
X102976273Y-62535264D01*
X103030548Y-62605996D01*
X103073295Y-62661705D01*
X103073298Y-62661707D01*
X103199735Y-62758726D01*
X103199742Y-62758730D01*
X103346985Y-62819720D01*
X103504997Y-62840523D01*
X103505000Y-62840523D01*
X103505003Y-62840523D01*
X103623511Y-62824920D01*
X103663015Y-62819720D01*
X103810262Y-62758728D01*
X103936705Y-62661705D01*
X103979452Y-62605996D01*
X128500477Y-62605996D01*
X128500477Y-62606003D01*
X128521279Y-62764014D01*
X128582269Y-62911257D01*
X128582273Y-62911264D01*
X128628319Y-62971272D01*
X128679295Y-63037705D01*
X128679298Y-63037707D01*
X128805735Y-63134726D01*
X128805742Y-63134730D01*
X128952985Y-63195720D01*
X129110997Y-63216523D01*
X129111000Y-63216523D01*
X129111003Y-63216523D01*
X129229511Y-63200920D01*
X129269015Y-63195720D01*
X129416262Y-63134728D01*
X129542705Y-63037705D01*
X129639728Y-62911262D01*
X129700720Y-62764015D01*
X129714189Y-62661707D01*
X129721523Y-62606003D01*
X129721523Y-62605996D01*
X129700721Y-62447988D01*
X129639730Y-62300743D01*
X129639729Y-62300741D01*
X129639728Y-62300740D01*
X129639728Y-62300739D01*
X129542705Y-62174295D01*
X129416262Y-62077272D01*
X129416261Y-62077271D01*
X129416259Y-62077270D01*
X129416257Y-62077269D01*
X129269014Y-62016279D01*
X129111003Y-61995477D01*
X129110997Y-61995477D01*
X128952988Y-62016278D01*
X128805743Y-62077269D01*
X128805741Y-62077270D01*
X128679295Y-62174295D01*
X128582270Y-62300741D01*
X128582269Y-62300743D01*
X128521278Y-62447988D01*
X128500477Y-62605996D01*
X103979452Y-62605996D01*
X104033728Y-62535262D01*
X104094720Y-62388015D01*
X104115523Y-62230000D01*
X104115523Y-62229996D01*
X104094721Y-62071988D01*
X104033730Y-61924743D01*
X104033729Y-61924741D01*
X104033728Y-61924740D01*
X104033728Y-61924739D01*
X103936705Y-61798295D01*
X103810262Y-61701272D01*
X103810261Y-61701271D01*
X103810259Y-61701270D01*
X103810257Y-61701269D01*
X103663014Y-61640279D01*
X103505003Y-61619477D01*
X103504997Y-61619477D01*
X103346988Y-61640278D01*
X103199743Y-61701269D01*
X103199741Y-61701270D01*
X103073295Y-61798295D01*
X102976270Y-61924741D01*
X102976269Y-61924743D01*
X102915278Y-62071988D01*
X102894477Y-62229996D01*
X96520000Y-62229996D01*
X96520000Y-60959996D01*
X121944477Y-60959996D01*
X121944477Y-60960003D01*
X121965279Y-61118014D01*
X122026269Y-61265257D01*
X122026273Y-61265264D01*
X122112159Y-61377192D01*
X122123295Y-61391705D01*
X122123298Y-61391707D01*
X122249735Y-61488726D01*
X122249742Y-61488730D01*
X122396985Y-61549720D01*
X122554997Y-61570523D01*
X122555000Y-61570523D01*
X122555003Y-61570523D01*
X122673511Y-61554920D01*
X122713015Y-61549720D01*
X122860262Y-61488728D01*
X122986705Y-61391705D01*
X123083728Y-61265262D01*
X123144720Y-61118015D01*
X123165523Y-60960000D01*
X123165523Y-60959996D01*
X123144721Y-60801988D01*
X123083730Y-60654743D01*
X123083729Y-60654741D01*
X123083728Y-60654740D01*
X123083728Y-60654739D01*
X122986705Y-60528295D01*
X122860262Y-60431272D01*
X122860261Y-60431271D01*
X122860259Y-60431270D01*
X122860257Y-60431269D01*
X122713014Y-60370279D01*
X122555003Y-60349477D01*
X122554997Y-60349477D01*
X122396988Y-60370278D01*
X122249743Y-60431269D01*
X122249741Y-60431270D01*
X122123295Y-60528295D01*
X122026270Y-60654741D01*
X122026269Y-60654743D01*
X121965278Y-60801988D01*
X121944477Y-60959996D01*
X96520000Y-60959996D01*
X96520000Y-59790600D01*
X96539213Y-59731469D01*
X96589513Y-59694924D01*
X96620600Y-59690000D01*
X104775000Y-59690000D01*
X104775000Y-58292996D01*
X130707477Y-58292996D01*
X130707477Y-58293003D01*
X130728279Y-58451014D01*
X130789269Y-58598257D01*
X130789273Y-58598264D01*
X130875159Y-58710192D01*
X130886295Y-58724705D01*
X130886298Y-58724707D01*
X131012735Y-58821726D01*
X131012742Y-58821730D01*
X131159985Y-58882720D01*
X131317997Y-58903523D01*
X131318000Y-58903523D01*
X131318003Y-58903523D01*
X131436511Y-58887920D01*
X131476015Y-58882720D01*
X131623262Y-58821728D01*
X131749705Y-58724705D01*
X131846728Y-58598262D01*
X131907720Y-58451015D01*
X131915026Y-58395523D01*
X131928523Y-58293003D01*
X131928523Y-58292996D01*
X131907721Y-58134988D01*
X131846730Y-57987743D01*
X131846729Y-57987741D01*
X131846728Y-57987740D01*
X131846728Y-57987739D01*
X131749705Y-57861295D01*
X131623262Y-57764272D01*
X131623261Y-57764271D01*
X131623259Y-57764270D01*
X131623257Y-57764269D01*
X131476014Y-57703279D01*
X131318003Y-57682477D01*
X131317997Y-57682477D01*
X131159988Y-57703278D01*
X131012743Y-57764269D01*
X131012741Y-57764270D01*
X130886295Y-57861295D01*
X130789270Y-57987741D01*
X130789269Y-57987743D01*
X130728278Y-58134988D01*
X130707477Y-58292996D01*
X104775000Y-58292996D01*
X104775000Y-57149996D01*
X135279477Y-57149996D01*
X135279477Y-57150003D01*
X135300279Y-57308014D01*
X135361269Y-57455257D01*
X135361273Y-57455264D01*
X135447159Y-57567192D01*
X135458295Y-57581705D01*
X135458298Y-57581707D01*
X135584735Y-57678726D01*
X135584742Y-57678730D01*
X135731985Y-57739720D01*
X135889997Y-57760523D01*
X135890000Y-57760523D01*
X135890003Y-57760523D01*
X136008511Y-57744920D01*
X136048015Y-57739720D01*
X136195262Y-57678728D01*
X136321705Y-57581705D01*
X136418728Y-57455262D01*
X136479720Y-57308015D01*
X136500523Y-57150000D01*
X136500523Y-57149996D01*
X136479721Y-56991988D01*
X136418730Y-56844743D01*
X136418729Y-56844741D01*
X136418728Y-56844740D01*
X136418728Y-56844739D01*
X136321705Y-56718295D01*
X136195262Y-56621272D01*
X136195261Y-56621271D01*
X136195259Y-56621270D01*
X136195257Y-56621269D01*
X136048014Y-56560279D01*
X135890003Y-56539477D01*
X135889997Y-56539477D01*
X135731988Y-56560278D01*
X135584743Y-56621269D01*
X135584741Y-56621270D01*
X135458295Y-56718295D01*
X135361270Y-56844741D01*
X135361269Y-56844743D01*
X135300278Y-56991988D01*
X135279477Y-57149996D01*
X104775000Y-57149996D01*
X104775000Y-56006996D01*
X121436477Y-56006996D01*
X121436477Y-56007003D01*
X121457279Y-56165014D01*
X121518269Y-56312257D01*
X121518273Y-56312264D01*
X121552589Y-56356985D01*
X121615295Y-56438705D01*
X121615298Y-56438707D01*
X121741735Y-56535726D01*
X121741742Y-56535730D01*
X121888985Y-56596720D01*
X122046997Y-56617523D01*
X122047000Y-56617523D01*
X122047003Y-56617523D01*
X122165511Y-56601920D01*
X122205015Y-56596720D01*
X122352262Y-56535728D01*
X122478705Y-56438705D01*
X122575728Y-56312262D01*
X122636720Y-56165015D01*
X122657523Y-56007000D01*
X122657523Y-56006996D01*
X122640803Y-55879996D01*
X126389477Y-55879996D01*
X126389477Y-55880003D01*
X126410279Y-56038014D01*
X126471269Y-56185257D01*
X126471273Y-56185264D01*
X126552267Y-56290817D01*
X126568295Y-56311705D01*
X126569021Y-56312262D01*
X126694735Y-56408726D01*
X126694742Y-56408730D01*
X126841985Y-56469720D01*
X126999997Y-56490523D01*
X127000000Y-56490523D01*
X127000003Y-56490523D01*
X127118511Y-56474920D01*
X127158015Y-56469720D01*
X127305262Y-56408728D01*
X127431705Y-56311705D01*
X127528728Y-56185262D01*
X127589720Y-56038015D01*
X127610523Y-55880000D01*
X127610523Y-55879996D01*
X127589721Y-55721988D01*
X127581334Y-55701741D01*
X127546275Y-55617100D01*
X127528730Y-55574743D01*
X127528729Y-55574741D01*
X127528728Y-55574740D01*
X127528728Y-55574739D01*
X127431705Y-55448295D01*
X127305262Y-55351272D01*
X127305261Y-55351271D01*
X127305259Y-55351270D01*
X127305257Y-55351269D01*
X127158014Y-55290279D01*
X127000003Y-55269477D01*
X126999997Y-55269477D01*
X126841988Y-55290278D01*
X126694743Y-55351269D01*
X126694741Y-55351270D01*
X126568295Y-55448295D01*
X126471270Y-55574741D01*
X126471269Y-55574743D01*
X126410278Y-55721988D01*
X126389477Y-55879996D01*
X122640803Y-55879996D01*
X122636721Y-55848988D01*
X122575730Y-55701743D01*
X122575729Y-55701741D01*
X122575728Y-55701740D01*
X122575728Y-55701739D01*
X122478705Y-55575295D01*
X122352262Y-55478272D01*
X122352261Y-55478271D01*
X122352259Y-55478270D01*
X122352257Y-55478269D01*
X122205014Y-55417279D01*
X122047003Y-55396477D01*
X122046997Y-55396477D01*
X121888988Y-55417278D01*
X121741743Y-55478269D01*
X121741741Y-55478270D01*
X121615295Y-55575295D01*
X121518270Y-55701741D01*
X121518269Y-55701743D01*
X121457278Y-55848988D01*
X121436477Y-56006996D01*
X104775000Y-56006996D01*
X104775000Y-53174993D01*
X105434477Y-53174993D01*
X105434477Y-53175000D01*
X105455279Y-53333011D01*
X105516269Y-53480254D01*
X105516273Y-53480261D01*
X105602159Y-53592189D01*
X105613295Y-53606702D01*
X105663550Y-53645264D01*
X105739735Y-53703723D01*
X105739742Y-53703727D01*
X105886985Y-53764717D01*
X106044997Y-53785520D01*
X106045000Y-53785520D01*
X106045003Y-53785520D01*
X106163511Y-53769917D01*
X106203015Y-53764717D01*
X106350262Y-53703725D01*
X106476705Y-53606702D01*
X106573728Y-53480259D01*
X106631827Y-53339996D01*
X112419477Y-53339996D01*
X112419477Y-53340003D01*
X112440279Y-53498014D01*
X112501269Y-53645257D01*
X112501273Y-53645264D01*
X112587159Y-53757192D01*
X112598295Y-53771705D01*
X112598298Y-53771707D01*
X112724735Y-53868726D01*
X112724742Y-53868730D01*
X112871985Y-53929720D01*
X113029997Y-53950523D01*
X113030000Y-53950523D01*
X113030003Y-53950523D01*
X113148511Y-53934920D01*
X113188015Y-53929720D01*
X113335262Y-53868728D01*
X113461705Y-53771705D01*
X113558728Y-53645262D01*
X113619720Y-53498015D01*
X113640523Y-53340000D01*
X113640523Y-53339996D01*
X113619721Y-53181988D01*
X113616826Y-53175000D01*
X113558728Y-53034739D01*
X113461705Y-52908295D01*
X113335262Y-52811272D01*
X113335261Y-52811271D01*
X113335259Y-52811270D01*
X113335257Y-52811269D01*
X113188014Y-52750279D01*
X113030003Y-52729477D01*
X113029997Y-52729477D01*
X112871988Y-52750278D01*
X112724743Y-52811269D01*
X112724741Y-52811270D01*
X112598295Y-52908295D01*
X112501270Y-53034741D01*
X112501269Y-53034743D01*
X112440278Y-53181988D01*
X112419477Y-53339996D01*
X106631827Y-53339996D01*
X106634720Y-53333012D01*
X106655523Y-53174997D01*
X106655523Y-53174993D01*
X106634721Y-53016985D01*
X106573730Y-52869740D01*
X106573729Y-52869738D01*
X106573728Y-52869737D01*
X106573728Y-52869736D01*
X106476705Y-52743292D01*
X106350262Y-52646269D01*
X106350261Y-52646268D01*
X106350259Y-52646267D01*
X106350257Y-52646266D01*
X106203014Y-52585276D01*
X106045003Y-52564474D01*
X106044997Y-52564474D01*
X105886988Y-52585275D01*
X105739743Y-52646266D01*
X105739741Y-52646267D01*
X105613295Y-52743292D01*
X105516270Y-52869738D01*
X105516269Y-52869740D01*
X105455278Y-53016985D01*
X105434477Y-53174993D01*
X104775000Y-53174993D01*
X104775000Y-50799996D01*
X106137677Y-50799996D01*
X106137677Y-50800003D01*
X106158479Y-50958014D01*
X106219469Y-51105257D01*
X106219473Y-51105264D01*
X106305359Y-51217192D01*
X106316495Y-51231705D01*
X106316498Y-51231707D01*
X106442935Y-51328726D01*
X106442942Y-51328730D01*
X106590185Y-51389720D01*
X106748197Y-51410523D01*
X106748200Y-51410523D01*
X106748203Y-51410523D01*
X106866711Y-51394920D01*
X106906215Y-51389720D01*
X107053462Y-51328728D01*
X107179905Y-51231705D01*
X107269289Y-51115216D01*
X107320528Y-51080001D01*
X107382681Y-51081628D01*
X107428910Y-51115216D01*
X107518295Y-51231705D01*
X107518298Y-51231707D01*
X107644735Y-51328726D01*
X107644742Y-51328730D01*
X107791985Y-51389720D01*
X107949997Y-51410523D01*
X107950000Y-51410523D01*
X107950003Y-51410523D01*
X108068511Y-51394920D01*
X108108015Y-51389720D01*
X108255262Y-51328728D01*
X108381705Y-51231705D01*
X108478728Y-51105262D01*
X108539720Y-50958015D01*
X108560523Y-50800000D01*
X108560523Y-50799996D01*
X108539721Y-50641988D01*
X108478730Y-50494743D01*
X108478729Y-50494741D01*
X108478728Y-50494740D01*
X108478728Y-50494739D01*
X108381705Y-50368295D01*
X108255262Y-50271272D01*
X108255261Y-50271271D01*
X108255259Y-50271270D01*
X108255257Y-50271269D01*
X108108014Y-50210279D01*
X107950003Y-50189477D01*
X107949997Y-50189477D01*
X107791988Y-50210278D01*
X107644743Y-50271269D01*
X107644741Y-50271270D01*
X107518295Y-50368295D01*
X107428910Y-50484783D01*
X107377673Y-50519999D01*
X107315520Y-50518372D01*
X107269289Y-50484783D01*
X107179905Y-50368295D01*
X107053462Y-50271272D01*
X107053461Y-50271271D01*
X107053459Y-50271270D01*
X107053457Y-50271269D01*
X106906214Y-50210279D01*
X106748203Y-50189477D01*
X106748197Y-50189477D01*
X106590188Y-50210278D01*
X106442943Y-50271269D01*
X106442941Y-50271270D01*
X106316495Y-50368295D01*
X106219470Y-50494741D01*
X106219469Y-50494743D01*
X106158478Y-50641988D01*
X106137677Y-50799996D01*
X104775000Y-50799996D01*
X104775000Y-49529996D01*
X155599477Y-49529996D01*
X155599477Y-49530003D01*
X155620279Y-49688014D01*
X155681269Y-49835257D01*
X155681273Y-49835264D01*
X155767159Y-49947192D01*
X155778295Y-49961705D01*
X155778298Y-49961707D01*
X155904735Y-50058726D01*
X155904742Y-50058730D01*
X156051985Y-50119720D01*
X156209997Y-50140523D01*
X156210000Y-50140523D01*
X156210003Y-50140523D01*
X156328511Y-50124920D01*
X156368015Y-50119720D01*
X156515262Y-50058728D01*
X156641705Y-49961705D01*
X156738728Y-49835262D01*
X156799720Y-49688015D01*
X156820523Y-49530000D01*
X156820523Y-49529996D01*
X156799721Y-49371988D01*
X156738730Y-49224743D01*
X156738729Y-49224741D01*
X156738728Y-49224740D01*
X156738728Y-49224739D01*
X156641705Y-49098295D01*
X156515262Y-49001272D01*
X156515261Y-49001271D01*
X156515259Y-49001270D01*
X156515257Y-49001269D01*
X156368014Y-48940279D01*
X156210003Y-48919477D01*
X156209997Y-48919477D01*
X156051988Y-48940278D01*
X155904743Y-49001269D01*
X155904741Y-49001270D01*
X155778295Y-49098295D01*
X155681270Y-49224741D01*
X155681269Y-49224743D01*
X155620278Y-49371988D01*
X155599477Y-49529996D01*
X104775000Y-49529996D01*
X104775000Y-48424999D01*
X105434477Y-48424999D01*
X105434477Y-48425006D01*
X105455279Y-48583017D01*
X105516269Y-48730260D01*
X105516273Y-48730267D01*
X105602159Y-48842195D01*
X105613295Y-48856708D01*
X105613298Y-48856710D01*
X105739735Y-48953729D01*
X105739742Y-48953733D01*
X105886985Y-49014723D01*
X106044997Y-49035526D01*
X106045000Y-49035526D01*
X106045003Y-49035526D01*
X106163511Y-49019923D01*
X106203015Y-49014723D01*
X106350262Y-48953731D01*
X106476705Y-48856708D01*
X106573728Y-48730265D01*
X106634720Y-48583018D01*
X106655523Y-48425003D01*
X106655523Y-48424999D01*
X106634721Y-48266991D01*
X106573730Y-48119746D01*
X106573729Y-48119744D01*
X106573728Y-48119743D01*
X106573728Y-48119742D01*
X106476705Y-47993298D01*
X106350262Y-47896275D01*
X106350261Y-47896274D01*
X106350259Y-47896273D01*
X106350257Y-47896272D01*
X106203014Y-47835282D01*
X106045003Y-47814480D01*
X106044997Y-47814480D01*
X105886988Y-47835281D01*
X105739743Y-47896272D01*
X105739741Y-47896273D01*
X105613295Y-47993298D01*
X105516270Y-48119744D01*
X105516269Y-48119746D01*
X105455278Y-48266991D01*
X105434477Y-48424999D01*
X104775000Y-48424999D01*
X104775000Y-45719996D01*
X108609477Y-45719996D01*
X108609477Y-45720003D01*
X108630279Y-45878014D01*
X108691269Y-46025257D01*
X108691273Y-46025264D01*
X108708239Y-46047374D01*
X108788295Y-46151705D01*
X108788298Y-46151707D01*
X108914735Y-46248726D01*
X108914742Y-46248730D01*
X109061985Y-46309720D01*
X109219997Y-46330523D01*
X109220000Y-46330523D01*
X109220003Y-46330523D01*
X109338511Y-46314920D01*
X109378015Y-46309720D01*
X109525262Y-46248728D01*
X109651705Y-46151705D01*
X109748728Y-46025262D01*
X109809720Y-45878015D01*
X109825080Y-45761345D01*
X109830523Y-45720003D01*
X109830523Y-45719996D01*
X109809721Y-45561988D01*
X109748730Y-45414743D01*
X109748729Y-45414741D01*
X109748728Y-45414740D01*
X109748728Y-45414739D01*
X109651705Y-45288295D01*
X109525262Y-45191272D01*
X109525261Y-45191271D01*
X109525259Y-45191270D01*
X109525257Y-45191269D01*
X109378014Y-45130279D01*
X109220003Y-45109477D01*
X109219997Y-45109477D01*
X109061988Y-45130278D01*
X108914743Y-45191269D01*
X108914741Y-45191270D01*
X108788295Y-45288295D01*
X108691270Y-45414741D01*
X108691269Y-45414743D01*
X108630278Y-45561988D01*
X108609477Y-45719996D01*
X104775000Y-45719996D01*
X104775000Y-42010600D01*
X104794213Y-41951469D01*
X104844513Y-41914924D01*
X104875600Y-41910000D01*
X167539400Y-41910000D01*
X167598531Y-41929213D01*
G37*
%TD.AperFunction*%
%TD*%
M02*
