%TF.GenerationSoftware,KiCad,Pcbnew,8.0.5*%
%TF.CreationDate,2025-04-06T12:02:11+02:00*%
%TF.ProjectId,btmdpcb,62746d64-7063-4622-9e6b-696361645f70,rev?*%
%TF.SameCoordinates,Original*%
%TF.FileFunction,Drillmap*%
%TF.FilePolarity,Positive*%
%FSLAX45Y45*%
G04 Gerber Fmt 4.5, Leading zero omitted, Abs format (unit mm)*
G04 Created by KiCad (PCBNEW 8.0.5) date 2025-04-06 12:02:11*
%MOMM*%
%LPD*%
G01*
G04 APERTURE LIST*
%ADD10C,0.050000*%
%ADD11C,0.100000*%
%ADD12C,0.254000*%
%ADD13C,0.200000*%
G04 APERTURE END LIST*
D10*
X9586498Y-5537176D02*
X9588500Y-8572500D01*
D11*
X16827500Y-4127500D02*
X16827500Y-8572500D01*
X16827500Y-8572500D02*
X9588500Y-8572500D01*
X9588500Y-4127500D02*
X16827500Y-4127500D01*
D10*
X9586498Y-4622774D02*
X9588500Y-4127500D01*
D12*
X10218039Y-4622774D02*
X9586498Y-4622774D01*
X10218039Y-4622774D02*
X10218039Y-5524476D01*
X10218039Y-5524476D02*
X10218039Y-5537176D01*
X10218039Y-5537176D02*
X9586498Y-5537176D01*
D13*
D11*
X10240490Y-4674994D02*
X10300490Y-4734994D01*
X10300490Y-4674994D02*
X10240490Y-4734994D01*
X10240490Y-5425006D02*
X10300490Y-5485006D01*
X10300490Y-5425006D02*
X10240490Y-5485006D01*
D13*
X9834574Y-8888984D02*
X9834574Y-8688984D01*
X9834574Y-8688984D02*
X9882193Y-8688984D01*
X9882193Y-8688984D02*
X9910765Y-8698508D01*
X9910765Y-8698508D02*
X9929812Y-8717555D01*
X9929812Y-8717555D02*
X9939336Y-8736603D01*
X9939336Y-8736603D02*
X9948860Y-8774698D01*
X9948860Y-8774698D02*
X9948860Y-8803270D01*
X9948860Y-8803270D02*
X9939336Y-8841365D01*
X9939336Y-8841365D02*
X9929812Y-8860412D01*
X9929812Y-8860412D02*
X9910765Y-8879460D01*
X9910765Y-8879460D02*
X9882193Y-8888984D01*
X9882193Y-8888984D02*
X9834574Y-8888984D01*
X10034574Y-8888984D02*
X10034574Y-8755650D01*
X10034574Y-8793746D02*
X10044098Y-8774698D01*
X10044098Y-8774698D02*
X10053622Y-8765174D01*
X10053622Y-8765174D02*
X10072670Y-8755650D01*
X10072670Y-8755650D02*
X10091717Y-8755650D01*
X10158384Y-8888984D02*
X10158384Y-8755650D01*
X10158384Y-8688984D02*
X10148860Y-8698508D01*
X10148860Y-8698508D02*
X10158384Y-8708031D01*
X10158384Y-8708031D02*
X10167908Y-8698508D01*
X10167908Y-8698508D02*
X10158384Y-8688984D01*
X10158384Y-8688984D02*
X10158384Y-8708031D01*
X10282193Y-8888984D02*
X10263146Y-8879460D01*
X10263146Y-8879460D02*
X10253622Y-8860412D01*
X10253622Y-8860412D02*
X10253622Y-8688984D01*
X10386955Y-8888984D02*
X10367908Y-8879460D01*
X10367908Y-8879460D02*
X10358384Y-8860412D01*
X10358384Y-8860412D02*
X10358384Y-8688984D01*
X10615527Y-8888984D02*
X10615527Y-8688984D01*
X10615527Y-8688984D02*
X10682193Y-8831841D01*
X10682193Y-8831841D02*
X10748860Y-8688984D01*
X10748860Y-8688984D02*
X10748860Y-8888984D01*
X10929812Y-8888984D02*
X10929812Y-8784222D01*
X10929812Y-8784222D02*
X10920289Y-8765174D01*
X10920289Y-8765174D02*
X10901241Y-8755650D01*
X10901241Y-8755650D02*
X10863146Y-8755650D01*
X10863146Y-8755650D02*
X10844098Y-8765174D01*
X10929812Y-8879460D02*
X10910765Y-8888984D01*
X10910765Y-8888984D02*
X10863146Y-8888984D01*
X10863146Y-8888984D02*
X10844098Y-8879460D01*
X10844098Y-8879460D02*
X10834574Y-8860412D01*
X10834574Y-8860412D02*
X10834574Y-8841365D01*
X10834574Y-8841365D02*
X10844098Y-8822317D01*
X10844098Y-8822317D02*
X10863146Y-8812793D01*
X10863146Y-8812793D02*
X10910765Y-8812793D01*
X10910765Y-8812793D02*
X10929812Y-8803270D01*
X11025051Y-8755650D02*
X11025051Y-8955650D01*
X11025051Y-8765174D02*
X11044098Y-8755650D01*
X11044098Y-8755650D02*
X11082193Y-8755650D01*
X11082193Y-8755650D02*
X11101241Y-8765174D01*
X11101241Y-8765174D02*
X11110765Y-8774698D01*
X11110765Y-8774698D02*
X11120289Y-8793746D01*
X11120289Y-8793746D02*
X11120289Y-8850889D01*
X11120289Y-8850889D02*
X11110765Y-8869936D01*
X11110765Y-8869936D02*
X11101241Y-8879460D01*
X11101241Y-8879460D02*
X11082193Y-8888984D01*
X11082193Y-8888984D02*
X11044098Y-8888984D01*
X11044098Y-8888984D02*
X11025051Y-8879460D01*
X11206003Y-8869936D02*
X11215527Y-8879460D01*
X11215527Y-8879460D02*
X11206003Y-8888984D01*
X11206003Y-8888984D02*
X11196479Y-8879460D01*
X11196479Y-8879460D02*
X11206003Y-8869936D01*
X11206003Y-8869936D02*
X11206003Y-8888984D01*
X11206003Y-8765174D02*
X11215527Y-8774698D01*
X11215527Y-8774698D02*
X11206003Y-8784222D01*
X11206003Y-8784222D02*
X11196479Y-8774698D01*
X11196479Y-8774698D02*
X11206003Y-8765174D01*
X11206003Y-8765174D02*
X11206003Y-8784222D01*
D11*
X9513798Y-9187500D02*
X9573798Y-9247500D01*
X9573798Y-9187500D02*
X9513798Y-9247500D01*
D13*
X9872670Y-9108984D02*
X9891717Y-9108984D01*
X9891717Y-9108984D02*
X9910765Y-9118508D01*
X9910765Y-9118508D02*
X9920289Y-9128031D01*
X9920289Y-9128031D02*
X9929812Y-9147079D01*
X9929812Y-9147079D02*
X9939336Y-9185174D01*
X9939336Y-9185174D02*
X9939336Y-9232793D01*
X9939336Y-9232793D02*
X9929812Y-9270889D01*
X9929812Y-9270889D02*
X9920289Y-9289936D01*
X9920289Y-9289936D02*
X9910765Y-9299460D01*
X9910765Y-9299460D02*
X9891717Y-9308984D01*
X9891717Y-9308984D02*
X9872670Y-9308984D01*
X9872670Y-9308984D02*
X9853622Y-9299460D01*
X9853622Y-9299460D02*
X9844098Y-9289936D01*
X9844098Y-9289936D02*
X9834574Y-9270889D01*
X9834574Y-9270889D02*
X9825051Y-9232793D01*
X9825051Y-9232793D02*
X9825051Y-9185174D01*
X9825051Y-9185174D02*
X9834574Y-9147079D01*
X9834574Y-9147079D02*
X9844098Y-9128031D01*
X9844098Y-9128031D02*
X9853622Y-9118508D01*
X9853622Y-9118508D02*
X9872670Y-9108984D01*
X10025051Y-9289936D02*
X10034574Y-9299460D01*
X10034574Y-9299460D02*
X10025051Y-9308984D01*
X10025051Y-9308984D02*
X10015527Y-9299460D01*
X10015527Y-9299460D02*
X10025051Y-9289936D01*
X10025051Y-9289936D02*
X10025051Y-9308984D01*
X10206003Y-9108984D02*
X10167908Y-9108984D01*
X10167908Y-9108984D02*
X10148860Y-9118508D01*
X10148860Y-9118508D02*
X10139336Y-9128031D01*
X10139336Y-9128031D02*
X10120289Y-9156603D01*
X10120289Y-9156603D02*
X10110765Y-9194698D01*
X10110765Y-9194698D02*
X10110765Y-9270889D01*
X10110765Y-9270889D02*
X10120289Y-9289936D01*
X10120289Y-9289936D02*
X10129812Y-9299460D01*
X10129812Y-9299460D02*
X10148860Y-9308984D01*
X10148860Y-9308984D02*
X10186955Y-9308984D01*
X10186955Y-9308984D02*
X10206003Y-9299460D01*
X10206003Y-9299460D02*
X10215527Y-9289936D01*
X10215527Y-9289936D02*
X10225051Y-9270889D01*
X10225051Y-9270889D02*
X10225051Y-9223270D01*
X10225051Y-9223270D02*
X10215527Y-9204222D01*
X10215527Y-9204222D02*
X10206003Y-9194698D01*
X10206003Y-9194698D02*
X10186955Y-9185174D01*
X10186955Y-9185174D02*
X10148860Y-9185174D01*
X10148860Y-9185174D02*
X10129812Y-9194698D01*
X10129812Y-9194698D02*
X10120289Y-9204222D01*
X10120289Y-9204222D02*
X10110765Y-9223270D01*
X10348860Y-9108984D02*
X10367908Y-9108984D01*
X10367908Y-9108984D02*
X10386955Y-9118508D01*
X10386955Y-9118508D02*
X10396479Y-9128031D01*
X10396479Y-9128031D02*
X10406003Y-9147079D01*
X10406003Y-9147079D02*
X10415527Y-9185174D01*
X10415527Y-9185174D02*
X10415527Y-9232793D01*
X10415527Y-9232793D02*
X10406003Y-9270889D01*
X10406003Y-9270889D02*
X10396479Y-9289936D01*
X10396479Y-9289936D02*
X10386955Y-9299460D01*
X10386955Y-9299460D02*
X10367908Y-9308984D01*
X10367908Y-9308984D02*
X10348860Y-9308984D01*
X10348860Y-9308984D02*
X10329812Y-9299460D01*
X10329812Y-9299460D02*
X10320289Y-9289936D01*
X10320289Y-9289936D02*
X10310765Y-9270889D01*
X10310765Y-9270889D02*
X10301241Y-9232793D01*
X10301241Y-9232793D02*
X10301241Y-9185174D01*
X10301241Y-9185174D02*
X10310765Y-9147079D01*
X10310765Y-9147079D02*
X10320289Y-9128031D01*
X10320289Y-9128031D02*
X10329812Y-9118508D01*
X10329812Y-9118508D02*
X10348860Y-9108984D01*
X10539336Y-9108984D02*
X10558384Y-9108984D01*
X10558384Y-9108984D02*
X10577432Y-9118508D01*
X10577432Y-9118508D02*
X10586955Y-9128031D01*
X10586955Y-9128031D02*
X10596479Y-9147079D01*
X10596479Y-9147079D02*
X10606003Y-9185174D01*
X10606003Y-9185174D02*
X10606003Y-9232793D01*
X10606003Y-9232793D02*
X10596479Y-9270889D01*
X10596479Y-9270889D02*
X10586955Y-9289936D01*
X10586955Y-9289936D02*
X10577432Y-9299460D01*
X10577432Y-9299460D02*
X10558384Y-9308984D01*
X10558384Y-9308984D02*
X10539336Y-9308984D01*
X10539336Y-9308984D02*
X10520289Y-9299460D01*
X10520289Y-9299460D02*
X10510765Y-9289936D01*
X10510765Y-9289936D02*
X10501241Y-9270889D01*
X10501241Y-9270889D02*
X10491717Y-9232793D01*
X10491717Y-9232793D02*
X10491717Y-9185174D01*
X10491717Y-9185174D02*
X10501241Y-9147079D01*
X10501241Y-9147079D02*
X10510765Y-9128031D01*
X10510765Y-9128031D02*
X10520289Y-9118508D01*
X10520289Y-9118508D02*
X10539336Y-9108984D01*
X10691717Y-9308984D02*
X10691717Y-9175650D01*
X10691717Y-9194698D02*
X10701241Y-9185174D01*
X10701241Y-9185174D02*
X10720289Y-9175650D01*
X10720289Y-9175650D02*
X10748860Y-9175650D01*
X10748860Y-9175650D02*
X10767908Y-9185174D01*
X10767908Y-9185174D02*
X10777432Y-9204222D01*
X10777432Y-9204222D02*
X10777432Y-9308984D01*
X10777432Y-9204222D02*
X10786955Y-9185174D01*
X10786955Y-9185174D02*
X10806003Y-9175650D01*
X10806003Y-9175650D02*
X10834574Y-9175650D01*
X10834574Y-9175650D02*
X10853622Y-9185174D01*
X10853622Y-9185174D02*
X10863146Y-9204222D01*
X10863146Y-9204222D02*
X10863146Y-9308984D01*
X10958384Y-9308984D02*
X10958384Y-9175650D01*
X10958384Y-9194698D02*
X10967908Y-9185174D01*
X10967908Y-9185174D02*
X10986955Y-9175650D01*
X10986955Y-9175650D02*
X11015527Y-9175650D01*
X11015527Y-9175650D02*
X11034574Y-9185174D01*
X11034574Y-9185174D02*
X11044098Y-9204222D01*
X11044098Y-9204222D02*
X11044098Y-9308984D01*
X11044098Y-9204222D02*
X11053622Y-9185174D01*
X11053622Y-9185174D02*
X11072670Y-9175650D01*
X11072670Y-9175650D02*
X11101241Y-9175650D01*
X11101241Y-9175650D02*
X11120289Y-9185174D01*
X11120289Y-9185174D02*
X11129813Y-9204222D01*
X11129813Y-9204222D02*
X11129813Y-9308984D01*
X11520289Y-9099460D02*
X11348860Y-9356603D01*
X11777432Y-9108984D02*
X11796479Y-9108984D01*
X11796479Y-9108984D02*
X11815527Y-9118508D01*
X11815527Y-9118508D02*
X11825051Y-9128031D01*
X11825051Y-9128031D02*
X11834574Y-9147079D01*
X11834574Y-9147079D02*
X11844098Y-9185174D01*
X11844098Y-9185174D02*
X11844098Y-9232793D01*
X11844098Y-9232793D02*
X11834574Y-9270889D01*
X11834574Y-9270889D02*
X11825051Y-9289936D01*
X11825051Y-9289936D02*
X11815527Y-9299460D01*
X11815527Y-9299460D02*
X11796479Y-9308984D01*
X11796479Y-9308984D02*
X11777432Y-9308984D01*
X11777432Y-9308984D02*
X11758384Y-9299460D01*
X11758384Y-9299460D02*
X11748860Y-9289936D01*
X11748860Y-9289936D02*
X11739336Y-9270889D01*
X11739336Y-9270889D02*
X11729813Y-9232793D01*
X11729813Y-9232793D02*
X11729813Y-9185174D01*
X11729813Y-9185174D02*
X11739336Y-9147079D01*
X11739336Y-9147079D02*
X11748860Y-9128031D01*
X11748860Y-9128031D02*
X11758384Y-9118508D01*
X11758384Y-9118508D02*
X11777432Y-9108984D01*
X11929813Y-9289936D02*
X11939336Y-9299460D01*
X11939336Y-9299460D02*
X11929813Y-9308984D01*
X11929813Y-9308984D02*
X11920289Y-9299460D01*
X11920289Y-9299460D02*
X11929813Y-9289936D01*
X11929813Y-9289936D02*
X11929813Y-9308984D01*
X12063146Y-9108984D02*
X12082194Y-9108984D01*
X12082194Y-9108984D02*
X12101241Y-9118508D01*
X12101241Y-9118508D02*
X12110765Y-9128031D01*
X12110765Y-9128031D02*
X12120289Y-9147079D01*
X12120289Y-9147079D02*
X12129813Y-9185174D01*
X12129813Y-9185174D02*
X12129813Y-9232793D01*
X12129813Y-9232793D02*
X12120289Y-9270889D01*
X12120289Y-9270889D02*
X12110765Y-9289936D01*
X12110765Y-9289936D02*
X12101241Y-9299460D01*
X12101241Y-9299460D02*
X12082194Y-9308984D01*
X12082194Y-9308984D02*
X12063146Y-9308984D01*
X12063146Y-9308984D02*
X12044098Y-9299460D01*
X12044098Y-9299460D02*
X12034574Y-9289936D01*
X12034574Y-9289936D02*
X12025051Y-9270889D01*
X12025051Y-9270889D02*
X12015527Y-9232793D01*
X12015527Y-9232793D02*
X12015527Y-9185174D01*
X12015527Y-9185174D02*
X12025051Y-9147079D01*
X12025051Y-9147079D02*
X12034574Y-9128031D01*
X12034574Y-9128031D02*
X12044098Y-9118508D01*
X12044098Y-9118508D02*
X12063146Y-9108984D01*
X12206003Y-9128031D02*
X12215527Y-9118508D01*
X12215527Y-9118508D02*
X12234574Y-9108984D01*
X12234574Y-9108984D02*
X12282194Y-9108984D01*
X12282194Y-9108984D02*
X12301241Y-9118508D01*
X12301241Y-9118508D02*
X12310765Y-9128031D01*
X12310765Y-9128031D02*
X12320289Y-9147079D01*
X12320289Y-9147079D02*
X12320289Y-9166127D01*
X12320289Y-9166127D02*
X12310765Y-9194698D01*
X12310765Y-9194698D02*
X12196479Y-9308984D01*
X12196479Y-9308984D02*
X12320289Y-9308984D01*
X12386955Y-9108984D02*
X12510765Y-9108984D01*
X12510765Y-9108984D02*
X12444098Y-9185174D01*
X12444098Y-9185174D02*
X12472670Y-9185174D01*
X12472670Y-9185174D02*
X12491717Y-9194698D01*
X12491717Y-9194698D02*
X12501241Y-9204222D01*
X12501241Y-9204222D02*
X12510765Y-9223270D01*
X12510765Y-9223270D02*
X12510765Y-9270889D01*
X12510765Y-9270889D02*
X12501241Y-9289936D01*
X12501241Y-9289936D02*
X12491717Y-9299460D01*
X12491717Y-9299460D02*
X12472670Y-9308984D01*
X12472670Y-9308984D02*
X12415527Y-9308984D01*
X12415527Y-9308984D02*
X12396479Y-9299460D01*
X12396479Y-9299460D02*
X12386955Y-9289936D01*
X12682194Y-9108984D02*
X12644098Y-9108984D01*
X12644098Y-9108984D02*
X12625051Y-9118508D01*
X12625051Y-9118508D02*
X12615527Y-9128031D01*
X12615527Y-9128031D02*
X12596479Y-9156603D01*
X12596479Y-9156603D02*
X12586955Y-9194698D01*
X12586955Y-9194698D02*
X12586955Y-9270889D01*
X12586955Y-9270889D02*
X12596479Y-9289936D01*
X12596479Y-9289936D02*
X12606003Y-9299460D01*
X12606003Y-9299460D02*
X12625051Y-9308984D01*
X12625051Y-9308984D02*
X12663146Y-9308984D01*
X12663146Y-9308984D02*
X12682194Y-9299460D01*
X12682194Y-9299460D02*
X12691717Y-9289936D01*
X12691717Y-9289936D02*
X12701241Y-9270889D01*
X12701241Y-9270889D02*
X12701241Y-9223270D01*
X12701241Y-9223270D02*
X12691717Y-9204222D01*
X12691717Y-9204222D02*
X12682194Y-9194698D01*
X12682194Y-9194698D02*
X12663146Y-9185174D01*
X12663146Y-9185174D02*
X12625051Y-9185174D01*
X12625051Y-9185174D02*
X12606003Y-9194698D01*
X12606003Y-9194698D02*
X12596479Y-9204222D01*
X12596479Y-9204222D02*
X12586955Y-9223270D01*
X12777432Y-9108984D02*
X12777432Y-9147079D01*
X12853622Y-9108984D02*
X12853622Y-9147079D01*
X13148860Y-9385174D02*
X13139336Y-9375650D01*
X13139336Y-9375650D02*
X13120289Y-9347079D01*
X13120289Y-9347079D02*
X13110765Y-9328031D01*
X13110765Y-9328031D02*
X13101241Y-9299460D01*
X13101241Y-9299460D02*
X13091717Y-9251841D01*
X13091717Y-9251841D02*
X13091717Y-9213746D01*
X13091717Y-9213746D02*
X13101241Y-9166127D01*
X13101241Y-9166127D02*
X13110765Y-9137555D01*
X13110765Y-9137555D02*
X13120289Y-9118508D01*
X13120289Y-9118508D02*
X13139336Y-9089936D01*
X13139336Y-9089936D02*
X13148860Y-9080412D01*
X13215527Y-9128031D02*
X13225051Y-9118508D01*
X13225051Y-9118508D02*
X13244098Y-9108984D01*
X13244098Y-9108984D02*
X13291717Y-9108984D01*
X13291717Y-9108984D02*
X13310765Y-9118508D01*
X13310765Y-9118508D02*
X13320289Y-9128031D01*
X13320289Y-9128031D02*
X13329813Y-9147079D01*
X13329813Y-9147079D02*
X13329813Y-9166127D01*
X13329813Y-9166127D02*
X13320289Y-9194698D01*
X13320289Y-9194698D02*
X13206003Y-9308984D01*
X13206003Y-9308984D02*
X13329813Y-9308984D01*
X13567908Y-9308984D02*
X13567908Y-9108984D01*
X13653622Y-9308984D02*
X13653622Y-9204222D01*
X13653622Y-9204222D02*
X13644098Y-9185174D01*
X13644098Y-9185174D02*
X13625051Y-9175650D01*
X13625051Y-9175650D02*
X13596479Y-9175650D01*
X13596479Y-9175650D02*
X13577432Y-9185174D01*
X13577432Y-9185174D02*
X13567908Y-9194698D01*
X13777432Y-9308984D02*
X13758384Y-9299460D01*
X13758384Y-9299460D02*
X13748860Y-9289936D01*
X13748860Y-9289936D02*
X13739337Y-9270889D01*
X13739337Y-9270889D02*
X13739337Y-9213746D01*
X13739337Y-9213746D02*
X13748860Y-9194698D01*
X13748860Y-9194698D02*
X13758384Y-9185174D01*
X13758384Y-9185174D02*
X13777432Y-9175650D01*
X13777432Y-9175650D02*
X13806003Y-9175650D01*
X13806003Y-9175650D02*
X13825051Y-9185174D01*
X13825051Y-9185174D02*
X13834575Y-9194698D01*
X13834575Y-9194698D02*
X13844098Y-9213746D01*
X13844098Y-9213746D02*
X13844098Y-9270889D01*
X13844098Y-9270889D02*
X13834575Y-9289936D01*
X13834575Y-9289936D02*
X13825051Y-9299460D01*
X13825051Y-9299460D02*
X13806003Y-9308984D01*
X13806003Y-9308984D02*
X13777432Y-9308984D01*
X13958384Y-9308984D02*
X13939337Y-9299460D01*
X13939337Y-9299460D02*
X13929813Y-9280412D01*
X13929813Y-9280412D02*
X13929813Y-9108984D01*
X14110765Y-9299460D02*
X14091718Y-9308984D01*
X14091718Y-9308984D02*
X14053622Y-9308984D01*
X14053622Y-9308984D02*
X14034575Y-9299460D01*
X14034575Y-9299460D02*
X14025051Y-9280412D01*
X14025051Y-9280412D02*
X14025051Y-9204222D01*
X14025051Y-9204222D02*
X14034575Y-9185174D01*
X14034575Y-9185174D02*
X14053622Y-9175650D01*
X14053622Y-9175650D02*
X14091718Y-9175650D01*
X14091718Y-9175650D02*
X14110765Y-9185174D01*
X14110765Y-9185174D02*
X14120289Y-9204222D01*
X14120289Y-9204222D02*
X14120289Y-9223270D01*
X14120289Y-9223270D02*
X14025051Y-9242317D01*
X14196479Y-9299460D02*
X14215527Y-9308984D01*
X14215527Y-9308984D02*
X14253622Y-9308984D01*
X14253622Y-9308984D02*
X14272670Y-9299460D01*
X14272670Y-9299460D02*
X14282194Y-9280412D01*
X14282194Y-9280412D02*
X14282194Y-9270889D01*
X14282194Y-9270889D02*
X14272670Y-9251841D01*
X14272670Y-9251841D02*
X14253622Y-9242317D01*
X14253622Y-9242317D02*
X14225051Y-9242317D01*
X14225051Y-9242317D02*
X14206003Y-9232793D01*
X14206003Y-9232793D02*
X14196479Y-9213746D01*
X14196479Y-9213746D02*
X14196479Y-9204222D01*
X14196479Y-9204222D02*
X14206003Y-9185174D01*
X14206003Y-9185174D02*
X14225051Y-9175650D01*
X14225051Y-9175650D02*
X14253622Y-9175650D01*
X14253622Y-9175650D02*
X14272670Y-9185174D01*
X14348860Y-9385174D02*
X14358384Y-9375650D01*
X14358384Y-9375650D02*
X14377432Y-9347079D01*
X14377432Y-9347079D02*
X14386956Y-9328031D01*
X14386956Y-9328031D02*
X14396479Y-9299460D01*
X14396479Y-9299460D02*
X14406003Y-9251841D01*
X14406003Y-9251841D02*
X14406003Y-9213746D01*
X14406003Y-9213746D02*
X14396479Y-9166127D01*
X14396479Y-9166127D02*
X14386956Y-9137555D01*
X14386956Y-9137555D02*
X14377432Y-9118508D01*
X14377432Y-9118508D02*
X14358384Y-9089936D01*
X14358384Y-9089936D02*
X14348860Y-9080412D01*
X14710765Y-9385174D02*
X14701241Y-9375650D01*
X14701241Y-9375650D02*
X14682194Y-9347079D01*
X14682194Y-9347079D02*
X14672670Y-9328031D01*
X14672670Y-9328031D02*
X14663146Y-9299460D01*
X14663146Y-9299460D02*
X14653622Y-9251841D01*
X14653622Y-9251841D02*
X14653622Y-9213746D01*
X14653622Y-9213746D02*
X14663146Y-9166127D01*
X14663146Y-9166127D02*
X14672670Y-9137555D01*
X14672670Y-9137555D02*
X14682194Y-9118508D01*
X14682194Y-9118508D02*
X14701241Y-9089936D01*
X14701241Y-9089936D02*
X14710765Y-9080412D01*
X14786956Y-9175650D02*
X14786956Y-9308984D01*
X14786956Y-9194698D02*
X14796479Y-9185174D01*
X14796479Y-9185174D02*
X14815527Y-9175650D01*
X14815527Y-9175650D02*
X14844099Y-9175650D01*
X14844099Y-9175650D02*
X14863146Y-9185174D01*
X14863146Y-9185174D02*
X14872670Y-9204222D01*
X14872670Y-9204222D02*
X14872670Y-9308984D01*
X14996479Y-9308984D02*
X14977432Y-9299460D01*
X14977432Y-9299460D02*
X14967908Y-9289936D01*
X14967908Y-9289936D02*
X14958384Y-9270889D01*
X14958384Y-9270889D02*
X14958384Y-9213746D01*
X14958384Y-9213746D02*
X14967908Y-9194698D01*
X14967908Y-9194698D02*
X14977432Y-9185174D01*
X14977432Y-9185174D02*
X14996479Y-9175650D01*
X14996479Y-9175650D02*
X15025051Y-9175650D01*
X15025051Y-9175650D02*
X15044099Y-9185174D01*
X15044099Y-9185174D02*
X15053622Y-9194698D01*
X15053622Y-9194698D02*
X15063146Y-9213746D01*
X15063146Y-9213746D02*
X15063146Y-9270889D01*
X15063146Y-9270889D02*
X15053622Y-9289936D01*
X15053622Y-9289936D02*
X15044099Y-9299460D01*
X15044099Y-9299460D02*
X15025051Y-9308984D01*
X15025051Y-9308984D02*
X14996479Y-9308984D01*
X15120289Y-9175650D02*
X15196479Y-9175650D01*
X15148860Y-9108984D02*
X15148860Y-9280412D01*
X15148860Y-9280412D02*
X15158384Y-9299460D01*
X15158384Y-9299460D02*
X15177432Y-9308984D01*
X15177432Y-9308984D02*
X15196479Y-9308984D01*
X15415527Y-9175650D02*
X15415527Y-9375650D01*
X15415527Y-9185174D02*
X15434575Y-9175650D01*
X15434575Y-9175650D02*
X15472670Y-9175650D01*
X15472670Y-9175650D02*
X15491718Y-9185174D01*
X15491718Y-9185174D02*
X15501241Y-9194698D01*
X15501241Y-9194698D02*
X15510765Y-9213746D01*
X15510765Y-9213746D02*
X15510765Y-9270889D01*
X15510765Y-9270889D02*
X15501241Y-9289936D01*
X15501241Y-9289936D02*
X15491718Y-9299460D01*
X15491718Y-9299460D02*
X15472670Y-9308984D01*
X15472670Y-9308984D02*
X15434575Y-9308984D01*
X15434575Y-9308984D02*
X15415527Y-9299460D01*
X15625051Y-9308984D02*
X15606003Y-9299460D01*
X15606003Y-9299460D02*
X15596480Y-9280412D01*
X15596480Y-9280412D02*
X15596480Y-9108984D01*
X15786956Y-9308984D02*
X15786956Y-9204222D01*
X15786956Y-9204222D02*
X15777432Y-9185174D01*
X15777432Y-9185174D02*
X15758384Y-9175650D01*
X15758384Y-9175650D02*
X15720289Y-9175650D01*
X15720289Y-9175650D02*
X15701241Y-9185174D01*
X15786956Y-9299460D02*
X15767908Y-9308984D01*
X15767908Y-9308984D02*
X15720289Y-9308984D01*
X15720289Y-9308984D02*
X15701241Y-9299460D01*
X15701241Y-9299460D02*
X15691718Y-9280412D01*
X15691718Y-9280412D02*
X15691718Y-9261365D01*
X15691718Y-9261365D02*
X15701241Y-9242317D01*
X15701241Y-9242317D02*
X15720289Y-9232793D01*
X15720289Y-9232793D02*
X15767908Y-9232793D01*
X15767908Y-9232793D02*
X15786956Y-9223270D01*
X15853622Y-9175650D02*
X15929813Y-9175650D01*
X15882194Y-9108984D02*
X15882194Y-9280412D01*
X15882194Y-9280412D02*
X15891718Y-9299460D01*
X15891718Y-9299460D02*
X15910765Y-9308984D01*
X15910765Y-9308984D02*
X15929813Y-9308984D01*
X16072670Y-9299460D02*
X16053622Y-9308984D01*
X16053622Y-9308984D02*
X16015527Y-9308984D01*
X16015527Y-9308984D02*
X15996480Y-9299460D01*
X15996480Y-9299460D02*
X15986956Y-9280412D01*
X15986956Y-9280412D02*
X15986956Y-9204222D01*
X15986956Y-9204222D02*
X15996480Y-9185174D01*
X15996480Y-9185174D02*
X16015527Y-9175650D01*
X16015527Y-9175650D02*
X16053622Y-9175650D01*
X16053622Y-9175650D02*
X16072670Y-9185174D01*
X16072670Y-9185174D02*
X16082194Y-9204222D01*
X16082194Y-9204222D02*
X16082194Y-9223270D01*
X16082194Y-9223270D02*
X15986956Y-9242317D01*
X16253622Y-9308984D02*
X16253622Y-9108984D01*
X16253622Y-9299460D02*
X16234575Y-9308984D01*
X16234575Y-9308984D02*
X16196480Y-9308984D01*
X16196480Y-9308984D02*
X16177432Y-9299460D01*
X16177432Y-9299460D02*
X16167908Y-9289936D01*
X16167908Y-9289936D02*
X16158384Y-9270889D01*
X16158384Y-9270889D02*
X16158384Y-9213746D01*
X16158384Y-9213746D02*
X16167908Y-9194698D01*
X16167908Y-9194698D02*
X16177432Y-9185174D01*
X16177432Y-9185174D02*
X16196480Y-9175650D01*
X16196480Y-9175650D02*
X16234575Y-9175650D01*
X16234575Y-9175650D02*
X16253622Y-9185174D01*
X16329813Y-9385174D02*
X16339337Y-9375650D01*
X16339337Y-9375650D02*
X16358384Y-9347079D01*
X16358384Y-9347079D02*
X16367908Y-9328031D01*
X16367908Y-9328031D02*
X16377432Y-9299460D01*
X16377432Y-9299460D02*
X16386956Y-9251841D01*
X16386956Y-9251841D02*
X16386956Y-9213746D01*
X16386956Y-9213746D02*
X16377432Y-9166127D01*
X16377432Y-9166127D02*
X16367908Y-9137555D01*
X16367908Y-9137555D02*
X16358384Y-9118508D01*
X16358384Y-9118508D02*
X16339337Y-9089936D01*
X16339337Y-9089936D02*
X16329813Y-9080412D01*
M02*
