%TF.GenerationSoftware,KiCad,Pcbnew,8.0.5*%
%TF.CreationDate,2025-04-06T12:02:06+02:00*%
%TF.ProjectId,btmdpcb,62746d64-7063-4622-9e6b-696361645f70,rev?*%
%TF.SameCoordinates,Original*%
%TF.FileFunction,Legend,Top*%
%TF.FilePolarity,Positive*%
%FSLAX46Y46*%
G04 Gerber Fmt 4.6, Leading zero omitted, Abs format (unit mm)*
G04 Created by KiCad (PCBNEW 8.0.5) date 2025-04-06 12:02:06*
%MOMM*%
%LPD*%
G01*
G04 APERTURE LIST*
G04 Aperture macros list*
%AMRoundRect*
0 Rectangle with rounded corners*
0 $1 Rounding radius*
0 $2 $3 $4 $5 $6 $7 $8 $9 X,Y pos of 4 corners*
0 Add a 4 corners polygon primitive as box body*
4,1,4,$2,$3,$4,$5,$6,$7,$8,$9,$2,$3,0*
0 Add four circle primitives for the rounded corners*
1,1,$1+$1,$2,$3*
1,1,$1+$1,$4,$5*
1,1,$1+$1,$6,$7*
1,1,$1+$1,$8,$9*
0 Add four rect primitives between the rounded corners*
20,1,$1+$1,$2,$3,$4,$5,0*
20,1,$1+$1,$4,$5,$6,$7,0*
20,1,$1+$1,$6,$7,$8,$9,0*
20,1,$1+$1,$8,$9,$2,$3,0*%
%AMFreePoly0*
4,1,19,0.550000,-0.750000,0.000000,-0.750000,0.000000,-0.744911,-0.071157,-0.744911,-0.207708,-0.704816,-0.327430,-0.627875,-0.420627,-0.520320,-0.479746,-0.390866,-0.500000,-0.250000,-0.500000,0.250000,-0.479746,0.390866,-0.420627,0.520320,-0.327430,0.627875,-0.207708,0.704816,-0.071157,0.744911,0.000000,0.744911,0.000000,0.750000,0.550000,0.750000,0.550000,-0.750000,0.550000,-0.750000,
$1*%
%AMFreePoly1*
4,1,19,0.000000,0.744911,0.071157,0.744911,0.207708,0.704816,0.327430,0.627875,0.420627,0.520320,0.479746,0.390866,0.500000,0.250000,0.500000,-0.250000,0.479746,-0.390866,0.420627,-0.520320,0.327430,-0.627875,0.207708,-0.704816,0.071157,-0.744911,0.000000,-0.744911,0.000000,-0.750000,-0.550000,-0.750000,-0.550000,0.750000,0.000000,0.750000,0.000000,0.744911,0.000000,0.744911,
$1*%
%AMFreePoly2*
4,1,19,0.500000,-0.750000,0.000000,-0.750000,0.000000,-0.744911,-0.071157,-0.744911,-0.207708,-0.704816,-0.327430,-0.627875,-0.420627,-0.520320,-0.479746,-0.390866,-0.500000,-0.250000,-0.500000,0.250000,-0.479746,0.390866,-0.420627,0.520320,-0.327430,0.627875,-0.207708,0.704816,-0.071157,0.744911,0.000000,0.744911,0.000000,0.750000,0.500000,0.750000,0.500000,-0.750000,0.500000,-0.750000,
$1*%
%AMFreePoly3*
4,1,19,0.000000,0.744911,0.071157,0.744911,0.207708,0.704816,0.327430,0.627875,0.420627,0.520320,0.479746,0.390866,0.500000,0.250000,0.500000,-0.250000,0.479746,-0.390866,0.420627,-0.520320,0.327430,-0.627875,0.207708,-0.704816,0.071157,-0.744911,0.000000,-0.744911,0.000000,-0.750000,-0.500000,-0.750000,-0.500000,0.750000,0.000000,0.750000,0.000000,0.744911,0.000000,0.744911,
$1*%
G04 Aperture macros list end*
%ADD10C,0.100000*%
%ADD11C,0.150000*%
%ADD12C,0.150368*%
%ADD13C,0.254000*%
%ADD14C,0.059995*%
%ADD15C,0.120000*%
%ADD16C,0.600000*%
%ADD17R,1.400000X0.550013*%
%ADD18R,1.400000X0.300000*%
%ADD19O,1.900000X1.100000*%
%ADD20FreePoly0,90.000000*%
%ADD21R,1.500000X1.000000*%
%ADD22FreePoly1,90.000000*%
%ADD23RoundRect,0.250000X0.475000X-0.337500X0.475000X0.337500X-0.475000X0.337500X-0.475000X-0.337500X0*%
%ADD24RoundRect,0.312500X-0.962500X0.312500X-0.962500X-0.312500X0.962500X-0.312500X0.962500X0.312500X0*%
%ADD25RoundRect,0.250000X0.337500X0.475000X-0.337500X0.475000X-0.337500X-0.475000X0.337500X-0.475000X0*%
%ADD26RoundRect,0.250000X-0.475000X0.337500X-0.475000X-0.337500X0.475000X-0.337500X0.475000X0.337500X0*%
%ADD27C,1.000000*%
%ADD28RoundRect,0.250000X-0.350000X-0.450000X0.350000X-0.450000X0.350000X0.450000X-0.350000X0.450000X0*%
%ADD29RoundRect,0.250000X0.450000X-0.350000X0.450000X0.350000X-0.450000X0.350000X-0.450000X-0.350000X0*%
%ADD30RoundRect,0.250000X-0.450000X0.350000X-0.450000X-0.350000X0.450000X-0.350000X0.450000X0.350000X0*%
%ADD31RoundRect,0.250000X-0.337500X-0.475000X0.337500X-0.475000X0.337500X0.475000X-0.337500X0.475000X0*%
%ADD32FreePoly2,180.000000*%
%ADD33FreePoly3,180.000000*%
%ADD34RoundRect,0.100000X0.650000X0.100000X-0.650000X0.100000X-0.650000X-0.100000X0.650000X-0.100000X0*%
%ADD35RoundRect,0.250000X0.350000X0.450000X-0.350000X0.450000X-0.350000X-0.450000X0.350000X-0.450000X0*%
%ADD36RoundRect,0.100000X0.680000X0.100000X-0.680000X0.100000X-0.680000X-0.100000X0.680000X-0.100000X0*%
%ADD37RoundRect,0.162500X0.337500X0.162500X-0.337500X0.162500X-0.337500X-0.162500X0.337500X-0.162500X0*%
%ADD38RoundRect,0.162500X-0.162500X0.337500X-0.162500X-0.337500X0.162500X-0.337500X0.162500X0.337500X0*%
%ADD39RoundRect,0.162500X-0.337500X-0.162500X0.337500X-0.162500X0.337500X0.162500X-0.337500X0.162500X0*%
%ADD40RoundRect,0.162500X0.162500X-0.337500X0.162500X0.337500X-0.162500X0.337500X-0.162500X-0.337500X0*%
%ADD41R,0.550000X0.450000*%
%ADD42R,0.500000X0.450000*%
%ADD43R,1.800000X1.500000*%
%ADD44RoundRect,0.162500X0.617500X0.162500X-0.617500X0.162500X-0.617500X-0.162500X0.617500X-0.162500X0*%
%ADD45RoundRect,0.200000X0.200000X-0.750000X0.200000X0.750000X-0.200000X0.750000X-0.200000X-0.750000X0*%
%ADD46RoundRect,0.162500X-0.617500X-0.162500X0.617500X-0.162500X0.617500X0.162500X-0.617500X0.162500X0*%
%ADD47FreePoly2,0.000000*%
%ADD48FreePoly3,0.000000*%
%ADD49RoundRect,0.155000X0.212500X0.155000X-0.212500X0.155000X-0.212500X-0.155000X0.212500X-0.155000X0*%
%ADD50RoundRect,0.250000X0.325000X0.450000X-0.325000X0.450000X-0.325000X-0.450000X0.325000X-0.450000X0*%
%ADD51FreePoly2,270.000000*%
%ADD52FreePoly3,270.000000*%
%ADD53RoundRect,0.312500X0.962500X-0.312500X0.962500X0.312500X-0.962500X0.312500X-0.962500X-0.312500X0*%
%ADD54RoundRect,0.250000X1.500000X0.650000X-1.500000X0.650000X-1.500000X-0.650000X1.500000X-0.650000X0*%
%ADD55FreePoly0,0.000000*%
%ADD56R,1.000000X1.500000*%
%ADD57FreePoly1,0.000000*%
%ADD58RoundRect,0.250000X0.450000X-0.325000X0.450000X0.325000X-0.450000X0.325000X-0.450000X-0.325000X0*%
%ADD59R,1.000000X1.000000*%
%ADD60R,2.200000X1.050000*%
%ADD61FreePoly0,180.000000*%
%ADD62FreePoly1,180.000000*%
G04 APERTURE END LIST*
D10*
X125730000Y-49530000D02*
X127000000Y-50800000D01*
D11*
X101600000Y-84455000D02*
X97155000Y-84455000D01*
X105410000Y-49530000D02*
X105410000Y-45720000D01*
X139065000Y-73025000D02*
X138430000Y-73025000D01*
X121920000Y-59690000D02*
X123190000Y-59690000D01*
X107950000Y-52070000D02*
X105410000Y-49530000D01*
X138430000Y-62230000D02*
X140142999Y-60585001D01*
X130810000Y-66040000D02*
X132013025Y-64675975D01*
X123190000Y-58420000D02*
X121920000Y-58420000D01*
X128905000Y-48895000D02*
X128905000Y-44450000D01*
X128270000Y-49530000D02*
X128905000Y-48895000D01*
X123190000Y-59690000D02*
X124460000Y-60960000D01*
X122555000Y-62230000D02*
X126365000Y-66040000D01*
X134191000Y-57018000D02*
X124460000Y-57150000D01*
D10*
X121920000Y-49530000D02*
X125730000Y-49530000D01*
D11*
X138430000Y-73025000D02*
X138430000Y-62230000D01*
X112395000Y-84455000D02*
X111125000Y-84455000D01*
X124460000Y-58420000D02*
X126365000Y-58420000D01*
X122555000Y-60960000D02*
X125730000Y-64135000D01*
X118110000Y-45655000D02*
X118110000Y-44450000D01*
X121920000Y-60960000D02*
X122555000Y-60960000D01*
X124460000Y-57150000D02*
X123190000Y-58420000D01*
X123190000Y-59690000D02*
X124460000Y-58420000D01*
X107315000Y-84455000D02*
X106680000Y-84455000D01*
X125730000Y-64135000D02*
X127635000Y-64135000D01*
X112395000Y-81915000D02*
X112395000Y-84455000D01*
X97155000Y-74295000D02*
X97155000Y-71120000D01*
X148590000Y-52705000D02*
X148590000Y-71755000D01*
X111125000Y-79375000D02*
X113665000Y-79375000D01*
X113665000Y-81915000D01*
X111125000Y-81915000D01*
X111125000Y-79375000D01*
X121920000Y-62230000D02*
X122555000Y-62230000D01*
X126365000Y-66040000D02*
X130810000Y-66040000D01*
X112395000Y-84455000D02*
X113665000Y-84455000D01*
X107950000Y-49530000D02*
X105410000Y-46990000D01*
X148590000Y-71755000D02*
X146050000Y-74295000D01*
X97155000Y-80645000D02*
X97155000Y-79375000D01*
X144860000Y-52705000D02*
X147320000Y-50165000D01*
X99314048Y-72813152D02*
X100075953Y-73098866D01*
X100075953Y-73098866D02*
X99314048Y-73384580D01*
X155858695Y-43116121D02*
X156001552Y-43163740D01*
X156001552Y-43163740D02*
X156049171Y-43211359D01*
X156049171Y-43211359D02*
X156096790Y-43306597D01*
X156096790Y-43306597D02*
X156096790Y-43449454D01*
X156096790Y-43449454D02*
X156049171Y-43544692D01*
X156049171Y-43544692D02*
X156001552Y-43592312D01*
X156001552Y-43592312D02*
X155906314Y-43639931D01*
X155906314Y-43639931D02*
X155525362Y-43639931D01*
X155525362Y-43639931D02*
X155525362Y-42639931D01*
X155525362Y-42639931D02*
X155858695Y-42639931D01*
X155858695Y-42639931D02*
X155953933Y-42687550D01*
X155953933Y-42687550D02*
X156001552Y-42735169D01*
X156001552Y-42735169D02*
X156049171Y-42830407D01*
X156049171Y-42830407D02*
X156049171Y-42925645D01*
X156049171Y-42925645D02*
X156001552Y-43020883D01*
X156001552Y-43020883D02*
X155953933Y-43068502D01*
X155953933Y-43068502D02*
X155858695Y-43116121D01*
X155858695Y-43116121D02*
X155525362Y-43116121D01*
X156382505Y-42639931D02*
X156953933Y-42639931D01*
X156668219Y-43639931D02*
X156668219Y-42639931D01*
X157287267Y-43639931D02*
X157287267Y-42639931D01*
X157287267Y-42639931D02*
X157620600Y-43354216D01*
X157620600Y-43354216D02*
X157953933Y-42639931D01*
X157953933Y-42639931D02*
X157953933Y-43639931D01*
X158430124Y-43639931D02*
X158430124Y-42639931D01*
X158430124Y-42639931D02*
X158668219Y-42639931D01*
X158668219Y-42639931D02*
X158811076Y-42687550D01*
X158811076Y-42687550D02*
X158906314Y-42782788D01*
X158906314Y-42782788D02*
X158953933Y-42878026D01*
X158953933Y-42878026D02*
X159001552Y-43068502D01*
X159001552Y-43068502D02*
X159001552Y-43211359D01*
X159001552Y-43211359D02*
X158953933Y-43401835D01*
X158953933Y-43401835D02*
X158906314Y-43497073D01*
X158906314Y-43497073D02*
X158811076Y-43592312D01*
X158811076Y-43592312D02*
X158668219Y-43639931D01*
X158668219Y-43639931D02*
X158430124Y-43639931D01*
X160096791Y-42973264D02*
X160334886Y-43639931D01*
X160334886Y-43639931D02*
X160572981Y-42973264D01*
X161144410Y-42639931D02*
X161239648Y-42639931D01*
X161239648Y-42639931D02*
X161334886Y-42687550D01*
X161334886Y-42687550D02*
X161382505Y-42735169D01*
X161382505Y-42735169D02*
X161430124Y-42830407D01*
X161430124Y-42830407D02*
X161477743Y-43020883D01*
X161477743Y-43020883D02*
X161477743Y-43258978D01*
X161477743Y-43258978D02*
X161430124Y-43449454D01*
X161430124Y-43449454D02*
X161382505Y-43544692D01*
X161382505Y-43544692D02*
X161334886Y-43592312D01*
X161334886Y-43592312D02*
X161239648Y-43639931D01*
X161239648Y-43639931D02*
X161144410Y-43639931D01*
X161144410Y-43639931D02*
X161049172Y-43592312D01*
X161049172Y-43592312D02*
X161001553Y-43544692D01*
X161001553Y-43544692D02*
X160953934Y-43449454D01*
X160953934Y-43449454D02*
X160906315Y-43258978D01*
X160906315Y-43258978D02*
X160906315Y-43020883D01*
X160906315Y-43020883D02*
X160953934Y-42830407D01*
X160953934Y-42830407D02*
X161001553Y-42735169D01*
X161001553Y-42735169D02*
X161049172Y-42687550D01*
X161049172Y-42687550D02*
X161144410Y-42639931D01*
X161906315Y-43544692D02*
X161953934Y-43592312D01*
X161953934Y-43592312D02*
X161906315Y-43639931D01*
X161906315Y-43639931D02*
X161858696Y-43592312D01*
X161858696Y-43592312D02*
X161906315Y-43544692D01*
X161906315Y-43544692D02*
X161906315Y-43639931D01*
X162811076Y-42973264D02*
X162811076Y-43639931D01*
X162572981Y-42592312D02*
X162334886Y-43306597D01*
X162334886Y-43306597D02*
X162953933Y-43306597D01*
X164477743Y-43592312D02*
X164382505Y-43639931D01*
X164382505Y-43639931D02*
X164192029Y-43639931D01*
X164192029Y-43639931D02*
X164096791Y-43592312D01*
X164096791Y-43592312D02*
X164049172Y-43497073D01*
X164049172Y-43497073D02*
X164049172Y-43116121D01*
X164049172Y-43116121D02*
X164096791Y-43020883D01*
X164096791Y-43020883D02*
X164192029Y-42973264D01*
X164192029Y-42973264D02*
X164382505Y-42973264D01*
X164382505Y-42973264D02*
X164477743Y-43020883D01*
X164477743Y-43020883D02*
X164525362Y-43116121D01*
X164525362Y-43116121D02*
X164525362Y-43211359D01*
X164525362Y-43211359D02*
X164049172Y-43306597D01*
X164858696Y-42973264D02*
X165096791Y-43639931D01*
X165096791Y-43639931D02*
X165334886Y-42973264D01*
X166144410Y-43639931D02*
X166144410Y-43116121D01*
X166144410Y-43116121D02*
X166096791Y-43020883D01*
X166096791Y-43020883D02*
X166001553Y-42973264D01*
X166001553Y-42973264D02*
X165811077Y-42973264D01*
X165811077Y-42973264D02*
X165715839Y-43020883D01*
X166144410Y-43592312D02*
X166049172Y-43639931D01*
X166049172Y-43639931D02*
X165811077Y-43639931D01*
X165811077Y-43639931D02*
X165715839Y-43592312D01*
X165715839Y-43592312D02*
X165668220Y-43497073D01*
X165668220Y-43497073D02*
X165668220Y-43401835D01*
X165668220Y-43401835D02*
X165715839Y-43306597D01*
X165715839Y-43306597D02*
X165811077Y-43258978D01*
X165811077Y-43258978D02*
X166049172Y-43258978D01*
X166049172Y-43258978D02*
X166144410Y-43211359D01*
X166763458Y-43639931D02*
X166668220Y-43592312D01*
X166668220Y-43592312D02*
X166620601Y-43497073D01*
X166620601Y-43497073D02*
X166620601Y-42639931D01*
X160144411Y-44345113D02*
X160192030Y-44297494D01*
X160192030Y-44297494D02*
X160287268Y-44249875D01*
X160287268Y-44249875D02*
X160525363Y-44249875D01*
X160525363Y-44249875D02*
X160620601Y-44297494D01*
X160620601Y-44297494D02*
X160668220Y-44345113D01*
X160668220Y-44345113D02*
X160715839Y-44440351D01*
X160715839Y-44440351D02*
X160715839Y-44535589D01*
X160715839Y-44535589D02*
X160668220Y-44678446D01*
X160668220Y-44678446D02*
X160096792Y-45249875D01*
X160096792Y-45249875D02*
X160715839Y-45249875D01*
X161334887Y-44249875D02*
X161430125Y-44249875D01*
X161430125Y-44249875D02*
X161525363Y-44297494D01*
X161525363Y-44297494D02*
X161572982Y-44345113D01*
X161572982Y-44345113D02*
X161620601Y-44440351D01*
X161620601Y-44440351D02*
X161668220Y-44630827D01*
X161668220Y-44630827D02*
X161668220Y-44868922D01*
X161668220Y-44868922D02*
X161620601Y-45059398D01*
X161620601Y-45059398D02*
X161572982Y-45154636D01*
X161572982Y-45154636D02*
X161525363Y-45202256D01*
X161525363Y-45202256D02*
X161430125Y-45249875D01*
X161430125Y-45249875D02*
X161334887Y-45249875D01*
X161334887Y-45249875D02*
X161239649Y-45202256D01*
X161239649Y-45202256D02*
X161192030Y-45154636D01*
X161192030Y-45154636D02*
X161144411Y-45059398D01*
X161144411Y-45059398D02*
X161096792Y-44868922D01*
X161096792Y-44868922D02*
X161096792Y-44630827D01*
X161096792Y-44630827D02*
X161144411Y-44440351D01*
X161144411Y-44440351D02*
X161192030Y-44345113D01*
X161192030Y-44345113D02*
X161239649Y-44297494D01*
X161239649Y-44297494D02*
X161334887Y-44249875D01*
X162049173Y-44345113D02*
X162096792Y-44297494D01*
X162096792Y-44297494D02*
X162192030Y-44249875D01*
X162192030Y-44249875D02*
X162430125Y-44249875D01*
X162430125Y-44249875D02*
X162525363Y-44297494D01*
X162525363Y-44297494D02*
X162572982Y-44345113D01*
X162572982Y-44345113D02*
X162620601Y-44440351D01*
X162620601Y-44440351D02*
X162620601Y-44535589D01*
X162620601Y-44535589D02*
X162572982Y-44678446D01*
X162572982Y-44678446D02*
X162001554Y-45249875D01*
X162001554Y-45249875D02*
X162620601Y-45249875D01*
X163525363Y-44249875D02*
X163049173Y-44249875D01*
X163049173Y-44249875D02*
X163001554Y-44726065D01*
X163001554Y-44726065D02*
X163049173Y-44678446D01*
X163049173Y-44678446D02*
X163144411Y-44630827D01*
X163144411Y-44630827D02*
X163382506Y-44630827D01*
X163382506Y-44630827D02*
X163477744Y-44678446D01*
X163477744Y-44678446D02*
X163525363Y-44726065D01*
X163525363Y-44726065D02*
X163572982Y-44821303D01*
X163572982Y-44821303D02*
X163572982Y-45059398D01*
X163572982Y-45059398D02*
X163525363Y-45154636D01*
X163525363Y-45154636D02*
X163477744Y-45202256D01*
X163477744Y-45202256D02*
X163382506Y-45249875D01*
X163382506Y-45249875D02*
X163144411Y-45249875D01*
X163144411Y-45249875D02*
X163049173Y-45202256D01*
X163049173Y-45202256D02*
X163001554Y-45154636D01*
X164001554Y-44868922D02*
X164763459Y-44868922D01*
X165430125Y-44249875D02*
X165525363Y-44249875D01*
X165525363Y-44249875D02*
X165620601Y-44297494D01*
X165620601Y-44297494D02*
X165668220Y-44345113D01*
X165668220Y-44345113D02*
X165715839Y-44440351D01*
X165715839Y-44440351D02*
X165763458Y-44630827D01*
X165763458Y-44630827D02*
X165763458Y-44868922D01*
X165763458Y-44868922D02*
X165715839Y-45059398D01*
X165715839Y-45059398D02*
X165668220Y-45154636D01*
X165668220Y-45154636D02*
X165620601Y-45202256D01*
X165620601Y-45202256D02*
X165525363Y-45249875D01*
X165525363Y-45249875D02*
X165430125Y-45249875D01*
X165430125Y-45249875D02*
X165334887Y-45202256D01*
X165334887Y-45202256D02*
X165287268Y-45154636D01*
X165287268Y-45154636D02*
X165239649Y-45059398D01*
X165239649Y-45059398D02*
X165192030Y-44868922D01*
X165192030Y-44868922D02*
X165192030Y-44630827D01*
X165192030Y-44630827D02*
X165239649Y-44440351D01*
X165239649Y-44440351D02*
X165287268Y-44345113D01*
X165287268Y-44345113D02*
X165334887Y-44297494D01*
X165334887Y-44297494D02*
X165430125Y-44249875D01*
X166620601Y-44583208D02*
X166620601Y-45249875D01*
X166382506Y-44202256D02*
X166144411Y-44916541D01*
X166144411Y-44916541D02*
X166763458Y-44916541D01*
X160811078Y-46859819D02*
X160811078Y-45859819D01*
X160811078Y-45859819D02*
X161049173Y-45859819D01*
X161049173Y-45859819D02*
X161192030Y-45907438D01*
X161192030Y-45907438D02*
X161287268Y-46002676D01*
X161287268Y-46002676D02*
X161334887Y-46097914D01*
X161334887Y-46097914D02*
X161382506Y-46288390D01*
X161382506Y-46288390D02*
X161382506Y-46431247D01*
X161382506Y-46431247D02*
X161334887Y-46621723D01*
X161334887Y-46621723D02*
X161287268Y-46716961D01*
X161287268Y-46716961D02*
X161192030Y-46812200D01*
X161192030Y-46812200D02*
X161049173Y-46859819D01*
X161049173Y-46859819D02*
X160811078Y-46859819D01*
X161811078Y-46764580D02*
X161858697Y-46812200D01*
X161858697Y-46812200D02*
X161811078Y-46859819D01*
X161811078Y-46859819D02*
X161763459Y-46812200D01*
X161763459Y-46812200D02*
X161811078Y-46764580D01*
X161811078Y-46764580D02*
X161811078Y-46859819D01*
X163620601Y-46859819D02*
X163287268Y-46383628D01*
X163049173Y-46859819D02*
X163049173Y-45859819D01*
X163049173Y-45859819D02*
X163430125Y-45859819D01*
X163430125Y-45859819D02*
X163525363Y-45907438D01*
X163525363Y-45907438D02*
X163572982Y-45955057D01*
X163572982Y-45955057D02*
X163620601Y-46050295D01*
X163620601Y-46050295D02*
X163620601Y-46193152D01*
X163620601Y-46193152D02*
X163572982Y-46288390D01*
X163572982Y-46288390D02*
X163525363Y-46336009D01*
X163525363Y-46336009D02*
X163430125Y-46383628D01*
X163430125Y-46383628D02*
X163049173Y-46383628D01*
X164192030Y-46859819D02*
X164096792Y-46812200D01*
X164096792Y-46812200D02*
X164049173Y-46764580D01*
X164049173Y-46764580D02*
X164001554Y-46669342D01*
X164001554Y-46669342D02*
X164001554Y-46383628D01*
X164001554Y-46383628D02*
X164049173Y-46288390D01*
X164049173Y-46288390D02*
X164096792Y-46240771D01*
X164096792Y-46240771D02*
X164192030Y-46193152D01*
X164192030Y-46193152D02*
X164334887Y-46193152D01*
X164334887Y-46193152D02*
X164430125Y-46240771D01*
X164430125Y-46240771D02*
X164477744Y-46288390D01*
X164477744Y-46288390D02*
X164525363Y-46383628D01*
X164525363Y-46383628D02*
X164525363Y-46669342D01*
X164525363Y-46669342D02*
X164477744Y-46764580D01*
X164477744Y-46764580D02*
X164430125Y-46812200D01*
X164430125Y-46812200D02*
X164334887Y-46859819D01*
X164334887Y-46859819D02*
X164192030Y-46859819D01*
X164953935Y-46193152D02*
X164953935Y-47050295D01*
X164953935Y-47050295D02*
X164906316Y-47145533D01*
X164906316Y-47145533D02*
X164811078Y-47193152D01*
X164811078Y-47193152D02*
X164763459Y-47193152D01*
X164953935Y-45859819D02*
X164906316Y-45907438D01*
X164906316Y-45907438D02*
X164953935Y-45955057D01*
X164953935Y-45955057D02*
X165001554Y-45907438D01*
X165001554Y-45907438D02*
X164953935Y-45859819D01*
X164953935Y-45859819D02*
X164953935Y-45955057D01*
X165858696Y-46859819D02*
X165858696Y-46336009D01*
X165858696Y-46336009D02*
X165811077Y-46240771D01*
X165811077Y-46240771D02*
X165715839Y-46193152D01*
X165715839Y-46193152D02*
X165525363Y-46193152D01*
X165525363Y-46193152D02*
X165430125Y-46240771D01*
X165858696Y-46812200D02*
X165763458Y-46859819D01*
X165763458Y-46859819D02*
X165525363Y-46859819D01*
X165525363Y-46859819D02*
X165430125Y-46812200D01*
X165430125Y-46812200D02*
X165382506Y-46716961D01*
X165382506Y-46716961D02*
X165382506Y-46621723D01*
X165382506Y-46621723D02*
X165430125Y-46526485D01*
X165430125Y-46526485D02*
X165525363Y-46478866D01*
X165525363Y-46478866D02*
X165763458Y-46478866D01*
X165763458Y-46478866D02*
X165858696Y-46431247D01*
X166287268Y-46812200D02*
X166382506Y-46859819D01*
X166382506Y-46859819D02*
X166572982Y-46859819D01*
X166572982Y-46859819D02*
X166668220Y-46812200D01*
X166668220Y-46812200D02*
X166715839Y-46716961D01*
X166715839Y-46716961D02*
X166715839Y-46669342D01*
X166715839Y-46669342D02*
X166668220Y-46574104D01*
X166668220Y-46574104D02*
X166572982Y-46526485D01*
X166572982Y-46526485D02*
X166430125Y-46526485D01*
X166430125Y-46526485D02*
X166334887Y-46478866D01*
X166334887Y-46478866D02*
X166287268Y-46383628D01*
X166287268Y-46383628D02*
X166287268Y-46336009D01*
X166287268Y-46336009D02*
X166334887Y-46240771D01*
X166334887Y-46240771D02*
X166430125Y-46193152D01*
X166430125Y-46193152D02*
X166572982Y-46193152D01*
X166572982Y-46193152D02*
X166668220Y-46240771D01*
X103293152Y-81660951D02*
X103578866Y-80899047D01*
X103578866Y-80899047D02*
X103864580Y-81660951D01*
X111561667Y-81099819D02*
X111561667Y-80099819D01*
X111561667Y-80099819D02*
X111895000Y-80814104D01*
X111895000Y-80814104D02*
X112228333Y-80099819D01*
X112228333Y-80099819D02*
X112228333Y-81099819D01*
X112704524Y-81099819D02*
X112704524Y-80099819D01*
X112704524Y-80099819D02*
X112942619Y-80099819D01*
X112942619Y-80099819D02*
X113085476Y-80147438D01*
X113085476Y-80147438D02*
X113180714Y-80242676D01*
X113180714Y-80242676D02*
X113228333Y-80337914D01*
X113228333Y-80337914D02*
X113275952Y-80528390D01*
X113275952Y-80528390D02*
X113275952Y-80671247D01*
X113275952Y-80671247D02*
X113228333Y-80861723D01*
X113228333Y-80861723D02*
X113180714Y-80956961D01*
X113180714Y-80956961D02*
X113085476Y-81052200D01*
X113085476Y-81052200D02*
X112942619Y-81099819D01*
X112942619Y-81099819D02*
X112704524Y-81099819D01*
X106637847Y-80899048D02*
X106352133Y-81660953D01*
X106352133Y-81660953D02*
X106066419Y-80899048D01*
D12*
X127531904Y-52050989D02*
X127674761Y-52098608D01*
X127674761Y-52098608D02*
X127722380Y-52146227D01*
X127722380Y-52146227D02*
X127769999Y-52241465D01*
X127769999Y-52241465D02*
X127769999Y-52384322D01*
X127769999Y-52384322D02*
X127722380Y-52479560D01*
X127722380Y-52479560D02*
X127674761Y-52527180D01*
X127674761Y-52527180D02*
X127579523Y-52574799D01*
X127579523Y-52574799D02*
X127198571Y-52574799D01*
X127198571Y-52574799D02*
X127198571Y-51574799D01*
X127198571Y-51574799D02*
X127531904Y-51574799D01*
X127531904Y-51574799D02*
X127627142Y-51622418D01*
X127627142Y-51622418D02*
X127674761Y-51670037D01*
X127674761Y-51670037D02*
X127722380Y-51765275D01*
X127722380Y-51765275D02*
X127722380Y-51860513D01*
X127722380Y-51860513D02*
X127674761Y-51955751D01*
X127674761Y-51955751D02*
X127627142Y-52003370D01*
X127627142Y-52003370D02*
X127531904Y-52050989D01*
X127531904Y-52050989D02*
X127198571Y-52050989D01*
X128150952Y-52289084D02*
X128627142Y-52289084D01*
X128055714Y-52574799D02*
X128389047Y-51574799D01*
X128389047Y-51574799D02*
X128722380Y-52574799D01*
X128912857Y-51574799D02*
X129484285Y-51574799D01*
X129198571Y-52574799D02*
X129198571Y-51574799D01*
D11*
X109008152Y-81660951D02*
X109293866Y-80899047D01*
X109293866Y-80899047D02*
X109579580Y-81660951D01*
X100202951Y-71331847D02*
X99441047Y-71046133D01*
X99441047Y-71046133D02*
X100202951Y-70760419D01*
X141640112Y-77401009D02*
X141782969Y-77448628D01*
X141782969Y-77448628D02*
X141830588Y-77496247D01*
X141830588Y-77496247D02*
X141878207Y-77591485D01*
X141878207Y-77591485D02*
X141878207Y-77734342D01*
X141878207Y-77734342D02*
X141830588Y-77829580D01*
X141830588Y-77829580D02*
X141782969Y-77877200D01*
X141782969Y-77877200D02*
X141687731Y-77924819D01*
X141687731Y-77924819D02*
X141306779Y-77924819D01*
X141306779Y-77924819D02*
X141306779Y-76924819D01*
X141306779Y-76924819D02*
X141640112Y-76924819D01*
X141640112Y-76924819D02*
X141735350Y-76972438D01*
X141735350Y-76972438D02*
X141782969Y-77020057D01*
X141782969Y-77020057D02*
X141830588Y-77115295D01*
X141830588Y-77115295D02*
X141830588Y-77210533D01*
X141830588Y-77210533D02*
X141782969Y-77305771D01*
X141782969Y-77305771D02*
X141735350Y-77353390D01*
X141735350Y-77353390D02*
X141640112Y-77401009D01*
X141640112Y-77401009D02*
X141306779Y-77401009D01*
X142163922Y-76924819D02*
X142735350Y-76924819D01*
X142449636Y-77924819D02*
X142449636Y-76924819D01*
X142830589Y-78020057D02*
X143592493Y-78020057D01*
X144306779Y-77924819D02*
X143830589Y-77924819D01*
X143830589Y-77924819D02*
X143830589Y-76924819D01*
X144640113Y-77401009D02*
X144973446Y-77401009D01*
X145116303Y-77924819D02*
X144640113Y-77924819D01*
X144640113Y-77924819D02*
X144640113Y-76924819D01*
X144640113Y-76924819D02*
X145116303Y-76924819D01*
X145544875Y-77924819D02*
X145544875Y-76924819D01*
X145544875Y-76924819D02*
X145782970Y-76924819D01*
X145782970Y-76924819D02*
X145925827Y-76972438D01*
X145925827Y-76972438D02*
X146021065Y-77067676D01*
X146021065Y-77067676D02*
X146068684Y-77162914D01*
X146068684Y-77162914D02*
X146116303Y-77353390D01*
X146116303Y-77353390D02*
X146116303Y-77496247D01*
X146116303Y-77496247D02*
X146068684Y-77686723D01*
X146068684Y-77686723D02*
X146021065Y-77781961D01*
X146021065Y-77781961D02*
X145925827Y-77877200D01*
X145925827Y-77877200D02*
X145782970Y-77924819D01*
X145782970Y-77924819D02*
X145544875Y-77924819D01*
X146497256Y-77020057D02*
X146544875Y-76972438D01*
X146544875Y-76972438D02*
X146640113Y-76924819D01*
X146640113Y-76924819D02*
X146878208Y-76924819D01*
X146878208Y-76924819D02*
X146973446Y-76972438D01*
X146973446Y-76972438D02*
X147021065Y-77020057D01*
X147021065Y-77020057D02*
X147068684Y-77115295D01*
X147068684Y-77115295D02*
X147068684Y-77210533D01*
X147068684Y-77210533D02*
X147021065Y-77353390D01*
X147021065Y-77353390D02*
X146449637Y-77924819D01*
X146449637Y-77924819D02*
X147068684Y-77924819D01*
X141640112Y-82481009D02*
X141782969Y-82528628D01*
X141782969Y-82528628D02*
X141830588Y-82576247D01*
X141830588Y-82576247D02*
X141878207Y-82671485D01*
X141878207Y-82671485D02*
X141878207Y-82814342D01*
X141878207Y-82814342D02*
X141830588Y-82909580D01*
X141830588Y-82909580D02*
X141782969Y-82957200D01*
X141782969Y-82957200D02*
X141687731Y-83004819D01*
X141687731Y-83004819D02*
X141306779Y-83004819D01*
X141306779Y-83004819D02*
X141306779Y-82004819D01*
X141306779Y-82004819D02*
X141640112Y-82004819D01*
X141640112Y-82004819D02*
X141735350Y-82052438D01*
X141735350Y-82052438D02*
X141782969Y-82100057D01*
X141782969Y-82100057D02*
X141830588Y-82195295D01*
X141830588Y-82195295D02*
X141830588Y-82290533D01*
X141830588Y-82290533D02*
X141782969Y-82385771D01*
X141782969Y-82385771D02*
X141735350Y-82433390D01*
X141735350Y-82433390D02*
X141640112Y-82481009D01*
X141640112Y-82481009D02*
X141306779Y-82481009D01*
X142163922Y-82004819D02*
X142735350Y-82004819D01*
X142449636Y-83004819D02*
X142449636Y-82004819D01*
X142830589Y-83100057D02*
X143592493Y-83100057D01*
X144306779Y-83004819D02*
X143830589Y-83004819D01*
X143830589Y-83004819D02*
X143830589Y-82004819D01*
X144640113Y-82623866D02*
X145402018Y-82623866D01*
X156000057Y-47737375D02*
X156134744Y-47670031D01*
X156134744Y-47670031D02*
X156202088Y-47670031D01*
X156202088Y-47670031D02*
X156303103Y-47703703D01*
X156303103Y-47703703D02*
X156404118Y-47804718D01*
X156404118Y-47804718D02*
X156437790Y-47905733D01*
X156437790Y-47905733D02*
X156437790Y-47973077D01*
X156437790Y-47973077D02*
X156404118Y-48074092D01*
X156404118Y-48074092D02*
X156134744Y-48343466D01*
X156134744Y-48343466D02*
X155427637Y-47636359D01*
X155427637Y-47636359D02*
X155663339Y-47400657D01*
X155663339Y-47400657D02*
X155764355Y-47366985D01*
X155764355Y-47366985D02*
X155831698Y-47366985D01*
X155831698Y-47366985D02*
X155932714Y-47400657D01*
X155932714Y-47400657D02*
X156000057Y-47468001D01*
X156000057Y-47468001D02*
X156033729Y-47569016D01*
X156033729Y-47569016D02*
X156033729Y-47636359D01*
X156033729Y-47636359D02*
X156000057Y-47737375D01*
X156000057Y-47737375D02*
X155764355Y-47973077D01*
X156033729Y-47030268D02*
X156437790Y-46626207D01*
X156942866Y-47535344D02*
X156235759Y-46828237D01*
X157279584Y-47333314D02*
X157818332Y-46794566D01*
X157784660Y-45952772D02*
X157919347Y-45885428D01*
X157919347Y-45885428D02*
X157986691Y-45885428D01*
X157986691Y-45885428D02*
X158087706Y-45919100D01*
X158087706Y-45919100D02*
X158188721Y-46020115D01*
X158188721Y-46020115D02*
X158222393Y-46121130D01*
X158222393Y-46121130D02*
X158222393Y-46188474D01*
X158222393Y-46188474D02*
X158188721Y-46289489D01*
X158188721Y-46289489D02*
X157919347Y-46558863D01*
X157919347Y-46558863D02*
X157212240Y-45851756D01*
X157212240Y-45851756D02*
X157447943Y-45616054D01*
X157447943Y-45616054D02*
X157548958Y-45582382D01*
X157548958Y-45582382D02*
X157616301Y-45582382D01*
X157616301Y-45582382D02*
X157717317Y-45616054D01*
X157717317Y-45616054D02*
X157784660Y-45683398D01*
X157784660Y-45683398D02*
X157818332Y-45784413D01*
X157818332Y-45784413D02*
X157818332Y-45851756D01*
X157818332Y-45851756D02*
X157784660Y-45952772D01*
X157784660Y-45952772D02*
X157548958Y-46188474D01*
X157818332Y-45245665D02*
X158222393Y-44841604D01*
X158727469Y-45750741D02*
X158020362Y-45043634D01*
X159165202Y-45313008D02*
X158458095Y-44605901D01*
X158458095Y-44605901D02*
X159569263Y-44908947D01*
X159569263Y-44908947D02*
X158862156Y-44201840D01*
X117535601Y-60144819D02*
X116964173Y-60144819D01*
X117249887Y-60144819D02*
X117249887Y-59144819D01*
X117249887Y-59144819D02*
X117154649Y-59287676D01*
X117154649Y-59287676D02*
X117059411Y-59382914D01*
X117059411Y-59382914D02*
X116964173Y-59430533D01*
X117821316Y-59144819D02*
X118154649Y-60144819D01*
X118154649Y-60144819D02*
X118487982Y-59144819D01*
X119297506Y-59144819D02*
X118821316Y-59144819D01*
X118821316Y-59144819D02*
X118773697Y-59621009D01*
X118773697Y-59621009D02*
X118821316Y-59573390D01*
X118821316Y-59573390D02*
X118916554Y-59525771D01*
X118916554Y-59525771D02*
X119154649Y-59525771D01*
X119154649Y-59525771D02*
X119249887Y-59573390D01*
X119249887Y-59573390D02*
X119297506Y-59621009D01*
X119297506Y-59621009D02*
X119345125Y-59716247D01*
X119345125Y-59716247D02*
X119345125Y-59954342D01*
X119345125Y-59954342D02*
X119297506Y-60049580D01*
X119297506Y-60049580D02*
X119249887Y-60097200D01*
X119249887Y-60097200D02*
X119154649Y-60144819D01*
X119154649Y-60144819D02*
X118916554Y-60144819D01*
X118916554Y-60144819D02*
X118821316Y-60097200D01*
X118821316Y-60097200D02*
X118773697Y-60049580D01*
X119535602Y-60240057D02*
X120297506Y-60240057D01*
X120535602Y-60144819D02*
X120535602Y-59144819D01*
X121011792Y-60144819D02*
X121011792Y-59144819D01*
X121011792Y-59144819D02*
X121583220Y-60144819D01*
X121583220Y-60144819D02*
X121583220Y-59144819D01*
X141640112Y-78671009D02*
X141782969Y-78718628D01*
X141782969Y-78718628D02*
X141830588Y-78766247D01*
X141830588Y-78766247D02*
X141878207Y-78861485D01*
X141878207Y-78861485D02*
X141878207Y-79004342D01*
X141878207Y-79004342D02*
X141830588Y-79099580D01*
X141830588Y-79099580D02*
X141782969Y-79147200D01*
X141782969Y-79147200D02*
X141687731Y-79194819D01*
X141687731Y-79194819D02*
X141306779Y-79194819D01*
X141306779Y-79194819D02*
X141306779Y-78194819D01*
X141306779Y-78194819D02*
X141640112Y-78194819D01*
X141640112Y-78194819D02*
X141735350Y-78242438D01*
X141735350Y-78242438D02*
X141782969Y-78290057D01*
X141782969Y-78290057D02*
X141830588Y-78385295D01*
X141830588Y-78385295D02*
X141830588Y-78480533D01*
X141830588Y-78480533D02*
X141782969Y-78575771D01*
X141782969Y-78575771D02*
X141735350Y-78623390D01*
X141735350Y-78623390D02*
X141640112Y-78671009D01*
X141640112Y-78671009D02*
X141306779Y-78671009D01*
X142163922Y-78194819D02*
X142735350Y-78194819D01*
X142449636Y-79194819D02*
X142449636Y-78194819D01*
X142830589Y-79290057D02*
X143592493Y-79290057D01*
X143830589Y-78194819D02*
X143830589Y-79004342D01*
X143830589Y-79004342D02*
X143878208Y-79099580D01*
X143878208Y-79099580D02*
X143925827Y-79147200D01*
X143925827Y-79147200D02*
X144021065Y-79194819D01*
X144021065Y-79194819D02*
X144211541Y-79194819D01*
X144211541Y-79194819D02*
X144306779Y-79147200D01*
X144306779Y-79147200D02*
X144354398Y-79099580D01*
X144354398Y-79099580D02*
X144402017Y-79004342D01*
X144402017Y-79004342D02*
X144402017Y-78194819D01*
X144830589Y-79147200D02*
X144973446Y-79194819D01*
X144973446Y-79194819D02*
X145211541Y-79194819D01*
X145211541Y-79194819D02*
X145306779Y-79147200D01*
X145306779Y-79147200D02*
X145354398Y-79099580D01*
X145354398Y-79099580D02*
X145402017Y-79004342D01*
X145402017Y-79004342D02*
X145402017Y-78909104D01*
X145402017Y-78909104D02*
X145354398Y-78813866D01*
X145354398Y-78813866D02*
X145306779Y-78766247D01*
X145306779Y-78766247D02*
X145211541Y-78718628D01*
X145211541Y-78718628D02*
X145021065Y-78671009D01*
X145021065Y-78671009D02*
X144925827Y-78623390D01*
X144925827Y-78623390D02*
X144878208Y-78575771D01*
X144878208Y-78575771D02*
X144830589Y-78480533D01*
X144830589Y-78480533D02*
X144830589Y-78385295D01*
X144830589Y-78385295D02*
X144878208Y-78290057D01*
X144878208Y-78290057D02*
X144925827Y-78242438D01*
X144925827Y-78242438D02*
X145021065Y-78194819D01*
X145021065Y-78194819D02*
X145259160Y-78194819D01*
X145259160Y-78194819D02*
X145402017Y-78242438D01*
X146163922Y-78671009D02*
X146306779Y-78718628D01*
X146306779Y-78718628D02*
X146354398Y-78766247D01*
X146354398Y-78766247D02*
X146402017Y-78861485D01*
X146402017Y-78861485D02*
X146402017Y-79004342D01*
X146402017Y-79004342D02*
X146354398Y-79099580D01*
X146354398Y-79099580D02*
X146306779Y-79147200D01*
X146306779Y-79147200D02*
X146211541Y-79194819D01*
X146211541Y-79194819D02*
X145830589Y-79194819D01*
X145830589Y-79194819D02*
X145830589Y-78194819D01*
X145830589Y-78194819D02*
X146163922Y-78194819D01*
X146163922Y-78194819D02*
X146259160Y-78242438D01*
X146259160Y-78242438D02*
X146306779Y-78290057D01*
X146306779Y-78290057D02*
X146354398Y-78385295D01*
X146354398Y-78385295D02*
X146354398Y-78480533D01*
X146354398Y-78480533D02*
X146306779Y-78575771D01*
X146306779Y-78575771D02*
X146259160Y-78623390D01*
X146259160Y-78623390D02*
X146163922Y-78671009D01*
X146163922Y-78671009D02*
X145830589Y-78671009D01*
X146592494Y-79290057D02*
X147354398Y-79290057D01*
X147592494Y-79194819D02*
X147592494Y-78194819D01*
X148068684Y-79194819D02*
X148068684Y-78194819D01*
X148068684Y-78194819D02*
X148640112Y-79194819D01*
X148640112Y-79194819D02*
X148640112Y-78194819D01*
X141640112Y-74861009D02*
X141782969Y-74908628D01*
X141782969Y-74908628D02*
X141830588Y-74956247D01*
X141830588Y-74956247D02*
X141878207Y-75051485D01*
X141878207Y-75051485D02*
X141878207Y-75194342D01*
X141878207Y-75194342D02*
X141830588Y-75289580D01*
X141830588Y-75289580D02*
X141782969Y-75337200D01*
X141782969Y-75337200D02*
X141687731Y-75384819D01*
X141687731Y-75384819D02*
X141306779Y-75384819D01*
X141306779Y-75384819D02*
X141306779Y-74384819D01*
X141306779Y-74384819D02*
X141640112Y-74384819D01*
X141640112Y-74384819D02*
X141735350Y-74432438D01*
X141735350Y-74432438D02*
X141782969Y-74480057D01*
X141782969Y-74480057D02*
X141830588Y-74575295D01*
X141830588Y-74575295D02*
X141830588Y-74670533D01*
X141830588Y-74670533D02*
X141782969Y-74765771D01*
X141782969Y-74765771D02*
X141735350Y-74813390D01*
X141735350Y-74813390D02*
X141640112Y-74861009D01*
X141640112Y-74861009D02*
X141306779Y-74861009D01*
X142163922Y-74384819D02*
X142735350Y-74384819D01*
X142449636Y-75384819D02*
X142449636Y-74384819D01*
X142830589Y-75480057D02*
X143592493Y-75480057D01*
X144402017Y-75289580D02*
X144354398Y-75337200D01*
X144354398Y-75337200D02*
X144211541Y-75384819D01*
X144211541Y-75384819D02*
X144116303Y-75384819D01*
X144116303Y-75384819D02*
X143973446Y-75337200D01*
X143973446Y-75337200D02*
X143878208Y-75241961D01*
X143878208Y-75241961D02*
X143830589Y-75146723D01*
X143830589Y-75146723D02*
X143782970Y-74956247D01*
X143782970Y-74956247D02*
X143782970Y-74813390D01*
X143782970Y-74813390D02*
X143830589Y-74622914D01*
X143830589Y-74622914D02*
X143878208Y-74527676D01*
X143878208Y-74527676D02*
X143973446Y-74432438D01*
X143973446Y-74432438D02*
X144116303Y-74384819D01*
X144116303Y-74384819D02*
X144211541Y-74384819D01*
X144211541Y-74384819D02*
X144354398Y-74432438D01*
X144354398Y-74432438D02*
X144402017Y-74480057D01*
X144830589Y-74861009D02*
X145163922Y-74861009D01*
X145306779Y-75384819D02*
X144830589Y-75384819D01*
X144830589Y-75384819D02*
X144830589Y-74384819D01*
X144830589Y-74384819D02*
X145306779Y-74384819D01*
X97139524Y-61684819D02*
X97472857Y-62684819D01*
X97472857Y-62684819D02*
X97806190Y-61684819D01*
X98472857Y-62161009D02*
X98615714Y-62208628D01*
X98615714Y-62208628D02*
X98663333Y-62256247D01*
X98663333Y-62256247D02*
X98710952Y-62351485D01*
X98710952Y-62351485D02*
X98710952Y-62494342D01*
X98710952Y-62494342D02*
X98663333Y-62589580D01*
X98663333Y-62589580D02*
X98615714Y-62637200D01*
X98615714Y-62637200D02*
X98520476Y-62684819D01*
X98520476Y-62684819D02*
X98139524Y-62684819D01*
X98139524Y-62684819D02*
X98139524Y-61684819D01*
X98139524Y-61684819D02*
X98472857Y-61684819D01*
X98472857Y-61684819D02*
X98568095Y-61732438D01*
X98568095Y-61732438D02*
X98615714Y-61780057D01*
X98615714Y-61780057D02*
X98663333Y-61875295D01*
X98663333Y-61875295D02*
X98663333Y-61970533D01*
X98663333Y-61970533D02*
X98615714Y-62065771D01*
X98615714Y-62065771D02*
X98568095Y-62113390D01*
X98568095Y-62113390D02*
X98472857Y-62161009D01*
X98472857Y-62161009D02*
X98139524Y-62161009D01*
X99139524Y-61684819D02*
X99139524Y-62494342D01*
X99139524Y-62494342D02*
X99187143Y-62589580D01*
X99187143Y-62589580D02*
X99234762Y-62637200D01*
X99234762Y-62637200D02*
X99330000Y-62684819D01*
X99330000Y-62684819D02*
X99520476Y-62684819D01*
X99520476Y-62684819D02*
X99615714Y-62637200D01*
X99615714Y-62637200D02*
X99663333Y-62589580D01*
X99663333Y-62589580D02*
X99710952Y-62494342D01*
X99710952Y-62494342D02*
X99710952Y-61684819D01*
X100139524Y-62637200D02*
X100282381Y-62684819D01*
X100282381Y-62684819D02*
X100520476Y-62684819D01*
X100520476Y-62684819D02*
X100615714Y-62637200D01*
X100615714Y-62637200D02*
X100663333Y-62589580D01*
X100663333Y-62589580D02*
X100710952Y-62494342D01*
X100710952Y-62494342D02*
X100710952Y-62399104D01*
X100710952Y-62399104D02*
X100663333Y-62303866D01*
X100663333Y-62303866D02*
X100615714Y-62256247D01*
X100615714Y-62256247D02*
X100520476Y-62208628D01*
X100520476Y-62208628D02*
X100330000Y-62161009D01*
X100330000Y-62161009D02*
X100234762Y-62113390D01*
X100234762Y-62113390D02*
X100187143Y-62065771D01*
X100187143Y-62065771D02*
X100139524Y-61970533D01*
X100139524Y-61970533D02*
X100139524Y-61875295D01*
X100139524Y-61875295D02*
X100187143Y-61780057D01*
X100187143Y-61780057D02*
X100234762Y-61732438D01*
X100234762Y-61732438D02*
X100330000Y-61684819D01*
X100330000Y-61684819D02*
X100568095Y-61684819D01*
X100568095Y-61684819D02*
X100710952Y-61732438D01*
X100901429Y-62780057D02*
X101663333Y-62780057D01*
X101901429Y-62161009D02*
X102234762Y-62161009D01*
X102377619Y-62684819D02*
X101901429Y-62684819D01*
X101901429Y-62684819D02*
X101901429Y-61684819D01*
X101901429Y-61684819D02*
X102377619Y-61684819D01*
X102806191Y-62684819D02*
X102806191Y-61684819D01*
X102806191Y-61684819D02*
X103377619Y-62684819D01*
X103377619Y-62684819D02*
X103377619Y-61684819D01*
X97609819Y-69199047D02*
X97609819Y-69770475D01*
X97609819Y-69484761D02*
X96609819Y-69484761D01*
X96609819Y-69484761D02*
X96752676Y-69579999D01*
X96752676Y-69579999D02*
X96847914Y-69675237D01*
X96847914Y-69675237D02*
X96895533Y-69770475D01*
X96609819Y-68913332D02*
X97609819Y-68579999D01*
X97609819Y-68579999D02*
X96609819Y-68246666D01*
X96609819Y-67437142D02*
X96609819Y-67913332D01*
X96609819Y-67913332D02*
X97086009Y-67960951D01*
X97086009Y-67960951D02*
X97038390Y-67913332D01*
X97038390Y-67913332D02*
X96990771Y-67818094D01*
X96990771Y-67818094D02*
X96990771Y-67579999D01*
X96990771Y-67579999D02*
X97038390Y-67484761D01*
X97038390Y-67484761D02*
X97086009Y-67437142D01*
X97086009Y-67437142D02*
X97181247Y-67389523D01*
X97181247Y-67389523D02*
X97419342Y-67389523D01*
X97419342Y-67389523D02*
X97514580Y-67437142D01*
X97514580Y-67437142D02*
X97562200Y-67484761D01*
X97562200Y-67484761D02*
X97609819Y-67579999D01*
X97609819Y-67579999D02*
X97609819Y-67818094D01*
X97609819Y-67818094D02*
X97562200Y-67913332D01*
X97562200Y-67913332D02*
X97514580Y-67960951D01*
X114609523Y-84782819D02*
X114276190Y-84306628D01*
X114038095Y-84782819D02*
X114038095Y-83782819D01*
X114038095Y-83782819D02*
X114419047Y-83782819D01*
X114419047Y-83782819D02*
X114514285Y-83830438D01*
X114514285Y-83830438D02*
X114561904Y-83878057D01*
X114561904Y-83878057D02*
X114609523Y-83973295D01*
X114609523Y-83973295D02*
X114609523Y-84116152D01*
X114609523Y-84116152D02*
X114561904Y-84211390D01*
X114561904Y-84211390D02*
X114514285Y-84259009D01*
X114514285Y-84259009D02*
X114419047Y-84306628D01*
X114419047Y-84306628D02*
X114038095Y-84306628D01*
X115713095Y-84497104D02*
X116189285Y-84497104D01*
X115617857Y-84782819D02*
X115951190Y-83782819D01*
X115951190Y-83782819D02*
X116284523Y-84782819D01*
X117141666Y-83830438D02*
X117046428Y-83782819D01*
X117046428Y-83782819D02*
X116903571Y-83782819D01*
X116903571Y-83782819D02*
X116760714Y-83830438D01*
X116760714Y-83830438D02*
X116665476Y-83925676D01*
X116665476Y-83925676D02*
X116617857Y-84020914D01*
X116617857Y-84020914D02*
X116570238Y-84211390D01*
X116570238Y-84211390D02*
X116570238Y-84354247D01*
X116570238Y-84354247D02*
X116617857Y-84544723D01*
X116617857Y-84544723D02*
X116665476Y-84639961D01*
X116665476Y-84639961D02*
X116760714Y-84735200D01*
X116760714Y-84735200D02*
X116903571Y-84782819D01*
X116903571Y-84782819D02*
X116998809Y-84782819D01*
X116998809Y-84782819D02*
X117141666Y-84735200D01*
X117141666Y-84735200D02*
X117189285Y-84687580D01*
X117189285Y-84687580D02*
X117189285Y-84354247D01*
X117189285Y-84354247D02*
X116998809Y-84354247D01*
X117617857Y-84782819D02*
X117617857Y-83782819D01*
X117617857Y-83782819D02*
X118189285Y-84782819D01*
X118189285Y-84782819D02*
X118189285Y-83782819D01*
X118665476Y-84782819D02*
X118665476Y-83782819D01*
X118665476Y-83782819D02*
X118903571Y-83782819D01*
X118903571Y-83782819D02*
X119046428Y-83830438D01*
X119046428Y-83830438D02*
X119141666Y-83925676D01*
X119141666Y-83925676D02*
X119189285Y-84020914D01*
X119189285Y-84020914D02*
X119236904Y-84211390D01*
X119236904Y-84211390D02*
X119236904Y-84354247D01*
X119236904Y-84354247D02*
X119189285Y-84544723D01*
X119189285Y-84544723D02*
X119141666Y-84639961D01*
X119141666Y-84639961D02*
X119046428Y-84735200D01*
X119046428Y-84735200D02*
X118903571Y-84782819D01*
X118903571Y-84782819D02*
X118665476Y-84782819D01*
X142399048Y-42634819D02*
X143018095Y-42634819D01*
X143018095Y-42634819D02*
X142684762Y-43015771D01*
X142684762Y-43015771D02*
X142827619Y-43015771D01*
X142827619Y-43015771D02*
X142922857Y-43063390D01*
X142922857Y-43063390D02*
X142970476Y-43111009D01*
X142970476Y-43111009D02*
X143018095Y-43206247D01*
X143018095Y-43206247D02*
X143018095Y-43444342D01*
X143018095Y-43444342D02*
X142970476Y-43539580D01*
X142970476Y-43539580D02*
X142922857Y-43587200D01*
X142922857Y-43587200D02*
X142827619Y-43634819D01*
X142827619Y-43634819D02*
X142541905Y-43634819D01*
X142541905Y-43634819D02*
X142446667Y-43587200D01*
X142446667Y-43587200D02*
X142399048Y-43539580D01*
X143303810Y-42634819D02*
X143637143Y-43634819D01*
X143637143Y-43634819D02*
X143970476Y-42634819D01*
X144208572Y-42634819D02*
X144827619Y-42634819D01*
X144827619Y-42634819D02*
X144494286Y-43015771D01*
X144494286Y-43015771D02*
X144637143Y-43015771D01*
X144637143Y-43015771D02*
X144732381Y-43063390D01*
X144732381Y-43063390D02*
X144780000Y-43111009D01*
X144780000Y-43111009D02*
X144827619Y-43206247D01*
X144827619Y-43206247D02*
X144827619Y-43444342D01*
X144827619Y-43444342D02*
X144780000Y-43539580D01*
X144780000Y-43539580D02*
X144732381Y-43587200D01*
X144732381Y-43587200D02*
X144637143Y-43634819D01*
X144637143Y-43634819D02*
X144351429Y-43634819D01*
X144351429Y-43634819D02*
X144256191Y-43587200D01*
X144256191Y-43587200D02*
X144208572Y-43539580D01*
X145018096Y-43730057D02*
X145780000Y-43730057D01*
X146018096Y-43634819D02*
X146018096Y-42634819D01*
X146494286Y-43634819D02*
X146494286Y-42634819D01*
X146494286Y-42634819D02*
X147065714Y-43634819D01*
X147065714Y-43634819D02*
X147065714Y-42634819D01*
X120959523Y-84782819D02*
X120483333Y-84782819D01*
X120483333Y-84782819D02*
X120483333Y-83782819D01*
X102425714Y-84909819D02*
X102425714Y-83909819D01*
X102425714Y-84386009D02*
X102997142Y-84386009D01*
X102997142Y-84909819D02*
X102997142Y-83909819D01*
X103663809Y-83909819D02*
X103854285Y-83909819D01*
X103854285Y-83909819D02*
X103949523Y-83957438D01*
X103949523Y-83957438D02*
X104044761Y-84052676D01*
X104044761Y-84052676D02*
X104092380Y-84243152D01*
X104092380Y-84243152D02*
X104092380Y-84576485D01*
X104092380Y-84576485D02*
X104044761Y-84766961D01*
X104044761Y-84766961D02*
X103949523Y-84862200D01*
X103949523Y-84862200D02*
X103854285Y-84909819D01*
X103854285Y-84909819D02*
X103663809Y-84909819D01*
X103663809Y-84909819D02*
X103568571Y-84862200D01*
X103568571Y-84862200D02*
X103473333Y-84766961D01*
X103473333Y-84766961D02*
X103425714Y-84576485D01*
X103425714Y-84576485D02*
X103425714Y-84243152D01*
X103425714Y-84243152D02*
X103473333Y-84052676D01*
X103473333Y-84052676D02*
X103568571Y-83957438D01*
X103568571Y-83957438D02*
X103663809Y-83909819D01*
X104997142Y-84909819D02*
X104520952Y-84909819D01*
X104520952Y-84909819D02*
X104520952Y-83909819D01*
X105330476Y-84909819D02*
X105330476Y-83909819D01*
X105330476Y-83909819D02*
X105568571Y-83909819D01*
X105568571Y-83909819D02*
X105711428Y-83957438D01*
X105711428Y-83957438D02*
X105806666Y-84052676D01*
X105806666Y-84052676D02*
X105854285Y-84147914D01*
X105854285Y-84147914D02*
X105901904Y-84338390D01*
X105901904Y-84338390D02*
X105901904Y-84481247D01*
X105901904Y-84481247D02*
X105854285Y-84671723D01*
X105854285Y-84671723D02*
X105806666Y-84766961D01*
X105806666Y-84766961D02*
X105711428Y-84862200D01*
X105711428Y-84862200D02*
X105568571Y-84909819D01*
X105568571Y-84909819D02*
X105330476Y-84909819D01*
X108577142Y-84909819D02*
X108243809Y-84433628D01*
X108005714Y-84909819D02*
X108005714Y-83909819D01*
X108005714Y-83909819D02*
X108386666Y-83909819D01*
X108386666Y-83909819D02*
X108481904Y-83957438D01*
X108481904Y-83957438D02*
X108529523Y-84005057D01*
X108529523Y-84005057D02*
X108577142Y-84100295D01*
X108577142Y-84100295D02*
X108577142Y-84243152D01*
X108577142Y-84243152D02*
X108529523Y-84338390D01*
X108529523Y-84338390D02*
X108481904Y-84386009D01*
X108481904Y-84386009D02*
X108386666Y-84433628D01*
X108386666Y-84433628D02*
X108005714Y-84433628D01*
X109005714Y-84386009D02*
X109339047Y-84386009D01*
X109481904Y-84909819D02*
X109005714Y-84909819D01*
X109005714Y-84909819D02*
X109005714Y-83909819D01*
X109005714Y-83909819D02*
X109481904Y-83909819D01*
X110481904Y-84814580D02*
X110434285Y-84862200D01*
X110434285Y-84862200D02*
X110291428Y-84909819D01*
X110291428Y-84909819D02*
X110196190Y-84909819D01*
X110196190Y-84909819D02*
X110053333Y-84862200D01*
X110053333Y-84862200D02*
X109958095Y-84766961D01*
X109958095Y-84766961D02*
X109910476Y-84671723D01*
X109910476Y-84671723D02*
X109862857Y-84481247D01*
X109862857Y-84481247D02*
X109862857Y-84338390D01*
X109862857Y-84338390D02*
X109910476Y-84147914D01*
X109910476Y-84147914D02*
X109958095Y-84052676D01*
X109958095Y-84052676D02*
X110053333Y-83957438D01*
X110053333Y-83957438D02*
X110196190Y-83909819D01*
X110196190Y-83909819D02*
X110291428Y-83909819D01*
X110291428Y-83909819D02*
X110434285Y-83957438D01*
X110434285Y-83957438D02*
X110481904Y-84005057D01*
X123198333Y-42634819D02*
X123531666Y-43634819D01*
X123531666Y-43634819D02*
X123864999Y-42634819D01*
X124150714Y-43587200D02*
X124293571Y-43634819D01*
X124293571Y-43634819D02*
X124531666Y-43634819D01*
X124531666Y-43634819D02*
X124626904Y-43587200D01*
X124626904Y-43587200D02*
X124674523Y-43539580D01*
X124674523Y-43539580D02*
X124722142Y-43444342D01*
X124722142Y-43444342D02*
X124722142Y-43349104D01*
X124722142Y-43349104D02*
X124674523Y-43253866D01*
X124674523Y-43253866D02*
X124626904Y-43206247D01*
X124626904Y-43206247D02*
X124531666Y-43158628D01*
X124531666Y-43158628D02*
X124341190Y-43111009D01*
X124341190Y-43111009D02*
X124245952Y-43063390D01*
X124245952Y-43063390D02*
X124198333Y-43015771D01*
X124198333Y-43015771D02*
X124150714Y-42920533D01*
X124150714Y-42920533D02*
X124150714Y-42825295D01*
X124150714Y-42825295D02*
X124198333Y-42730057D01*
X124198333Y-42730057D02*
X124245952Y-42682438D01*
X124245952Y-42682438D02*
X124341190Y-42634819D01*
X124341190Y-42634819D02*
X124579285Y-42634819D01*
X124579285Y-42634819D02*
X124722142Y-42682438D01*
X125150714Y-42634819D02*
X125150714Y-43444342D01*
X125150714Y-43444342D02*
X125198333Y-43539580D01*
X125198333Y-43539580D02*
X125245952Y-43587200D01*
X125245952Y-43587200D02*
X125341190Y-43634819D01*
X125341190Y-43634819D02*
X125531666Y-43634819D01*
X125531666Y-43634819D02*
X125626904Y-43587200D01*
X125626904Y-43587200D02*
X125674523Y-43539580D01*
X125674523Y-43539580D02*
X125722142Y-43444342D01*
X125722142Y-43444342D02*
X125722142Y-42634819D01*
X126198333Y-43634819D02*
X126198333Y-42634819D01*
X126198333Y-42634819D02*
X126579285Y-42634819D01*
X126579285Y-42634819D02*
X126674523Y-42682438D01*
X126674523Y-42682438D02*
X126722142Y-42730057D01*
X126722142Y-42730057D02*
X126769761Y-42825295D01*
X126769761Y-42825295D02*
X126769761Y-42968152D01*
X126769761Y-42968152D02*
X126722142Y-43063390D01*
X126722142Y-43063390D02*
X126674523Y-43111009D01*
X126674523Y-43111009D02*
X126579285Y-43158628D01*
X126579285Y-43158628D02*
X126198333Y-43158628D01*
X127198333Y-43634819D02*
X127198333Y-42634819D01*
X127198333Y-42634819D02*
X127579285Y-42634819D01*
X127579285Y-42634819D02*
X127674523Y-42682438D01*
X127674523Y-42682438D02*
X127722142Y-42730057D01*
X127722142Y-42730057D02*
X127769761Y-42825295D01*
X127769761Y-42825295D02*
X127769761Y-42968152D01*
X127769761Y-42968152D02*
X127722142Y-43063390D01*
X127722142Y-43063390D02*
X127674523Y-43111009D01*
X127674523Y-43111009D02*
X127579285Y-43158628D01*
X127579285Y-43158628D02*
X127198333Y-43158628D01*
X128674523Y-43634819D02*
X128198333Y-43634819D01*
X128198333Y-43634819D02*
X128198333Y-42634819D01*
X129198333Y-43158628D02*
X129198333Y-43634819D01*
X128865000Y-42634819D02*
X129198333Y-43158628D01*
X129198333Y-43158628D02*
X129531666Y-42634819D01*
X116202267Y-58874819D02*
X115630839Y-58874819D01*
X115916553Y-58874819D02*
X115916553Y-57874819D01*
X115916553Y-57874819D02*
X115821315Y-58017676D01*
X115821315Y-58017676D02*
X115726077Y-58112914D01*
X115726077Y-58112914D02*
X115630839Y-58160533D01*
X116487982Y-57874819D02*
X116821315Y-58874819D01*
X116821315Y-58874819D02*
X117154648Y-57874819D01*
X117964172Y-57874819D02*
X117487982Y-57874819D01*
X117487982Y-57874819D02*
X117440363Y-58351009D01*
X117440363Y-58351009D02*
X117487982Y-58303390D01*
X117487982Y-58303390D02*
X117583220Y-58255771D01*
X117583220Y-58255771D02*
X117821315Y-58255771D01*
X117821315Y-58255771D02*
X117916553Y-58303390D01*
X117916553Y-58303390D02*
X117964172Y-58351009D01*
X117964172Y-58351009D02*
X118011791Y-58446247D01*
X118011791Y-58446247D02*
X118011791Y-58684342D01*
X118011791Y-58684342D02*
X117964172Y-58779580D01*
X117964172Y-58779580D02*
X117916553Y-58827200D01*
X117916553Y-58827200D02*
X117821315Y-58874819D01*
X117821315Y-58874819D02*
X117583220Y-58874819D01*
X117583220Y-58874819D02*
X117487982Y-58827200D01*
X117487982Y-58827200D02*
X117440363Y-58779580D01*
X118202268Y-58970057D02*
X118964172Y-58970057D01*
X119392744Y-57874819D02*
X119583220Y-57874819D01*
X119583220Y-57874819D02*
X119678458Y-57922438D01*
X119678458Y-57922438D02*
X119773696Y-58017676D01*
X119773696Y-58017676D02*
X119821315Y-58208152D01*
X119821315Y-58208152D02*
X119821315Y-58541485D01*
X119821315Y-58541485D02*
X119773696Y-58731961D01*
X119773696Y-58731961D02*
X119678458Y-58827200D01*
X119678458Y-58827200D02*
X119583220Y-58874819D01*
X119583220Y-58874819D02*
X119392744Y-58874819D01*
X119392744Y-58874819D02*
X119297506Y-58827200D01*
X119297506Y-58827200D02*
X119202268Y-58731961D01*
X119202268Y-58731961D02*
X119154649Y-58541485D01*
X119154649Y-58541485D02*
X119154649Y-58208152D01*
X119154649Y-58208152D02*
X119202268Y-58017676D01*
X119202268Y-58017676D02*
X119297506Y-57922438D01*
X119297506Y-57922438D02*
X119392744Y-57874819D01*
X120249887Y-57874819D02*
X120249887Y-58684342D01*
X120249887Y-58684342D02*
X120297506Y-58779580D01*
X120297506Y-58779580D02*
X120345125Y-58827200D01*
X120345125Y-58827200D02*
X120440363Y-58874819D01*
X120440363Y-58874819D02*
X120630839Y-58874819D01*
X120630839Y-58874819D02*
X120726077Y-58827200D01*
X120726077Y-58827200D02*
X120773696Y-58779580D01*
X120773696Y-58779580D02*
X120821315Y-58684342D01*
X120821315Y-58684342D02*
X120821315Y-57874819D01*
X121154649Y-57874819D02*
X121726077Y-57874819D01*
X121440363Y-58874819D02*
X121440363Y-57874819D01*
X153147143Y-78274104D02*
X153623333Y-78274104D01*
X153051905Y-78559819D02*
X153385238Y-77559819D01*
X153385238Y-77559819D02*
X153718571Y-78559819D01*
X154051905Y-78559819D02*
X154051905Y-77559819D01*
X154051905Y-77559819D02*
X154623333Y-78559819D01*
X154623333Y-78559819D02*
X154623333Y-77559819D01*
X154956667Y-77559819D02*
X155528095Y-77559819D01*
X155242381Y-78559819D02*
X155242381Y-77559819D01*
X165031009Y-70651428D02*
X165078628Y-70508571D01*
X165078628Y-70508571D02*
X165126247Y-70460952D01*
X165126247Y-70460952D02*
X165221485Y-70413333D01*
X165221485Y-70413333D02*
X165364342Y-70413333D01*
X165364342Y-70413333D02*
X165459580Y-70460952D01*
X165459580Y-70460952D02*
X165507200Y-70508571D01*
X165507200Y-70508571D02*
X165554819Y-70603809D01*
X165554819Y-70603809D02*
X165554819Y-70984761D01*
X165554819Y-70984761D02*
X164554819Y-70984761D01*
X164554819Y-70984761D02*
X164554819Y-70651428D01*
X164554819Y-70651428D02*
X164602438Y-70556190D01*
X164602438Y-70556190D02*
X164650057Y-70508571D01*
X164650057Y-70508571D02*
X164745295Y-70460952D01*
X164745295Y-70460952D02*
X164840533Y-70460952D01*
X164840533Y-70460952D02*
X164935771Y-70508571D01*
X164935771Y-70508571D02*
X164983390Y-70556190D01*
X164983390Y-70556190D02*
X165031009Y-70651428D01*
X165031009Y-70651428D02*
X165031009Y-70984761D01*
X164554819Y-70127618D02*
X164554819Y-69556190D01*
X165554819Y-69841904D02*
X164554819Y-69841904D01*
X165650057Y-69460952D02*
X165650057Y-68699047D01*
X164554819Y-68556189D02*
X164554819Y-67937142D01*
X164554819Y-67937142D02*
X164935771Y-68270475D01*
X164935771Y-68270475D02*
X164935771Y-68127618D01*
X164935771Y-68127618D02*
X164983390Y-68032380D01*
X164983390Y-68032380D02*
X165031009Y-67984761D01*
X165031009Y-67984761D02*
X165126247Y-67937142D01*
X165126247Y-67937142D02*
X165364342Y-67937142D01*
X165364342Y-67937142D02*
X165459580Y-67984761D01*
X165459580Y-67984761D02*
X165507200Y-68032380D01*
X165507200Y-68032380D02*
X165554819Y-68127618D01*
X165554819Y-68127618D02*
X165554819Y-68413332D01*
X165554819Y-68413332D02*
X165507200Y-68508570D01*
X165507200Y-68508570D02*
X165459580Y-68556189D01*
X164554819Y-67651427D02*
X165554819Y-67318094D01*
X165554819Y-67318094D02*
X164554819Y-66984761D01*
X164554819Y-66746665D02*
X164554819Y-66127618D01*
X164554819Y-66127618D02*
X164935771Y-66460951D01*
X164935771Y-66460951D02*
X164935771Y-66318094D01*
X164935771Y-66318094D02*
X164983390Y-66222856D01*
X164983390Y-66222856D02*
X165031009Y-66175237D01*
X165031009Y-66175237D02*
X165126247Y-66127618D01*
X165126247Y-66127618D02*
X165364342Y-66127618D01*
X165364342Y-66127618D02*
X165459580Y-66175237D01*
X165459580Y-66175237D02*
X165507200Y-66222856D01*
X165507200Y-66222856D02*
X165554819Y-66318094D01*
X165554819Y-66318094D02*
X165554819Y-66603808D01*
X165554819Y-66603808D02*
X165507200Y-66699046D01*
X165507200Y-66699046D02*
X165459580Y-66746665D01*
X141640112Y-81211009D02*
X141782969Y-81258628D01*
X141782969Y-81258628D02*
X141830588Y-81306247D01*
X141830588Y-81306247D02*
X141878207Y-81401485D01*
X141878207Y-81401485D02*
X141878207Y-81544342D01*
X141878207Y-81544342D02*
X141830588Y-81639580D01*
X141830588Y-81639580D02*
X141782969Y-81687200D01*
X141782969Y-81687200D02*
X141687731Y-81734819D01*
X141687731Y-81734819D02*
X141306779Y-81734819D01*
X141306779Y-81734819D02*
X141306779Y-80734819D01*
X141306779Y-80734819D02*
X141640112Y-80734819D01*
X141640112Y-80734819D02*
X141735350Y-80782438D01*
X141735350Y-80782438D02*
X141782969Y-80830057D01*
X141782969Y-80830057D02*
X141830588Y-80925295D01*
X141830588Y-80925295D02*
X141830588Y-81020533D01*
X141830588Y-81020533D02*
X141782969Y-81115771D01*
X141782969Y-81115771D02*
X141735350Y-81163390D01*
X141735350Y-81163390D02*
X141640112Y-81211009D01*
X141640112Y-81211009D02*
X141306779Y-81211009D01*
X142163922Y-80734819D02*
X142735350Y-80734819D01*
X142449636Y-81734819D02*
X142449636Y-80734819D01*
X142830589Y-81830057D02*
X143592493Y-81830057D01*
X144402017Y-81734819D02*
X144068684Y-81258628D01*
X143830589Y-81734819D02*
X143830589Y-80734819D01*
X143830589Y-80734819D02*
X144211541Y-80734819D01*
X144211541Y-80734819D02*
X144306779Y-80782438D01*
X144306779Y-80782438D02*
X144354398Y-80830057D01*
X144354398Y-80830057D02*
X144402017Y-80925295D01*
X144402017Y-80925295D02*
X144402017Y-81068152D01*
X144402017Y-81068152D02*
X144354398Y-81163390D01*
X144354398Y-81163390D02*
X144306779Y-81211009D01*
X144306779Y-81211009D02*
X144211541Y-81258628D01*
X144211541Y-81258628D02*
X143830589Y-81258628D01*
X144830589Y-81353866D02*
X145592494Y-81353866D01*
X147319506Y-49394490D02*
X147757239Y-48956758D01*
X147757239Y-48956758D02*
X147790911Y-49461834D01*
X147790911Y-49461834D02*
X147891926Y-49360819D01*
X147891926Y-49360819D02*
X147992941Y-49327147D01*
X147992941Y-49327147D02*
X148060285Y-49327147D01*
X148060285Y-49327147D02*
X148161300Y-49360819D01*
X148161300Y-49360819D02*
X148329659Y-49529177D01*
X148329659Y-49529177D02*
X148363331Y-49630193D01*
X148363331Y-49630193D02*
X148363331Y-49697536D01*
X148363331Y-49697536D02*
X148329659Y-49798551D01*
X148329659Y-49798551D02*
X148127628Y-50000582D01*
X148127628Y-50000582D02*
X148026613Y-50034254D01*
X148026613Y-50034254D02*
X147959270Y-50034254D01*
X147959270Y-48754727D02*
X148902079Y-49226132D01*
X148902079Y-49226132D02*
X148430674Y-48283322D01*
X148599033Y-48114964D02*
X149036766Y-47677231D01*
X149036766Y-47677231D02*
X149070438Y-48182307D01*
X149070438Y-48182307D02*
X149171453Y-48081292D01*
X149171453Y-48081292D02*
X149272468Y-48047620D01*
X149272468Y-48047620D02*
X149339812Y-48047620D01*
X149339812Y-48047620D02*
X149440827Y-48081292D01*
X149440827Y-48081292D02*
X149609186Y-48249651D01*
X149609186Y-48249651D02*
X149642857Y-48350666D01*
X149642857Y-48350666D02*
X149642857Y-48418009D01*
X149642857Y-48418009D02*
X149609186Y-48519025D01*
X149609186Y-48519025D02*
X149407155Y-48721055D01*
X149407155Y-48721055D02*
X149306140Y-48754727D01*
X149306140Y-48754727D02*
X149238796Y-48754727D01*
X149945903Y-48316994D02*
X150484651Y-47778246D01*
X150013247Y-46700750D02*
X150147934Y-46566063D01*
X150147934Y-46566063D02*
X150248949Y-46532391D01*
X150248949Y-46532391D02*
X150383636Y-46532391D01*
X150383636Y-46532391D02*
X150551995Y-46633406D01*
X150551995Y-46633406D02*
X150787697Y-46869109D01*
X150787697Y-46869109D02*
X150888712Y-47037467D01*
X150888712Y-47037467D02*
X150888712Y-47172154D01*
X150888712Y-47172154D02*
X150855041Y-47273170D01*
X150855041Y-47273170D02*
X150720354Y-47407857D01*
X150720354Y-47407857D02*
X150619338Y-47441528D01*
X150619338Y-47441528D02*
X150484651Y-47441528D01*
X150484651Y-47441528D02*
X150316293Y-47340513D01*
X150316293Y-47340513D02*
X150080590Y-47104811D01*
X150080590Y-47104811D02*
X149979575Y-46936452D01*
X149979575Y-46936452D02*
X149979575Y-46801765D01*
X149979575Y-46801765D02*
X150013247Y-46700750D01*
X150619338Y-46094658D02*
X151191758Y-46667078D01*
X151191758Y-46667078D02*
X151292773Y-46700750D01*
X151292773Y-46700750D02*
X151360117Y-46700750D01*
X151360117Y-46700750D02*
X151461132Y-46667078D01*
X151461132Y-46667078D02*
X151595819Y-46532391D01*
X151595819Y-46532391D02*
X151629491Y-46431376D01*
X151629491Y-46431376D02*
X151629491Y-46364032D01*
X151629491Y-46364032D02*
X151595819Y-46263017D01*
X151595819Y-46263017D02*
X151023399Y-45690597D01*
X151259102Y-45454895D02*
X151663163Y-45050834D01*
X152168239Y-45959971D02*
X151461132Y-45252865D01*
X110363095Y-59827438D02*
X110267857Y-59779819D01*
X110267857Y-59779819D02*
X110125000Y-59779819D01*
X110125000Y-59779819D02*
X109982143Y-59827438D01*
X109982143Y-59827438D02*
X109886905Y-59922676D01*
X109886905Y-59922676D02*
X109839286Y-60017914D01*
X109839286Y-60017914D02*
X109791667Y-60208390D01*
X109791667Y-60208390D02*
X109791667Y-60351247D01*
X109791667Y-60351247D02*
X109839286Y-60541723D01*
X109839286Y-60541723D02*
X109886905Y-60636961D01*
X109886905Y-60636961D02*
X109982143Y-60732200D01*
X109982143Y-60732200D02*
X110125000Y-60779819D01*
X110125000Y-60779819D02*
X110220238Y-60779819D01*
X110220238Y-60779819D02*
X110363095Y-60732200D01*
X110363095Y-60732200D02*
X110410714Y-60684580D01*
X110410714Y-60684580D02*
X110410714Y-60351247D01*
X110410714Y-60351247D02*
X110220238Y-60351247D01*
X110839286Y-60779819D02*
X110839286Y-59779819D01*
X110839286Y-59779819D02*
X111410714Y-60779819D01*
X111410714Y-60779819D02*
X111410714Y-59779819D01*
X111886905Y-60779819D02*
X111886905Y-59779819D01*
X111886905Y-59779819D02*
X112125000Y-59779819D01*
X112125000Y-59779819D02*
X112267857Y-59827438D01*
X112267857Y-59827438D02*
X112363095Y-59922676D01*
X112363095Y-59922676D02*
X112410714Y-60017914D01*
X112410714Y-60017914D02*
X112458333Y-60208390D01*
X112458333Y-60208390D02*
X112458333Y-60351247D01*
X112458333Y-60351247D02*
X112410714Y-60541723D01*
X112410714Y-60541723D02*
X112363095Y-60636961D01*
X112363095Y-60636961D02*
X112267857Y-60732200D01*
X112267857Y-60732200D02*
X112125000Y-60779819D01*
X112125000Y-60779819D02*
X111886905Y-60779819D01*
X97609819Y-78525475D02*
X96609819Y-78525475D01*
X96609819Y-78525475D02*
X96609819Y-78287380D01*
X96609819Y-78287380D02*
X96657438Y-78144523D01*
X96657438Y-78144523D02*
X96752676Y-78049285D01*
X96752676Y-78049285D02*
X96847914Y-78001666D01*
X96847914Y-78001666D02*
X97038390Y-77954047D01*
X97038390Y-77954047D02*
X97181247Y-77954047D01*
X97181247Y-77954047D02*
X97371723Y-78001666D01*
X97371723Y-78001666D02*
X97466961Y-78049285D01*
X97466961Y-78049285D02*
X97562200Y-78144523D01*
X97562200Y-78144523D02*
X97609819Y-78287380D01*
X97609819Y-78287380D02*
X97609819Y-78525475D01*
X96609819Y-77668332D02*
X97609819Y-77334999D01*
X97609819Y-77334999D02*
X96609819Y-77001666D01*
X97609819Y-76668332D02*
X96609819Y-76668332D01*
X96609819Y-76668332D02*
X96609819Y-76430237D01*
X96609819Y-76430237D02*
X96657438Y-76287380D01*
X96657438Y-76287380D02*
X96752676Y-76192142D01*
X96752676Y-76192142D02*
X96847914Y-76144523D01*
X96847914Y-76144523D02*
X97038390Y-76096904D01*
X97038390Y-76096904D02*
X97181247Y-76096904D01*
X97181247Y-76096904D02*
X97371723Y-76144523D01*
X97371723Y-76144523D02*
X97466961Y-76192142D01*
X97466961Y-76192142D02*
X97562200Y-76287380D01*
X97562200Y-76287380D02*
X97609819Y-76430237D01*
X97609819Y-76430237D02*
X97609819Y-76668332D01*
X97609819Y-75668332D02*
X96609819Y-75668332D01*
X96609819Y-75668332D02*
X96609819Y-75430237D01*
X96609819Y-75430237D02*
X96657438Y-75287380D01*
X96657438Y-75287380D02*
X96752676Y-75192142D01*
X96752676Y-75192142D02*
X96847914Y-75144523D01*
X96847914Y-75144523D02*
X97038390Y-75096904D01*
X97038390Y-75096904D02*
X97181247Y-75096904D01*
X97181247Y-75096904D02*
X97371723Y-75144523D01*
X97371723Y-75144523D02*
X97466961Y-75192142D01*
X97466961Y-75192142D02*
X97562200Y-75287380D01*
X97562200Y-75287380D02*
X97609819Y-75430237D01*
X97609819Y-75430237D02*
X97609819Y-75668332D01*
X141640112Y-79941009D02*
X141782969Y-79988628D01*
X141782969Y-79988628D02*
X141830588Y-80036247D01*
X141830588Y-80036247D02*
X141878207Y-80131485D01*
X141878207Y-80131485D02*
X141878207Y-80274342D01*
X141878207Y-80274342D02*
X141830588Y-80369580D01*
X141830588Y-80369580D02*
X141782969Y-80417200D01*
X141782969Y-80417200D02*
X141687731Y-80464819D01*
X141687731Y-80464819D02*
X141306779Y-80464819D01*
X141306779Y-80464819D02*
X141306779Y-79464819D01*
X141306779Y-79464819D02*
X141640112Y-79464819D01*
X141640112Y-79464819D02*
X141735350Y-79512438D01*
X141735350Y-79512438D02*
X141782969Y-79560057D01*
X141782969Y-79560057D02*
X141830588Y-79655295D01*
X141830588Y-79655295D02*
X141830588Y-79750533D01*
X141830588Y-79750533D02*
X141782969Y-79845771D01*
X141782969Y-79845771D02*
X141735350Y-79893390D01*
X141735350Y-79893390D02*
X141640112Y-79941009D01*
X141640112Y-79941009D02*
X141306779Y-79941009D01*
X142163922Y-79464819D02*
X142735350Y-79464819D01*
X142449636Y-80464819D02*
X142449636Y-79464819D01*
X142830589Y-80560057D02*
X143592493Y-80560057D01*
X144402017Y-80464819D02*
X144068684Y-79988628D01*
X143830589Y-80464819D02*
X143830589Y-79464819D01*
X143830589Y-79464819D02*
X144211541Y-79464819D01*
X144211541Y-79464819D02*
X144306779Y-79512438D01*
X144306779Y-79512438D02*
X144354398Y-79560057D01*
X144354398Y-79560057D02*
X144402017Y-79655295D01*
X144402017Y-79655295D02*
X144402017Y-79798152D01*
X144402017Y-79798152D02*
X144354398Y-79893390D01*
X144354398Y-79893390D02*
X144306779Y-79941009D01*
X144306779Y-79941009D02*
X144211541Y-79988628D01*
X144211541Y-79988628D02*
X143830589Y-79988628D01*
X144830589Y-80083866D02*
X145592494Y-80083866D01*
X145211541Y-80464819D02*
X145211541Y-79702914D01*
X102330714Y-58827200D02*
X102473571Y-58874819D01*
X102473571Y-58874819D02*
X102711666Y-58874819D01*
X102711666Y-58874819D02*
X102806904Y-58827200D01*
X102806904Y-58827200D02*
X102854523Y-58779580D01*
X102854523Y-58779580D02*
X102902142Y-58684342D01*
X102902142Y-58684342D02*
X102902142Y-58589104D01*
X102902142Y-58589104D02*
X102854523Y-58493866D01*
X102854523Y-58493866D02*
X102806904Y-58446247D01*
X102806904Y-58446247D02*
X102711666Y-58398628D01*
X102711666Y-58398628D02*
X102521190Y-58351009D01*
X102521190Y-58351009D02*
X102425952Y-58303390D01*
X102425952Y-58303390D02*
X102378333Y-58255771D01*
X102378333Y-58255771D02*
X102330714Y-58160533D01*
X102330714Y-58160533D02*
X102330714Y-58065295D01*
X102330714Y-58065295D02*
X102378333Y-57970057D01*
X102378333Y-57970057D02*
X102425952Y-57922438D01*
X102425952Y-57922438D02*
X102521190Y-57874819D01*
X102521190Y-57874819D02*
X102759285Y-57874819D01*
X102759285Y-57874819D02*
X102902142Y-57922438D01*
X103330714Y-58874819D02*
X103330714Y-57874819D01*
X103330714Y-58351009D02*
X103902142Y-58351009D01*
X103902142Y-58874819D02*
X103902142Y-57874819D01*
X104854523Y-58874819D02*
X104378333Y-58874819D01*
X104378333Y-58874819D02*
X104378333Y-57874819D01*
X105187857Y-58874819D02*
X105187857Y-57874819D01*
X105187857Y-57874819D02*
X105425952Y-57874819D01*
X105425952Y-57874819D02*
X105568809Y-57922438D01*
X105568809Y-57922438D02*
X105664047Y-58017676D01*
X105664047Y-58017676D02*
X105711666Y-58112914D01*
X105711666Y-58112914D02*
X105759285Y-58303390D01*
X105759285Y-58303390D02*
X105759285Y-58446247D01*
X105759285Y-58446247D02*
X105711666Y-58636723D01*
X105711666Y-58636723D02*
X105664047Y-58731961D01*
X105664047Y-58731961D02*
X105568809Y-58827200D01*
X105568809Y-58827200D02*
X105425952Y-58874819D01*
X105425952Y-58874819D02*
X105187857Y-58874819D01*
X106140238Y-57970057D02*
X106187857Y-57922438D01*
X106187857Y-57922438D02*
X106283095Y-57874819D01*
X106283095Y-57874819D02*
X106521190Y-57874819D01*
X106521190Y-57874819D02*
X106616428Y-57922438D01*
X106616428Y-57922438D02*
X106664047Y-57970057D01*
X106664047Y-57970057D02*
X106711666Y-58065295D01*
X106711666Y-58065295D02*
X106711666Y-58160533D01*
X106711666Y-58160533D02*
X106664047Y-58303390D01*
X106664047Y-58303390D02*
X106092619Y-58874819D01*
X106092619Y-58874819D02*
X106711666Y-58874819D01*
X107664047Y-57922438D02*
X107568809Y-57874819D01*
X107568809Y-57874819D02*
X107425952Y-57874819D01*
X107425952Y-57874819D02*
X107283095Y-57922438D01*
X107283095Y-57922438D02*
X107187857Y-58017676D01*
X107187857Y-58017676D02*
X107140238Y-58112914D01*
X107140238Y-58112914D02*
X107092619Y-58303390D01*
X107092619Y-58303390D02*
X107092619Y-58446247D01*
X107092619Y-58446247D02*
X107140238Y-58636723D01*
X107140238Y-58636723D02*
X107187857Y-58731961D01*
X107187857Y-58731961D02*
X107283095Y-58827200D01*
X107283095Y-58827200D02*
X107425952Y-58874819D01*
X107425952Y-58874819D02*
X107521190Y-58874819D01*
X107521190Y-58874819D02*
X107664047Y-58827200D01*
X107664047Y-58827200D02*
X107711666Y-58779580D01*
X107711666Y-58779580D02*
X107711666Y-58446247D01*
X107711666Y-58446247D02*
X107521190Y-58446247D01*
X108140238Y-58874819D02*
X108140238Y-57874819D01*
X108140238Y-57874819D02*
X108711666Y-58874819D01*
X108711666Y-58874819D02*
X108711666Y-57874819D01*
X109187857Y-58874819D02*
X109187857Y-57874819D01*
X109187857Y-57874819D02*
X109425952Y-57874819D01*
X109425952Y-57874819D02*
X109568809Y-57922438D01*
X109568809Y-57922438D02*
X109664047Y-58017676D01*
X109664047Y-58017676D02*
X109711666Y-58112914D01*
X109711666Y-58112914D02*
X109759285Y-58303390D01*
X109759285Y-58303390D02*
X109759285Y-58446247D01*
X109759285Y-58446247D02*
X109711666Y-58636723D01*
X109711666Y-58636723D02*
X109664047Y-58731961D01*
X109664047Y-58731961D02*
X109568809Y-58827200D01*
X109568809Y-58827200D02*
X109425952Y-58874819D01*
X109425952Y-58874819D02*
X109187857Y-58874819D01*
X164602438Y-52196904D02*
X164554819Y-52292142D01*
X164554819Y-52292142D02*
X164554819Y-52434999D01*
X164554819Y-52434999D02*
X164602438Y-52577856D01*
X164602438Y-52577856D02*
X164697676Y-52673094D01*
X164697676Y-52673094D02*
X164792914Y-52720713D01*
X164792914Y-52720713D02*
X164983390Y-52768332D01*
X164983390Y-52768332D02*
X165126247Y-52768332D01*
X165126247Y-52768332D02*
X165316723Y-52720713D01*
X165316723Y-52720713D02*
X165411961Y-52673094D01*
X165411961Y-52673094D02*
X165507200Y-52577856D01*
X165507200Y-52577856D02*
X165554819Y-52434999D01*
X165554819Y-52434999D02*
X165554819Y-52339761D01*
X165554819Y-52339761D02*
X165507200Y-52196904D01*
X165507200Y-52196904D02*
X165459580Y-52149285D01*
X165459580Y-52149285D02*
X165126247Y-52149285D01*
X165126247Y-52149285D02*
X165126247Y-52339761D01*
X165554819Y-51720713D02*
X164554819Y-51720713D01*
X164554819Y-51720713D02*
X165554819Y-51149285D01*
X165554819Y-51149285D02*
X164554819Y-51149285D01*
X165554819Y-50673094D02*
X164554819Y-50673094D01*
X164554819Y-50673094D02*
X164554819Y-50434999D01*
X164554819Y-50434999D02*
X164602438Y-50292142D01*
X164602438Y-50292142D02*
X164697676Y-50196904D01*
X164697676Y-50196904D02*
X164792914Y-50149285D01*
X164792914Y-50149285D02*
X164983390Y-50101666D01*
X164983390Y-50101666D02*
X165126247Y-50101666D01*
X165126247Y-50101666D02*
X165316723Y-50149285D01*
X165316723Y-50149285D02*
X165411961Y-50196904D01*
X165411961Y-50196904D02*
X165507200Y-50292142D01*
X165507200Y-50292142D02*
X165554819Y-50434999D01*
X165554819Y-50434999D02*
X165554819Y-50673094D01*
X104529048Y-44904819D02*
X104529048Y-43904819D01*
X104529048Y-43904819D02*
X104767143Y-43904819D01*
X104767143Y-43904819D02*
X104910000Y-43952438D01*
X104910000Y-43952438D02*
X105005238Y-44047676D01*
X105005238Y-44047676D02*
X105052857Y-44142914D01*
X105052857Y-44142914D02*
X105100476Y-44333390D01*
X105100476Y-44333390D02*
X105100476Y-44476247D01*
X105100476Y-44476247D02*
X105052857Y-44666723D01*
X105052857Y-44666723D02*
X105005238Y-44761961D01*
X105005238Y-44761961D02*
X104910000Y-44857200D01*
X104910000Y-44857200D02*
X104767143Y-44904819D01*
X104767143Y-44904819D02*
X104529048Y-44904819D01*
X105529048Y-44523866D02*
X106290953Y-44523866D01*
X105910000Y-44904819D02*
X105910000Y-44142914D01*
X139660714Y-72479819D02*
X139660714Y-73289342D01*
X139660714Y-73289342D02*
X139708333Y-73384580D01*
X139708333Y-73384580D02*
X139755952Y-73432200D01*
X139755952Y-73432200D02*
X139851190Y-73479819D01*
X139851190Y-73479819D02*
X140041666Y-73479819D01*
X140041666Y-73479819D02*
X140136904Y-73432200D01*
X140136904Y-73432200D02*
X140184523Y-73384580D01*
X140184523Y-73384580D02*
X140232142Y-73289342D01*
X140232142Y-73289342D02*
X140232142Y-72479819D01*
X140660714Y-73432200D02*
X140803571Y-73479819D01*
X140803571Y-73479819D02*
X141041666Y-73479819D01*
X141041666Y-73479819D02*
X141136904Y-73432200D01*
X141136904Y-73432200D02*
X141184523Y-73384580D01*
X141184523Y-73384580D02*
X141232142Y-73289342D01*
X141232142Y-73289342D02*
X141232142Y-73194104D01*
X141232142Y-73194104D02*
X141184523Y-73098866D01*
X141184523Y-73098866D02*
X141136904Y-73051247D01*
X141136904Y-73051247D02*
X141041666Y-73003628D01*
X141041666Y-73003628D02*
X140851190Y-72956009D01*
X140851190Y-72956009D02*
X140755952Y-72908390D01*
X140755952Y-72908390D02*
X140708333Y-72860771D01*
X140708333Y-72860771D02*
X140660714Y-72765533D01*
X140660714Y-72765533D02*
X140660714Y-72670295D01*
X140660714Y-72670295D02*
X140708333Y-72575057D01*
X140708333Y-72575057D02*
X140755952Y-72527438D01*
X140755952Y-72527438D02*
X140851190Y-72479819D01*
X140851190Y-72479819D02*
X141089285Y-72479819D01*
X141089285Y-72479819D02*
X141232142Y-72527438D01*
X141994047Y-72956009D02*
X142136904Y-73003628D01*
X142136904Y-73003628D02*
X142184523Y-73051247D01*
X142184523Y-73051247D02*
X142232142Y-73146485D01*
X142232142Y-73146485D02*
X142232142Y-73289342D01*
X142232142Y-73289342D02*
X142184523Y-73384580D01*
X142184523Y-73384580D02*
X142136904Y-73432200D01*
X142136904Y-73432200D02*
X142041666Y-73479819D01*
X142041666Y-73479819D02*
X141660714Y-73479819D01*
X141660714Y-73479819D02*
X141660714Y-72479819D01*
X141660714Y-72479819D02*
X141994047Y-72479819D01*
X141994047Y-72479819D02*
X142089285Y-72527438D01*
X142089285Y-72527438D02*
X142136904Y-72575057D01*
X142136904Y-72575057D02*
X142184523Y-72670295D01*
X142184523Y-72670295D02*
X142184523Y-72765533D01*
X142184523Y-72765533D02*
X142136904Y-72860771D01*
X142136904Y-72860771D02*
X142089285Y-72908390D01*
X142089285Y-72908390D02*
X141994047Y-72956009D01*
X141994047Y-72956009D02*
X141660714Y-72956009D01*
X142422619Y-73575057D02*
X143184523Y-73575057D01*
X143422619Y-73479819D02*
X143422619Y-72479819D01*
X143422619Y-72479819D02*
X143803571Y-72479819D01*
X143803571Y-72479819D02*
X143898809Y-72527438D01*
X143898809Y-72527438D02*
X143946428Y-72575057D01*
X143946428Y-72575057D02*
X143994047Y-72670295D01*
X143994047Y-72670295D02*
X143994047Y-72813152D01*
X143994047Y-72813152D02*
X143946428Y-72908390D01*
X143946428Y-72908390D02*
X143898809Y-72956009D01*
X143898809Y-72956009D02*
X143803571Y-73003628D01*
X143803571Y-73003628D02*
X143422619Y-73003628D01*
X144327381Y-72479819D02*
X144565476Y-73479819D01*
X144565476Y-73479819D02*
X144755952Y-72765533D01*
X144755952Y-72765533D02*
X144946428Y-73479819D01*
X144946428Y-73479819D02*
X145184524Y-72479819D01*
X146136904Y-73479819D02*
X145803571Y-73003628D01*
X145565476Y-73479819D02*
X145565476Y-72479819D01*
X145565476Y-72479819D02*
X145946428Y-72479819D01*
X145946428Y-72479819D02*
X146041666Y-72527438D01*
X146041666Y-72527438D02*
X146089285Y-72575057D01*
X146089285Y-72575057D02*
X146136904Y-72670295D01*
X146136904Y-72670295D02*
X146136904Y-72813152D01*
X146136904Y-72813152D02*
X146089285Y-72908390D01*
X146089285Y-72908390D02*
X146041666Y-72956009D01*
X146041666Y-72956009D02*
X145946428Y-73003628D01*
X145946428Y-73003628D02*
X145565476Y-73003628D01*
X114345125Y-60414819D02*
X114964172Y-60414819D01*
X114964172Y-60414819D02*
X114630839Y-60795771D01*
X114630839Y-60795771D02*
X114773696Y-60795771D01*
X114773696Y-60795771D02*
X114868934Y-60843390D01*
X114868934Y-60843390D02*
X114916553Y-60891009D01*
X114916553Y-60891009D02*
X114964172Y-60986247D01*
X114964172Y-60986247D02*
X114964172Y-61224342D01*
X114964172Y-61224342D02*
X114916553Y-61319580D01*
X114916553Y-61319580D02*
X114868934Y-61367200D01*
X114868934Y-61367200D02*
X114773696Y-61414819D01*
X114773696Y-61414819D02*
X114487982Y-61414819D01*
X114487982Y-61414819D02*
X114392744Y-61367200D01*
X114392744Y-61367200D02*
X114345125Y-61319580D01*
X115249887Y-60414819D02*
X115583220Y-61414819D01*
X115583220Y-61414819D02*
X115916553Y-60414819D01*
X116154649Y-60414819D02*
X116773696Y-60414819D01*
X116773696Y-60414819D02*
X116440363Y-60795771D01*
X116440363Y-60795771D02*
X116583220Y-60795771D01*
X116583220Y-60795771D02*
X116678458Y-60843390D01*
X116678458Y-60843390D02*
X116726077Y-60891009D01*
X116726077Y-60891009D02*
X116773696Y-60986247D01*
X116773696Y-60986247D02*
X116773696Y-61224342D01*
X116773696Y-61224342D02*
X116726077Y-61319580D01*
X116726077Y-61319580D02*
X116678458Y-61367200D01*
X116678458Y-61367200D02*
X116583220Y-61414819D01*
X116583220Y-61414819D02*
X116297506Y-61414819D01*
X116297506Y-61414819D02*
X116202268Y-61367200D01*
X116202268Y-61367200D02*
X116154649Y-61319580D01*
X116964173Y-61510057D02*
X117726077Y-61510057D01*
X117964173Y-61414819D02*
X117964173Y-60414819D01*
X117964173Y-60414819D02*
X118297506Y-61129104D01*
X118297506Y-61129104D02*
X118630839Y-60414819D01*
X118630839Y-60414819D02*
X118630839Y-61414819D01*
X119297506Y-60414819D02*
X119487982Y-60414819D01*
X119487982Y-60414819D02*
X119583220Y-60462438D01*
X119583220Y-60462438D02*
X119678458Y-60557676D01*
X119678458Y-60557676D02*
X119726077Y-60748152D01*
X119726077Y-60748152D02*
X119726077Y-61081485D01*
X119726077Y-61081485D02*
X119678458Y-61271961D01*
X119678458Y-61271961D02*
X119583220Y-61367200D01*
X119583220Y-61367200D02*
X119487982Y-61414819D01*
X119487982Y-61414819D02*
X119297506Y-61414819D01*
X119297506Y-61414819D02*
X119202268Y-61367200D01*
X119202268Y-61367200D02*
X119107030Y-61271961D01*
X119107030Y-61271961D02*
X119059411Y-61081485D01*
X119059411Y-61081485D02*
X119059411Y-60748152D01*
X119059411Y-60748152D02*
X119107030Y-60557676D01*
X119107030Y-60557676D02*
X119202268Y-60462438D01*
X119202268Y-60462438D02*
X119297506Y-60414819D01*
X120154649Y-61414819D02*
X120154649Y-60414819D01*
X120154649Y-60414819D02*
X120392744Y-60414819D01*
X120392744Y-60414819D02*
X120535601Y-60462438D01*
X120535601Y-60462438D02*
X120630839Y-60557676D01*
X120630839Y-60557676D02*
X120678458Y-60652914D01*
X120678458Y-60652914D02*
X120726077Y-60843390D01*
X120726077Y-60843390D02*
X120726077Y-60986247D01*
X120726077Y-60986247D02*
X120678458Y-61176723D01*
X120678458Y-61176723D02*
X120630839Y-61271961D01*
X120630839Y-61271961D02*
X120535601Y-61367200D01*
X120535601Y-61367200D02*
X120392744Y-61414819D01*
X120392744Y-61414819D02*
X120154649Y-61414819D01*
X121154649Y-60891009D02*
X121487982Y-60891009D01*
X121630839Y-61414819D02*
X121154649Y-61414819D01*
X121154649Y-61414819D02*
X121154649Y-60414819D01*
X121154649Y-60414819D02*
X121630839Y-60414819D01*
X96657438Y-83311904D02*
X96609819Y-83407142D01*
X96609819Y-83407142D02*
X96609819Y-83549999D01*
X96609819Y-83549999D02*
X96657438Y-83692856D01*
X96657438Y-83692856D02*
X96752676Y-83788094D01*
X96752676Y-83788094D02*
X96847914Y-83835713D01*
X96847914Y-83835713D02*
X97038390Y-83883332D01*
X97038390Y-83883332D02*
X97181247Y-83883332D01*
X97181247Y-83883332D02*
X97371723Y-83835713D01*
X97371723Y-83835713D02*
X97466961Y-83788094D01*
X97466961Y-83788094D02*
X97562200Y-83692856D01*
X97562200Y-83692856D02*
X97609819Y-83549999D01*
X97609819Y-83549999D02*
X97609819Y-83454761D01*
X97609819Y-83454761D02*
X97562200Y-83311904D01*
X97562200Y-83311904D02*
X97514580Y-83264285D01*
X97514580Y-83264285D02*
X97181247Y-83264285D01*
X97181247Y-83264285D02*
X97181247Y-83454761D01*
X97609819Y-82835713D02*
X96609819Y-82835713D01*
X96609819Y-82835713D02*
X97609819Y-82264285D01*
X97609819Y-82264285D02*
X96609819Y-82264285D01*
X97609819Y-81788094D02*
X96609819Y-81788094D01*
X96609819Y-81788094D02*
X96609819Y-81549999D01*
X96609819Y-81549999D02*
X96657438Y-81407142D01*
X96657438Y-81407142D02*
X96752676Y-81311904D01*
X96752676Y-81311904D02*
X96847914Y-81264285D01*
X96847914Y-81264285D02*
X97038390Y-81216666D01*
X97038390Y-81216666D02*
X97181247Y-81216666D01*
X97181247Y-81216666D02*
X97371723Y-81264285D01*
X97371723Y-81264285D02*
X97466961Y-81311904D01*
X97466961Y-81311904D02*
X97562200Y-81407142D01*
X97562200Y-81407142D02*
X97609819Y-81549999D01*
X97609819Y-81549999D02*
X97609819Y-81788094D01*
X115641667Y-42634819D02*
X115975000Y-43634819D01*
X115975000Y-43634819D02*
X116308333Y-42634819D01*
X116641667Y-42634819D02*
X116641667Y-43444342D01*
X116641667Y-43444342D02*
X116689286Y-43539580D01*
X116689286Y-43539580D02*
X116736905Y-43587200D01*
X116736905Y-43587200D02*
X116832143Y-43634819D01*
X116832143Y-43634819D02*
X117022619Y-43634819D01*
X117022619Y-43634819D02*
X117117857Y-43587200D01*
X117117857Y-43587200D02*
X117165476Y-43539580D01*
X117165476Y-43539580D02*
X117213095Y-43444342D01*
X117213095Y-43444342D02*
X117213095Y-42634819D01*
X117641667Y-43587200D02*
X117784524Y-43634819D01*
X117784524Y-43634819D02*
X118022619Y-43634819D01*
X118022619Y-43634819D02*
X118117857Y-43587200D01*
X118117857Y-43587200D02*
X118165476Y-43539580D01*
X118165476Y-43539580D02*
X118213095Y-43444342D01*
X118213095Y-43444342D02*
X118213095Y-43349104D01*
X118213095Y-43349104D02*
X118165476Y-43253866D01*
X118165476Y-43253866D02*
X118117857Y-43206247D01*
X118117857Y-43206247D02*
X118022619Y-43158628D01*
X118022619Y-43158628D02*
X117832143Y-43111009D01*
X117832143Y-43111009D02*
X117736905Y-43063390D01*
X117736905Y-43063390D02*
X117689286Y-43015771D01*
X117689286Y-43015771D02*
X117641667Y-42920533D01*
X117641667Y-42920533D02*
X117641667Y-42825295D01*
X117641667Y-42825295D02*
X117689286Y-42730057D01*
X117689286Y-42730057D02*
X117736905Y-42682438D01*
X117736905Y-42682438D02*
X117832143Y-42634819D01*
X117832143Y-42634819D02*
X118070238Y-42634819D01*
X118070238Y-42634819D02*
X118213095Y-42682438D01*
X118975000Y-43111009D02*
X119117857Y-43158628D01*
X119117857Y-43158628D02*
X119165476Y-43206247D01*
X119165476Y-43206247D02*
X119213095Y-43301485D01*
X119213095Y-43301485D02*
X119213095Y-43444342D01*
X119213095Y-43444342D02*
X119165476Y-43539580D01*
X119165476Y-43539580D02*
X119117857Y-43587200D01*
X119117857Y-43587200D02*
X119022619Y-43634819D01*
X119022619Y-43634819D02*
X118641667Y-43634819D01*
X118641667Y-43634819D02*
X118641667Y-42634819D01*
X118641667Y-42634819D02*
X118975000Y-42634819D01*
X118975000Y-42634819D02*
X119070238Y-42682438D01*
X119070238Y-42682438D02*
X119117857Y-42730057D01*
X119117857Y-42730057D02*
X119165476Y-42825295D01*
X119165476Y-42825295D02*
X119165476Y-42920533D01*
X119165476Y-42920533D02*
X119117857Y-43015771D01*
X119117857Y-43015771D02*
X119070238Y-43063390D01*
X119070238Y-43063390D02*
X118975000Y-43111009D01*
X118975000Y-43111009D02*
X118641667Y-43111009D01*
X153460057Y-47737375D02*
X153594744Y-47670031D01*
X153594744Y-47670031D02*
X153662088Y-47670031D01*
X153662088Y-47670031D02*
X153763103Y-47703703D01*
X153763103Y-47703703D02*
X153864118Y-47804718D01*
X153864118Y-47804718D02*
X153897790Y-47905733D01*
X153897790Y-47905733D02*
X153897790Y-47973077D01*
X153897790Y-47973077D02*
X153864118Y-48074092D01*
X153864118Y-48074092D02*
X153594744Y-48343466D01*
X153594744Y-48343466D02*
X152887637Y-47636359D01*
X152887637Y-47636359D02*
X153123339Y-47400657D01*
X153123339Y-47400657D02*
X153224355Y-47366985D01*
X153224355Y-47366985D02*
X153291698Y-47366985D01*
X153291698Y-47366985D02*
X153392714Y-47400657D01*
X153392714Y-47400657D02*
X153460057Y-47468001D01*
X153460057Y-47468001D02*
X153493729Y-47569016D01*
X153493729Y-47569016D02*
X153493729Y-47636359D01*
X153493729Y-47636359D02*
X153460057Y-47737375D01*
X153460057Y-47737375D02*
X153224355Y-47973077D01*
X153493729Y-47030268D02*
X153897790Y-46626207D01*
X154402866Y-47535344D02*
X153695759Y-46828237D01*
X154739584Y-47333314D02*
X155278332Y-46794566D01*
X155244660Y-45952772D02*
X155379347Y-45885428D01*
X155379347Y-45885428D02*
X155446691Y-45885428D01*
X155446691Y-45885428D02*
X155547706Y-45919100D01*
X155547706Y-45919100D02*
X155648721Y-46020115D01*
X155648721Y-46020115D02*
X155682393Y-46121130D01*
X155682393Y-46121130D02*
X155682393Y-46188474D01*
X155682393Y-46188474D02*
X155648721Y-46289489D01*
X155648721Y-46289489D02*
X155379347Y-46558863D01*
X155379347Y-46558863D02*
X154672240Y-45851756D01*
X154672240Y-45851756D02*
X154907943Y-45616054D01*
X154907943Y-45616054D02*
X155008958Y-45582382D01*
X155008958Y-45582382D02*
X155076301Y-45582382D01*
X155076301Y-45582382D02*
X155177317Y-45616054D01*
X155177317Y-45616054D02*
X155244660Y-45683398D01*
X155244660Y-45683398D02*
X155278332Y-45784413D01*
X155278332Y-45784413D02*
X155278332Y-45851756D01*
X155278332Y-45851756D02*
X155244660Y-45952772D01*
X155244660Y-45952772D02*
X155008958Y-46188474D01*
X155850752Y-45683398D02*
X156187469Y-45346680D01*
X155985439Y-45952772D02*
X155514034Y-45009963D01*
X155514034Y-45009963D02*
X156456843Y-45481367D01*
X155884424Y-44639573D02*
X156288485Y-44235512D01*
X156793561Y-45144649D02*
X156086454Y-44437543D01*
X156961920Y-44437542D02*
X157500668Y-43898794D01*
X157500668Y-44437542D02*
X156961920Y-43898794D01*
X130264819Y-54030237D02*
X130264819Y-53411190D01*
X130264819Y-53411190D02*
X130645771Y-53744523D01*
X130645771Y-53744523D02*
X130645771Y-53601666D01*
X130645771Y-53601666D02*
X130693390Y-53506428D01*
X130693390Y-53506428D02*
X130741009Y-53458809D01*
X130741009Y-53458809D02*
X130836247Y-53411190D01*
X130836247Y-53411190D02*
X131074342Y-53411190D01*
X131074342Y-53411190D02*
X131169580Y-53458809D01*
X131169580Y-53458809D02*
X131217200Y-53506428D01*
X131217200Y-53506428D02*
X131264819Y-53601666D01*
X131264819Y-53601666D02*
X131264819Y-53887380D01*
X131264819Y-53887380D02*
X131217200Y-53982618D01*
X131217200Y-53982618D02*
X131169580Y-54030237D01*
X130264819Y-53125475D02*
X131264819Y-52792142D01*
X131264819Y-52792142D02*
X130264819Y-52458809D01*
X130264819Y-52220713D02*
X130264819Y-51601666D01*
X130264819Y-51601666D02*
X130645771Y-51934999D01*
X130645771Y-51934999D02*
X130645771Y-51792142D01*
X130645771Y-51792142D02*
X130693390Y-51696904D01*
X130693390Y-51696904D02*
X130741009Y-51649285D01*
X130741009Y-51649285D02*
X130836247Y-51601666D01*
X130836247Y-51601666D02*
X131074342Y-51601666D01*
X131074342Y-51601666D02*
X131169580Y-51649285D01*
X131169580Y-51649285D02*
X131217200Y-51696904D01*
X131217200Y-51696904D02*
X131264819Y-51792142D01*
X131264819Y-51792142D02*
X131264819Y-52077856D01*
X131264819Y-52077856D02*
X131217200Y-52173094D01*
X131217200Y-52173094D02*
X131169580Y-52220713D01*
X131360057Y-51411190D02*
X131360057Y-50649285D01*
X130741009Y-50411189D02*
X130741009Y-50077856D01*
X131264819Y-49934999D02*
X131264819Y-50411189D01*
X131264819Y-50411189D02*
X130264819Y-50411189D01*
X130264819Y-50411189D02*
X130264819Y-49934999D01*
X131264819Y-49506427D02*
X130264819Y-49506427D01*
X130264819Y-49506427D02*
X131264819Y-48934999D01*
X131264819Y-48934999D02*
X130264819Y-48934999D01*
X130349819Y-47465951D02*
X130349819Y-46846904D01*
X130349819Y-46846904D02*
X130730771Y-47180237D01*
X130730771Y-47180237D02*
X130730771Y-47037380D01*
X130730771Y-47037380D02*
X130778390Y-46942142D01*
X130778390Y-46942142D02*
X130826009Y-46894523D01*
X130826009Y-46894523D02*
X130921247Y-46846904D01*
X130921247Y-46846904D02*
X131159342Y-46846904D01*
X131159342Y-46846904D02*
X131254580Y-46894523D01*
X131254580Y-46894523D02*
X131302200Y-46942142D01*
X131302200Y-46942142D02*
X131349819Y-47037380D01*
X131349819Y-47037380D02*
X131349819Y-47323094D01*
X131349819Y-47323094D02*
X131302200Y-47418332D01*
X131302200Y-47418332D02*
X131254580Y-47465951D01*
X130349819Y-46561189D02*
X131349819Y-46227856D01*
X131349819Y-46227856D02*
X130349819Y-45894523D01*
X130349819Y-45656427D02*
X130349819Y-45037380D01*
X130349819Y-45037380D02*
X130730771Y-45370713D01*
X130730771Y-45370713D02*
X130730771Y-45227856D01*
X130730771Y-45227856D02*
X130778390Y-45132618D01*
X130778390Y-45132618D02*
X130826009Y-45084999D01*
X130826009Y-45084999D02*
X130921247Y-45037380D01*
X130921247Y-45037380D02*
X131159342Y-45037380D01*
X131159342Y-45037380D02*
X131254580Y-45084999D01*
X131254580Y-45084999D02*
X131302200Y-45132618D01*
X131302200Y-45132618D02*
X131349819Y-45227856D01*
X131349819Y-45227856D02*
X131349819Y-45513570D01*
X131349819Y-45513570D02*
X131302200Y-45608808D01*
X131302200Y-45608808D02*
X131254580Y-45656427D01*
X131445057Y-44846904D02*
X131445057Y-44084999D01*
X131349819Y-43846903D02*
X130349819Y-43846903D01*
X131349819Y-43370713D02*
X130349819Y-43370713D01*
X130349819Y-43370713D02*
X131349819Y-42799285D01*
X131349819Y-42799285D02*
X130349819Y-42799285D01*
X124714048Y-50873866D02*
X125475953Y-50873866D01*
X125095000Y-51254819D02*
X125095000Y-50492914D01*
X120904048Y-50873866D02*
X121665953Y-50873866D01*
X141640112Y-76131009D02*
X141782969Y-76178628D01*
X141782969Y-76178628D02*
X141830588Y-76226247D01*
X141830588Y-76226247D02*
X141878207Y-76321485D01*
X141878207Y-76321485D02*
X141878207Y-76464342D01*
X141878207Y-76464342D02*
X141830588Y-76559580D01*
X141830588Y-76559580D02*
X141782969Y-76607200D01*
X141782969Y-76607200D02*
X141687731Y-76654819D01*
X141687731Y-76654819D02*
X141306779Y-76654819D01*
X141306779Y-76654819D02*
X141306779Y-75654819D01*
X141306779Y-75654819D02*
X141640112Y-75654819D01*
X141640112Y-75654819D02*
X141735350Y-75702438D01*
X141735350Y-75702438D02*
X141782969Y-75750057D01*
X141782969Y-75750057D02*
X141830588Y-75845295D01*
X141830588Y-75845295D02*
X141830588Y-75940533D01*
X141830588Y-75940533D02*
X141782969Y-76035771D01*
X141782969Y-76035771D02*
X141735350Y-76083390D01*
X141735350Y-76083390D02*
X141640112Y-76131009D01*
X141640112Y-76131009D02*
X141306779Y-76131009D01*
X142163922Y-75654819D02*
X142735350Y-75654819D01*
X142449636Y-76654819D02*
X142449636Y-75654819D01*
X142830589Y-76750057D02*
X143592493Y-76750057D01*
X144306779Y-76654819D02*
X143830589Y-76654819D01*
X143830589Y-76654819D02*
X143830589Y-75654819D01*
X144640113Y-76131009D02*
X144973446Y-76131009D01*
X145116303Y-76654819D02*
X144640113Y-76654819D01*
X144640113Y-76654819D02*
X144640113Y-75654819D01*
X144640113Y-75654819D02*
X145116303Y-75654819D01*
X145544875Y-76654819D02*
X145544875Y-75654819D01*
X145544875Y-75654819D02*
X145782970Y-75654819D01*
X145782970Y-75654819D02*
X145925827Y-75702438D01*
X145925827Y-75702438D02*
X146021065Y-75797676D01*
X146021065Y-75797676D02*
X146068684Y-75892914D01*
X146068684Y-75892914D02*
X146116303Y-76083390D01*
X146116303Y-76083390D02*
X146116303Y-76226247D01*
X146116303Y-76226247D02*
X146068684Y-76416723D01*
X146068684Y-76416723D02*
X146021065Y-76511961D01*
X146021065Y-76511961D02*
X145925827Y-76607200D01*
X145925827Y-76607200D02*
X145782970Y-76654819D01*
X145782970Y-76654819D02*
X145544875Y-76654819D01*
X147068684Y-76654819D02*
X146497256Y-76654819D01*
X146782970Y-76654819D02*
X146782970Y-75654819D01*
X146782970Y-75654819D02*
X146687732Y-75797676D01*
X146687732Y-75797676D02*
X146592494Y-75892914D01*
X146592494Y-75892914D02*
X146497256Y-75940533D01*
X141640112Y-83751009D02*
X141782969Y-83798628D01*
X141782969Y-83798628D02*
X141830588Y-83846247D01*
X141830588Y-83846247D02*
X141878207Y-83941485D01*
X141878207Y-83941485D02*
X141878207Y-84084342D01*
X141878207Y-84084342D02*
X141830588Y-84179580D01*
X141830588Y-84179580D02*
X141782969Y-84227200D01*
X141782969Y-84227200D02*
X141687731Y-84274819D01*
X141687731Y-84274819D02*
X141306779Y-84274819D01*
X141306779Y-84274819D02*
X141306779Y-83274819D01*
X141306779Y-83274819D02*
X141640112Y-83274819D01*
X141640112Y-83274819D02*
X141735350Y-83322438D01*
X141735350Y-83322438D02*
X141782969Y-83370057D01*
X141782969Y-83370057D02*
X141830588Y-83465295D01*
X141830588Y-83465295D02*
X141830588Y-83560533D01*
X141830588Y-83560533D02*
X141782969Y-83655771D01*
X141782969Y-83655771D02*
X141735350Y-83703390D01*
X141735350Y-83703390D02*
X141640112Y-83751009D01*
X141640112Y-83751009D02*
X141306779Y-83751009D01*
X142163922Y-83274819D02*
X142735350Y-83274819D01*
X142449636Y-84274819D02*
X142449636Y-83274819D01*
X142830589Y-84370057D02*
X143592493Y-84370057D01*
X144306779Y-84274819D02*
X143830589Y-84274819D01*
X143830589Y-84274819D02*
X143830589Y-83274819D01*
X144640113Y-83893866D02*
X145402018Y-83893866D01*
X145021065Y-84274819D02*
X145021065Y-83512914D01*
X117107029Y-62684819D02*
X116535601Y-62684819D01*
X116821315Y-62684819D02*
X116821315Y-61684819D01*
X116821315Y-61684819D02*
X116726077Y-61827676D01*
X116726077Y-61827676D02*
X116630839Y-61922914D01*
X116630839Y-61922914D02*
X116535601Y-61970533D01*
X117392744Y-61684819D02*
X117726077Y-62684819D01*
X117726077Y-62684819D02*
X118059410Y-61684819D01*
X118868934Y-61684819D02*
X118392744Y-61684819D01*
X118392744Y-61684819D02*
X118345125Y-62161009D01*
X118345125Y-62161009D02*
X118392744Y-62113390D01*
X118392744Y-62113390D02*
X118487982Y-62065771D01*
X118487982Y-62065771D02*
X118726077Y-62065771D01*
X118726077Y-62065771D02*
X118821315Y-62113390D01*
X118821315Y-62113390D02*
X118868934Y-62161009D01*
X118868934Y-62161009D02*
X118916553Y-62256247D01*
X118916553Y-62256247D02*
X118916553Y-62494342D01*
X118916553Y-62494342D02*
X118868934Y-62589580D01*
X118868934Y-62589580D02*
X118821315Y-62637200D01*
X118821315Y-62637200D02*
X118726077Y-62684819D01*
X118726077Y-62684819D02*
X118487982Y-62684819D01*
X118487982Y-62684819D02*
X118392744Y-62637200D01*
X118392744Y-62637200D02*
X118345125Y-62589580D01*
X119107030Y-62780057D02*
X119868934Y-62780057D01*
X120107030Y-62161009D02*
X120440363Y-62161009D01*
X120583220Y-62684819D02*
X120107030Y-62684819D01*
X120107030Y-62684819D02*
X120107030Y-61684819D01*
X120107030Y-61684819D02*
X120583220Y-61684819D01*
X121011792Y-62684819D02*
X121011792Y-61684819D01*
X121011792Y-61684819D02*
X121583220Y-62684819D01*
X121583220Y-62684819D02*
X121583220Y-61684819D01*
X104529048Y-43634819D02*
X104529048Y-42634819D01*
X104529048Y-42634819D02*
X104767143Y-42634819D01*
X104767143Y-42634819D02*
X104910000Y-42682438D01*
X104910000Y-42682438D02*
X105005238Y-42777676D01*
X105005238Y-42777676D02*
X105052857Y-42872914D01*
X105052857Y-42872914D02*
X105100476Y-43063390D01*
X105100476Y-43063390D02*
X105100476Y-43206247D01*
X105100476Y-43206247D02*
X105052857Y-43396723D01*
X105052857Y-43396723D02*
X105005238Y-43491961D01*
X105005238Y-43491961D02*
X104910000Y-43587200D01*
X104910000Y-43587200D02*
X104767143Y-43634819D01*
X104767143Y-43634819D02*
X104529048Y-43634819D01*
X105529048Y-43253866D02*
X106290953Y-43253866D01*
D13*
%TO.C,J2*%
X95884990Y-46227965D02*
X95884990Y-55371984D01*
X95884990Y-55371984D02*
X102152859Y-55371984D01*
X97440311Y-55371984D02*
X97440311Y-55744882D01*
X97479935Y-46227965D02*
X97479935Y-45856083D01*
X98636298Y-46227965D02*
X98636298Y-45853086D01*
X98650166Y-55371984D02*
X98650166Y-55748438D01*
X101975058Y-46227965D02*
X101975058Y-45846990D01*
X101975058Y-46227965D02*
X104775008Y-46227965D01*
X101975058Y-55371984D02*
X101975058Y-46227965D01*
X102102059Y-46227965D02*
X102102059Y-55371984D01*
X102152859Y-46227965D02*
X95884990Y-46227965D01*
X102152859Y-55371984D02*
X102152859Y-55743917D01*
X103268962Y-55371984D02*
X103268962Y-55753010D01*
X103352021Y-46227965D02*
X103352021Y-45846990D01*
X104775008Y-46227965D02*
X104775008Y-55371984D01*
X104775008Y-55371984D02*
X101975058Y-55371984D01*
D14*
X104426646Y-45074930D02*
G75*
G02*
X104366650Y-45074930I-29998J0D01*
G01*
X104366650Y-45074930D02*
G75*
G02*
X104426646Y-45074930I29998J0D01*
G01*
D15*
%TO.C,JP9*%
X129175000Y-76330000D02*
X129175000Y-73530000D01*
X129875000Y-72880000D02*
X130475000Y-72880000D01*
X130475000Y-76980000D02*
X129875000Y-76980000D01*
X131175000Y-73530000D02*
X131175000Y-76330000D01*
X131375000Y-76130000D02*
X131675000Y-75830000D01*
X131375000Y-76130000D02*
X131675000Y-76430000D01*
X131675000Y-76430000D02*
X131675000Y-75830000D01*
X129175000Y-73580000D02*
G75*
G02*
X129875000Y-72880000I700000J0D01*
G01*
X129875000Y-76980000D02*
G75*
G02*
X129175000Y-76280000I-1J699999D01*
G01*
X130475000Y-72880000D02*
G75*
G02*
X131175000Y-73580000I0J-700000D01*
G01*
X131175000Y-76280000D02*
G75*
G02*
X130475000Y-76980000I-699999J-1D01*
G01*
%TO.C,C5*%
X127535000Y-60586252D02*
X127535000Y-60063748D01*
X129005000Y-60586252D02*
X129005000Y-60063748D01*
%TO.C,T2*%
X124540000Y-79165000D02*
X124540000Y-79665000D01*
X124540000Y-79665000D02*
X124790000Y-79665000D01*
X124790000Y-75305000D02*
X124790000Y-76005000D01*
X124790000Y-77825000D02*
X124790000Y-81005000D01*
X124790000Y-79165000D02*
X124540000Y-79165000D01*
X124790000Y-83525000D02*
X124790000Y-82825000D01*
X135510000Y-75305000D02*
X124790000Y-75305000D01*
X135510000Y-76005000D02*
X135510000Y-75305000D01*
X135510000Y-77825000D02*
X135510000Y-81005000D01*
X135510000Y-78165000D02*
X135760000Y-78165000D01*
X135510000Y-82825000D02*
X135510000Y-83525000D01*
X135510000Y-83525000D02*
X124790000Y-83525000D01*
X135760000Y-78165000D02*
X135760000Y-80415000D01*
X135760000Y-80415000D02*
X135510000Y-80415000D01*
X124065400Y-83155000D02*
X123585400Y-83155000D01*
X123825400Y-82825000D01*
X124065400Y-83155000D01*
G36*
X124065400Y-83155000D02*
G01*
X123585400Y-83155000D01*
X123825400Y-82825000D01*
X124065400Y-83155000D01*
G37*
%TO.C,C18*%
X145676252Y-59590000D02*
X145153748Y-59590000D01*
X145676252Y-61060000D02*
X145153748Y-61060000D01*
%TO.C,C1*%
X119915000Y-65143748D02*
X119915000Y-65666252D01*
X121385000Y-65143748D02*
X121385000Y-65666252D01*
%TO.C,TP31*%
X149290000Y-57785000D02*
G75*
G02*
X147890000Y-57785000I-700000J0D01*
G01*
X147890000Y-57785000D02*
G75*
G02*
X149290000Y-57785000I700000J0D01*
G01*
%TO.C,R26*%
X140742936Y-67210000D02*
X141197064Y-67210000D01*
X140742936Y-68680000D02*
X141197064Y-68680000D01*
%TO.C,TP23*%
X149290000Y-67945000D02*
G75*
G02*
X147890000Y-67945000I-700000J0D01*
G01*
X147890000Y-67945000D02*
G75*
G02*
X149290000Y-67945000I700000J0D01*
G01*
%TO.C,TP29*%
X155640000Y-49530000D02*
G75*
G02*
X154240000Y-49530000I-700000J0D01*
G01*
X154240000Y-49530000D02*
G75*
G02*
X155640000Y-49530000I700000J0D01*
G01*
%TO.C,R25*%
X140742936Y-69750000D02*
X141197064Y-69750000D01*
X140742936Y-71220000D02*
X141197064Y-71220000D01*
%TO.C,R1*%
X135235000Y-49122064D02*
X135235000Y-48667936D01*
X136705000Y-49122064D02*
X136705000Y-48667936D01*
%TO.C,TP8*%
X126938000Y-58293000D02*
G75*
G02*
X125538000Y-58293000I-700000J0D01*
G01*
X125538000Y-58293000D02*
G75*
G02*
X126938000Y-58293000I700000J0D01*
G01*
%TO.C,R14*%
X98325000Y-65177936D02*
X98325000Y-65632064D01*
X99795000Y-65177936D02*
X99795000Y-65632064D01*
%TO.C,C12*%
X140788748Y-51970000D02*
X141311252Y-51970000D01*
X140788748Y-53440000D02*
X141311252Y-53440000D01*
%TO.C,R2*%
X117375000Y-65632064D02*
X117375000Y-65177936D01*
X118845000Y-65632064D02*
X118845000Y-65177936D01*
%TO.C,C6*%
X136171000Y-60586252D02*
X136171000Y-60063748D01*
X137641000Y-60586252D02*
X137641000Y-60063748D01*
%TO.C,R32*%
X108485000Y-78967064D02*
X108485000Y-78512936D01*
X109955000Y-78967064D02*
X109955000Y-78512936D01*
%TO.C,TP26*%
X149290000Y-60285000D02*
G75*
G02*
X147890000Y-60285000I-700000J0D01*
G01*
X147890000Y-60285000D02*
G75*
G02*
X149290000Y-60285000I700000J0D01*
G01*
%TO.C,TP33*%
X149290000Y-52705000D02*
G75*
G02*
X147890000Y-52705000I-700000J0D01*
G01*
X147890000Y-52705000D02*
G75*
G02*
X149290000Y-52705000I700000J0D01*
G01*
%TO.C,JP6*%
X104010000Y-61895000D02*
X104010000Y-61295000D01*
X104710000Y-60595000D02*
X106110000Y-60595000D01*
X106110000Y-62595000D02*
X104710000Y-62595000D01*
X106810000Y-61295000D02*
X106810000Y-61895000D01*
X104010000Y-61295000D02*
G75*
G02*
X104710000Y-60595000I700000J0D01*
G01*
X104710000Y-62595000D02*
G75*
G02*
X104010000Y-61895000I0J700000D01*
G01*
X106110000Y-60595000D02*
G75*
G02*
X106810000Y-61295000I1J-699999D01*
G01*
X106810000Y-61895000D02*
G75*
G02*
X106110000Y-62595000I-699999J-1D01*
G01*
%TO.C,R3*%
X116105000Y-74522064D02*
X116105000Y-74067936D01*
X117575000Y-74522064D02*
X117575000Y-74067936D01*
%TO.C,Q1*%
X114365000Y-64245000D02*
X112965000Y-64245000D01*
X114375000Y-66565000D02*
X112965000Y-66565000D01*
X114985000Y-66845000D02*
X114505000Y-66845000D01*
X114745000Y-66515000D01*
X114985000Y-66845000D01*
G36*
X114985000Y-66845000D02*
G01*
X114505000Y-66845000D01*
X114745000Y-66515000D01*
X114985000Y-66845000D01*
G37*
%TO.C,C20*%
X159011252Y-48795000D02*
X158488748Y-48795000D01*
X159011252Y-50265000D02*
X158488748Y-50265000D01*
%TO.C,TP12*%
X99760000Y-69850000D02*
G75*
G02*
X98360000Y-69850000I-700000J0D01*
G01*
X98360000Y-69850000D02*
G75*
G02*
X99760000Y-69850000I700000J0D01*
G01*
%TO.C,R19*%
X111987064Y-55780000D02*
X111532936Y-55780000D01*
X111987064Y-57250000D02*
X111532936Y-57250000D01*
%TO.C,U1*%
X113565000Y-71460000D02*
X112765000Y-71460000D01*
X113565000Y-71460000D02*
X114365000Y-71460000D01*
X114565000Y-68240000D02*
X112765000Y-68240000D01*
X115105000Y-71715000D02*
X114625000Y-71715000D01*
X114865000Y-71385000D01*
X115105000Y-71715000D01*
G36*
X115105000Y-71715000D02*
G01*
X114625000Y-71715000D01*
X114865000Y-71385000D01*
X115105000Y-71715000D01*
G37*
%TO.C,U5*%
D10*
X162845000Y-72730000D02*
X150845000Y-72730000D01*
X150845000Y-51730000D01*
X162845000Y-51730000D01*
X162845000Y-72730000D01*
D15*
%TO.C,TP17*%
X115635000Y-82550000D02*
G75*
G02*
X114235000Y-82550000I-700000J0D01*
G01*
X114235000Y-82550000D02*
G75*
G02*
X115635000Y-82550000I700000J0D01*
G01*
%TO.C,TP18*%
X118175000Y-82550000D02*
G75*
G02*
X116775000Y-82550000I-700000J0D01*
G01*
X116775000Y-82550000D02*
G75*
G02*
X118175000Y-82550000I700000J0D01*
G01*
%TO.C,U3*%
X132903000Y-58390000D02*
X131903000Y-58390000D01*
X132903000Y-58390000D02*
X132903000Y-59390000D01*
X132678000Y-58565000D02*
X129958000Y-58565000D01*
X129958000Y-62085000D01*
X132678000Y-62085000D01*
X132678000Y-58565000D01*
%TO.C,U2*%
X119280000Y-56855000D02*
X118480000Y-56855000D01*
X119280000Y-56855000D02*
X120080000Y-56855000D01*
X120280000Y-53635000D02*
X118480000Y-53635000D01*
X120820000Y-57135000D02*
X120340000Y-57135000D01*
X120580000Y-56805000D01*
X120820000Y-57135000D01*
G36*
X120820000Y-57135000D02*
G01*
X120340000Y-57135000D01*
X120580000Y-56805000D01*
X120820000Y-57135000D01*
G37*
%TO.C,Q5*%
X122880000Y-53215000D02*
X123810000Y-53215000D01*
X122880000Y-54015000D02*
X122880000Y-53215000D01*
X122880000Y-54015000D02*
X122880000Y-54815000D01*
X126040000Y-53215000D02*
X125110000Y-53215000D01*
X126040000Y-53215000D02*
X126040000Y-54675000D01*
X122850000Y-55315000D02*
X122520000Y-55555000D01*
X122520000Y-55075000D01*
X122850000Y-55315000D01*
G36*
X122850000Y-55315000D02*
G01*
X122520000Y-55555000D01*
X122520000Y-55075000D01*
X122850000Y-55315000D01*
G37*
%TO.C,U4*%
X139515000Y-50505000D02*
X141315000Y-50505000D01*
X140515000Y-47285000D02*
X139715000Y-47285000D01*
X140515000Y-47285000D02*
X141315000Y-47285000D01*
X139215000Y-47335000D02*
X138975000Y-47005000D01*
X139455000Y-47005000D01*
X139215000Y-47335000D01*
G36*
X139215000Y-47335000D02*
G01*
X138975000Y-47005000D01*
X139455000Y-47005000D01*
X139215000Y-47335000D01*
G37*
%TO.C,R30*%
X145187936Y-57050000D02*
X145642064Y-57050000D01*
X145187936Y-58520000D02*
X145642064Y-58520000D01*
%TO.C,TP10*%
X145560000Y-45085000D02*
G75*
G02*
X144160000Y-45085000I-700000J0D01*
G01*
X144160000Y-45085000D02*
G75*
G02*
X145560000Y-45085000I700000J0D01*
G01*
%TO.C,R28*%
X140742936Y-62130000D02*
X141197064Y-62130000D01*
X140742936Y-63600000D02*
X141197064Y-63600000D01*
%TO.C,TP16*%
X120715000Y-82550000D02*
G75*
G02*
X119315000Y-82550000I-700000J0D01*
G01*
X119315000Y-82550000D02*
G75*
G02*
X120715000Y-82550000I700000J0D01*
G01*
%TO.C,R13*%
X108485000Y-65177936D02*
X108485000Y-65632064D01*
X109955000Y-65177936D02*
X109955000Y-65632064D01*
%TO.C,C13*%
X144760000Y-48633748D02*
X144760000Y-49156252D01*
X146230000Y-48633748D02*
X146230000Y-49156252D01*
%TO.C,TP15*%
X106110000Y-82550000D02*
G75*
G02*
X104710000Y-82550000I-700000J0D01*
G01*
X104710000Y-82550000D02*
G75*
G02*
X106110000Y-82550000I700000J0D01*
G01*
%TO.C,TP21*%
X103570000Y-82550000D02*
G75*
G02*
X102170000Y-82550000I-700000J0D01*
G01*
X102170000Y-82550000D02*
G75*
G02*
X103570000Y-82550000I700000J0D01*
G01*
%TO.C,Q3*%
X106110000Y-68690000D02*
X104710000Y-68690000D01*
X106120000Y-71010000D02*
X104710000Y-71010000D01*
X106730000Y-71290000D02*
X106250000Y-71290000D01*
X106490000Y-70960000D01*
X106730000Y-71290000D01*
G36*
X106730000Y-71290000D02*
G01*
X106250000Y-71290000D01*
X106490000Y-70960000D01*
X106730000Y-71290000D01*
G37*
%TO.C,JP8*%
X128775000Y-68880000D02*
X128775000Y-68280000D01*
X129475000Y-67580000D02*
X130875000Y-67580000D01*
X130875000Y-69580000D02*
X129475000Y-69580000D01*
X131575000Y-68280000D02*
X131575000Y-68880000D01*
X128775000Y-68280000D02*
G75*
G02*
X129475000Y-67580000I699999J1D01*
G01*
X129475000Y-69580000D02*
G75*
G02*
X128775000Y-68880000I-1J699999D01*
G01*
X130875000Y-67580000D02*
G75*
G02*
X131575000Y-68280000I0J-700000D01*
G01*
X131575000Y-68880000D02*
G75*
G02*
X130875000Y-69580000I-700000J0D01*
G01*
%TO.C,R7*%
X100865000Y-74522064D02*
X100865000Y-74067936D01*
X102335000Y-74522064D02*
X102335000Y-74067936D01*
%TO.C,C11*%
X136866252Y-51970000D02*
X136343748Y-51970000D01*
X136866252Y-53440000D02*
X136343748Y-53440000D01*
%TO.C,TP20*%
X108650000Y-82550000D02*
G75*
G02*
X107250000Y-82550000I-700000J0D01*
G01*
X107250000Y-82550000D02*
G75*
G02*
X108650000Y-82550000I700000J0D01*
G01*
%TO.C,R12*%
X100865000Y-65632064D02*
X100865000Y-65177936D01*
X102335000Y-65632064D02*
X102335000Y-65177936D01*
%TO.C,C7*%
X131433835Y-56917000D02*
X131202165Y-56917000D01*
X131433835Y-57637000D02*
X131202165Y-57637000D01*
%TO.C,TP7*%
X128970000Y-49530000D02*
G75*
G02*
X127570000Y-49530000I-700000J0D01*
G01*
X127570000Y-49530000D02*
G75*
G02*
X128970000Y-49530000I700000J0D01*
G01*
%TO.C,TP9*%
X134891000Y-57018000D02*
G75*
G02*
X133491000Y-57018000I-700000J0D01*
G01*
X133491000Y-57018000D02*
G75*
G02*
X134891000Y-57018000I700000J0D01*
G01*
%TO.C,JP11*%
X152890000Y-75865000D02*
X152890000Y-75265000D01*
X153590000Y-74565000D02*
X154990000Y-74565000D01*
X154990000Y-76565000D02*
X153590000Y-76565000D01*
X155690000Y-75265000D02*
X155690000Y-75865000D01*
X152890000Y-75265000D02*
G75*
G02*
X153590000Y-74565000I699999J1D01*
G01*
X153590000Y-76565000D02*
G75*
G02*
X152890000Y-75865000I-1J699999D01*
G01*
X154990000Y-74565000D02*
G75*
G02*
X155690000Y-75265000I0J-700000D01*
G01*
X155690000Y-75865000D02*
G75*
G02*
X154990000Y-76565000I-700000J0D01*
G01*
%TO.C,R20*%
X114835000Y-51662064D02*
X114835000Y-51207936D01*
X116305000Y-51662064D02*
X116305000Y-51207936D01*
%TO.C,TP27*%
X165800000Y-64135000D02*
G75*
G02*
X164400000Y-64135000I-700000J0D01*
G01*
X164400000Y-64135000D02*
G75*
G02*
X165800000Y-64135000I700000J0D01*
G01*
%TO.C,C3*%
X114835000Y-46093748D02*
X114835000Y-46616252D01*
X116305000Y-46093748D02*
X116305000Y-46616252D01*
%TO.C,TP24*%
X149290000Y-65405000D02*
G75*
G02*
X147890000Y-65405000I-700000J0D01*
G01*
X147890000Y-65405000D02*
G75*
G02*
X149290000Y-65405000I700000J0D01*
G01*
%TO.C,R27*%
X140742936Y-64670000D02*
X141197064Y-64670000D01*
X140742936Y-66140000D02*
X141197064Y-66140000D01*
%TO.C,TP11*%
X145560000Y-52705000D02*
G75*
G02*
X144160000Y-52705000I-700000J0D01*
G01*
X144160000Y-52705000D02*
G75*
G02*
X145560000Y-52705000I700000J0D01*
G01*
%TO.C,JP1*%
X123822000Y-61133000D02*
X123822000Y-60533000D01*
X124522000Y-59833000D02*
X125922000Y-59833000D01*
X125922000Y-61833000D02*
X124522000Y-61833000D01*
X126622000Y-60533000D02*
X126622000Y-61133000D01*
X123822000Y-60533000D02*
G75*
G02*
X124522000Y-59833000I699999J1D01*
G01*
X124522000Y-61833000D02*
G75*
G02*
X123822000Y-61133000I-1J699999D01*
G01*
X125922000Y-59833000D02*
G75*
G02*
X126622000Y-60533000I0J-700000D01*
G01*
X126622000Y-61133000D02*
G75*
G02*
X125922000Y-61833000I-700000J0D01*
G01*
%TO.C,TP3*%
X109920000Y-61595000D02*
G75*
G02*
X108520000Y-61595000I-700000J0D01*
G01*
X108520000Y-61595000D02*
G75*
G02*
X109920000Y-61595000I700000J0D01*
G01*
%TO.C,R15*%
X107215000Y-55255936D02*
X107215000Y-55710064D01*
X108685000Y-55255936D02*
X108685000Y-55710064D01*
%TO.C,TP19*%
X99760000Y-74295000D02*
G75*
G02*
X98360000Y-74295000I-700000J0D01*
G01*
X98360000Y-74295000D02*
G75*
G02*
X99760000Y-74295000I700000J0D01*
G01*
%TO.C,R33*%
X100865000Y-78967064D02*
X100865000Y-78512936D01*
X102335000Y-78967064D02*
X102335000Y-78512936D01*
%TO.C,TP25*%
X149290000Y-62865000D02*
G75*
G02*
X147890000Y-62865000I-700000J0D01*
G01*
X147890000Y-62865000D02*
G75*
G02*
X149290000Y-62865000I700000J0D01*
G01*
%TO.C,LED4*%
X139970000Y-58745000D02*
X142830000Y-58745000D01*
X142830000Y-56825000D02*
X139970000Y-56825000D01*
X142830000Y-58745000D02*
X142830000Y-56825000D01*
%TO.C,R9*%
X108485000Y-74522064D02*
X108485000Y-74067936D01*
X109955000Y-74522064D02*
X109955000Y-74067936D01*
%TO.C,C8*%
X133631000Y-60063748D02*
X133631000Y-60586252D01*
X135101000Y-60063748D02*
X135101000Y-60586252D01*
%TO.C,JP7*%
X99330000Y-59755000D02*
X99330000Y-58355000D01*
X100030000Y-57655000D02*
X100630000Y-57655000D01*
X100630000Y-60455000D02*
X100030000Y-60455000D01*
X101330000Y-58355000D02*
X101330000Y-59755000D01*
X99330000Y-58355000D02*
G75*
G02*
X100030000Y-57655000I699999J1D01*
G01*
X100030000Y-60455000D02*
G75*
G02*
X99330000Y-59755000I0J700000D01*
G01*
X100630000Y-57655000D02*
G75*
G02*
X101330000Y-58355000I1J-699999D01*
G01*
X101330000Y-59755000D02*
G75*
G02*
X100630000Y-60455000I-700000J0D01*
G01*
%TO.C,R29*%
X145642064Y-54510000D02*
X145187936Y-54510000D01*
X145642064Y-55980000D02*
X145187936Y-55980000D01*
%TO.C,R18*%
X112295000Y-46127936D02*
X112295000Y-46582064D01*
X113765000Y-46127936D02*
X113765000Y-46582064D01*
%TO.C,C17*%
X145153748Y-62130000D02*
X145676252Y-62130000D01*
X145153748Y-63600000D02*
X145676252Y-63600000D01*
%TO.C,C2*%
X113565000Y-74033748D02*
X113565000Y-74556252D01*
X115035000Y-74033748D02*
X115035000Y-74556252D01*
%TO.C,T1*%
X124540000Y-69525000D02*
X124790000Y-69525000D01*
X124540000Y-71775000D02*
X124540000Y-69525000D01*
X124790000Y-66415000D02*
X135510000Y-66415000D01*
X124790000Y-67115000D02*
X124790000Y-66415000D01*
X124790000Y-71775000D02*
X124540000Y-71775000D01*
X124790000Y-72115000D02*
X124790000Y-68935000D01*
X124790000Y-73935000D02*
X124790000Y-74635000D01*
X124790000Y-74635000D02*
X135510000Y-74635000D01*
X135510000Y-66415000D02*
X135510000Y-67115000D01*
X135510000Y-70775000D02*
X135760000Y-70775000D01*
X135510000Y-72115000D02*
X135510000Y-68935000D01*
X135510000Y-74635000D02*
X135510000Y-73935000D01*
X135760000Y-70275000D02*
X135510000Y-70275000D01*
X135760000Y-70775000D02*
X135760000Y-70275000D01*
X136474600Y-67115000D02*
X136234600Y-66785000D01*
X136714600Y-66785000D01*
X136474600Y-67115000D01*
G36*
X136474600Y-67115000D02*
G01*
X136234600Y-66785000D01*
X136714600Y-66785000D01*
X136474600Y-67115000D01*
G37*
%TO.C,D1*%
X128335000Y-44705000D02*
X121325000Y-44705000D01*
X128335000Y-48005000D02*
X121325000Y-48005000D01*
X128335000Y-48005000D02*
X128335000Y-44705000D01*
%TO.C,C10*%
X136343748Y-44350000D02*
X136866252Y-44350000D01*
X136343748Y-45820000D02*
X136866252Y-45820000D01*
%TO.C,TP28*%
X165800000Y-54610000D02*
G75*
G02*
X164400000Y-54610000I-700000J0D01*
G01*
X164400000Y-54610000D02*
G75*
G02*
X165800000Y-54610000I700000J0D01*
G01*
%TO.C,C9*%
X140788748Y-44350000D02*
X141311252Y-44350000D01*
X140788748Y-45820000D02*
X141311252Y-45820000D01*
%TO.C,TP2*%
X108650000Y-52070000D02*
G75*
G02*
X107250000Y-52070000I-700000J0D01*
G01*
X107250000Y-52070000D02*
G75*
G02*
X108650000Y-52070000I700000J0D01*
G01*
%TO.C,JP12*%
X139443000Y-60585000D02*
X139443000Y-59985000D01*
X140143000Y-59285000D02*
X141543000Y-59285000D01*
X141543000Y-61285000D02*
X140143000Y-61285000D01*
X142243000Y-59985000D02*
X142243000Y-60585000D01*
X139443000Y-59985000D02*
G75*
G02*
X140143000Y-59285000I699999J1D01*
G01*
X140143000Y-61285000D02*
G75*
G02*
X139443000Y-60585000I-1J699999D01*
G01*
X141543000Y-59285000D02*
G75*
G02*
X142243000Y-59985000I0J-700000D01*
G01*
X142243000Y-60585000D02*
G75*
G02*
X141543000Y-61285000I-700000J0D01*
G01*
%TO.C,C15*%
X145153748Y-67210000D02*
X145676252Y-67210000D01*
X145153748Y-68680000D02*
X145676252Y-68680000D01*
%TO.C,R4*%
X119915000Y-70077064D02*
X119915000Y-69622936D01*
X121385000Y-70077064D02*
X121385000Y-69622936D01*
%TO.C,LED3*%
X139970000Y-56205000D02*
X142830000Y-56205000D01*
X142830000Y-54285000D02*
X139970000Y-54285000D01*
X142830000Y-56205000D02*
X142830000Y-54285000D01*
%TO.C,JP5*%
X126728000Y-64181000D02*
X126728000Y-63581000D01*
X127278000Y-65381000D02*
X127878000Y-65381000D01*
X127378000Y-62881000D02*
X130178000Y-62881000D01*
X127578000Y-65081000D02*
X127278000Y-65381000D01*
X127578000Y-65081000D02*
X127878000Y-65381000D01*
X130178000Y-64881000D02*
X127378000Y-64881000D01*
X130828000Y-63581000D02*
X130828000Y-64181000D01*
X126728000Y-63581000D02*
G75*
G02*
X127428000Y-62881000I699999J1D01*
G01*
X127428000Y-64881000D02*
G75*
G02*
X126728000Y-64181000I-1J699999D01*
G01*
X130128000Y-62881000D02*
G75*
G02*
X130828000Y-63581000I0J-700000D01*
G01*
X130828000Y-64181000D02*
G75*
G02*
X130128000Y-64881000I-700000J0D01*
G01*
%TO.C,TP13*%
X99760000Y-82550000D02*
G75*
G02*
X98360000Y-82550000I-700000J0D01*
G01*
X98360000Y-82550000D02*
G75*
G02*
X99760000Y-82550000I700000J0D01*
G01*
%TO.C,R22*%
X129513064Y-54251000D02*
X129058936Y-54251000D01*
X129513064Y-55721000D02*
X129058936Y-55721000D01*
%TO.C,R10*%
X108485000Y-70077064D02*
X108485000Y-69622936D01*
X109955000Y-70077064D02*
X109955000Y-69622936D01*
%TO.C,LED1*%
X109530000Y-49800000D02*
X109530000Y-52660000D01*
X109530000Y-52660000D02*
X111450000Y-52660000D01*
X111450000Y-52660000D02*
X111450000Y-49800000D01*
%TO.C,TP4*%
X118810000Y-46355000D02*
G75*
G02*
X117410000Y-46355000I-700000J0D01*
G01*
X117410000Y-46355000D02*
G75*
G02*
X118810000Y-46355000I700000J0D01*
G01*
%TO.C,TP32*%
X153100000Y-49530000D02*
G75*
G02*
X151700000Y-49530000I-700000J0D01*
G01*
X151700000Y-49530000D02*
G75*
G02*
X153100000Y-49530000I700000J0D01*
G01*
%TO.C,JP4*%
X131795000Y-52200000D02*
X131795000Y-49400000D01*
X132495000Y-48750000D02*
X133095000Y-48750000D01*
X133095000Y-52850000D02*
X132495000Y-52850000D01*
X133795000Y-49400000D02*
X133795000Y-52200000D01*
X133995000Y-52000000D02*
X134295000Y-51700000D01*
X133995000Y-52000000D02*
X134295000Y-52300000D01*
X134295000Y-52300000D02*
X134295000Y-51700000D01*
X131795000Y-49450000D02*
G75*
G02*
X132495000Y-48750000I700000J0D01*
G01*
X132495000Y-52850000D02*
G75*
G02*
X131795000Y-52150000I-1J699999D01*
G01*
X133095000Y-48750000D02*
G75*
G02*
X133795000Y-49450000I0J-700000D01*
G01*
X133795000Y-52150000D02*
G75*
G02*
X133095000Y-52850000I-699999J-1D01*
G01*
%TO.C,JP2*%
X131795000Y-47055000D02*
X131795000Y-45655000D01*
X132495000Y-44955000D02*
X133095000Y-44955000D01*
X133095000Y-47755000D02*
X132495000Y-47755000D01*
X133795000Y-45655000D02*
X133795000Y-47055000D01*
X131795000Y-45655000D02*
G75*
G02*
X132495000Y-44955000I699999J1D01*
G01*
X132495000Y-47755000D02*
G75*
G02*
X131795000Y-47055000I0J700000D01*
G01*
X133095000Y-44955000D02*
G75*
G02*
X133795000Y-45655000I1J-699999D01*
G01*
X133795000Y-47055000D02*
G75*
G02*
X133095000Y-47755000I-700000J0D01*
G01*
%TO.C,Y1*%
X157250000Y-74860000D02*
X157450000Y-74660000D01*
X157250000Y-75460000D02*
X156750000Y-75460000D01*
X157250000Y-75460000D02*
X157250000Y-74860000D01*
X157250000Y-76860000D02*
X156750000Y-76860000D01*
X157250000Y-77660000D02*
X157250000Y-76860000D01*
X157450000Y-77660000D02*
X157250000Y-77660000D01*
X160050000Y-74660000D02*
X160250000Y-74660000D01*
X160250000Y-74660000D02*
X160250000Y-75460000D01*
X160250000Y-76860000D02*
X160250000Y-77660000D01*
X160250000Y-77660000D02*
X160050000Y-77660000D01*
%TO.C,TP5*%
X125160000Y-49530000D02*
G75*
G02*
X123760000Y-49530000I-700000J0D01*
G01*
X123760000Y-49530000D02*
G75*
G02*
X125160000Y-49530000I700000J0D01*
G01*
%TO.C,C16*%
X145153748Y-64670000D02*
X145676252Y-64670000D01*
X145153748Y-66140000D02*
X145676252Y-66140000D01*
%TO.C,R17*%
X109755000Y-46127936D02*
X109755000Y-46582064D01*
X111225000Y-46127936D02*
X111225000Y-46582064D01*
%TO.C,LED2*%
X112070000Y-49800000D02*
X112070000Y-52660000D01*
X112070000Y-52660000D02*
X113990000Y-52660000D01*
X113990000Y-52660000D02*
X113990000Y-49800000D01*
%TO.C,TP6*%
X122620000Y-49530000D02*
G75*
G02*
X121220000Y-49530000I-700000J0D01*
G01*
X121220000Y-49530000D02*
G75*
G02*
X122620000Y-49530000I700000J0D01*
G01*
%TO.C,TP30*%
X149290000Y-55245000D02*
G75*
G02*
X147890000Y-55245000I-700000J0D01*
G01*
X147890000Y-55245000D02*
G75*
G02*
X149290000Y-55245000I700000J0D01*
G01*
%TO.C,C19*%
X164365000Y-60586252D02*
X164365000Y-60063748D01*
X165835000Y-60586252D02*
X165835000Y-60063748D01*
%TO.C,JP10*%
X128760000Y-81580000D02*
X128760000Y-80980000D01*
X129460000Y-80280000D02*
X130860000Y-80280000D01*
X130860000Y-82280000D02*
X129460000Y-82280000D01*
X131560000Y-80980000D02*
X131560000Y-81580000D01*
X128760000Y-80980000D02*
G75*
G02*
X129460000Y-80280000I699999J1D01*
G01*
X129460000Y-82280000D02*
G75*
G02*
X128760000Y-81580000I-1J699999D01*
G01*
X130860000Y-80280000D02*
G75*
G02*
X131560000Y-80980000I0J-700000D01*
G01*
X131560000Y-81580000D02*
G75*
G02*
X130860000Y-82280000I-700000J0D01*
G01*
%TO.C,R21*%
X133577064Y-54251000D02*
X133122936Y-54251000D01*
X133577064Y-55721000D02*
X133122936Y-55721000D01*
%TO.C,TP22*%
X149290000Y-70485000D02*
G75*
G02*
X147890000Y-70485000I-700000J0D01*
G01*
X147890000Y-70485000D02*
G75*
G02*
X149290000Y-70485000I700000J0D01*
G01*
%TO.C,C4*%
X118645000Y-50426252D02*
X118645000Y-49903748D01*
X120115000Y-50426252D02*
X120115000Y-49903748D01*
%TO.C,C14*%
X145153748Y-69750000D02*
X145676252Y-69750000D01*
X145153748Y-71220000D02*
X145676252Y-71220000D01*
%TO.C,R5*%
X117375000Y-69622936D02*
X117375000Y-70077064D01*
X118845000Y-69622936D02*
X118845000Y-70077064D01*
%TO.C,Q2*%
X106110000Y-73135000D02*
X104710000Y-73135000D01*
X106120000Y-75455000D02*
X104710000Y-75455000D01*
X106730000Y-75735000D02*
X106250000Y-75735000D01*
X106490000Y-75405000D01*
X106730000Y-75735000D01*
G36*
X106730000Y-75735000D02*
G01*
X106250000Y-75735000D01*
X106490000Y-75405000D01*
X106730000Y-75735000D01*
G37*
%TO.C,JP3*%
X131808000Y-64181000D02*
X131808000Y-63581000D01*
X132458000Y-62881000D02*
X135258000Y-62881000D01*
X135058000Y-62681000D02*
X134758000Y-62381000D01*
X135058000Y-62681000D02*
X135358000Y-62381000D01*
X135258000Y-64881000D02*
X132458000Y-64881000D01*
X135358000Y-62381000D02*
X134758000Y-62381000D01*
X135908000Y-63581000D02*
X135908000Y-64181000D01*
X131808000Y-63581000D02*
G75*
G02*
X132508000Y-62881000I700000J0D01*
G01*
X132508000Y-64881000D02*
G75*
G02*
X131808000Y-64181000I0J700000D01*
G01*
X135208000Y-62881000D02*
G75*
G02*
X135908000Y-63581000I1J-699999D01*
G01*
X135908000Y-64181000D02*
G75*
G02*
X135208000Y-64881000I-699999J-1D01*
G01*
%TO.C,TP1*%
X108650000Y-49530000D02*
G75*
G02*
X107250000Y-49530000I-700000J0D01*
G01*
X107250000Y-49530000D02*
G75*
G02*
X108650000Y-49530000I700000J0D01*
G01*
%TO.C,Q6*%
X106110000Y-77580000D02*
X104710000Y-77580000D01*
X106120000Y-79900000D02*
X104710000Y-79900000D01*
X106730000Y-80180000D02*
X106250000Y-80180000D01*
X106490000Y-79850000D01*
X106730000Y-80180000D01*
G36*
X106730000Y-80180000D02*
G01*
X106250000Y-80180000D01*
X106490000Y-79850000D01*
X106730000Y-80180000D01*
G37*
%TO.C,Q4*%
X106110000Y-64245000D02*
X104710000Y-64245000D01*
X106120000Y-66565000D02*
X104710000Y-66565000D01*
X106730000Y-66845000D02*
X106250000Y-66845000D01*
X106490000Y-66515000D01*
X106730000Y-66845000D01*
G36*
X106730000Y-66845000D02*
G01*
X106250000Y-66845000D01*
X106490000Y-66515000D01*
X106730000Y-66845000D01*
G37*
%TO.C,R8*%
X111025000Y-74522064D02*
X111025000Y-74067936D01*
X112495000Y-74522064D02*
X112495000Y-74067936D01*
%TO.C,R31*%
X98325000Y-78967064D02*
X98325000Y-78512936D01*
X99795000Y-78967064D02*
X99795000Y-78512936D01*
%TO.C,R11*%
X100865000Y-70077064D02*
X100865000Y-69622936D01*
X102335000Y-70077064D02*
X102335000Y-69622936D01*
%TO.C,R16*%
X107215000Y-46582064D02*
X107215000Y-46127936D01*
X108685000Y-46582064D02*
X108685000Y-46127936D01*
%TD*%
%LPC*%
D16*
%TO.C,J2*%
X102704903Y-47049936D03*
X102704903Y-54550064D03*
D17*
X103905056Y-47599848D03*
X103905056Y-48349911D03*
D18*
X103905056Y-49551080D03*
X103905056Y-50549301D03*
X103905056Y-51049682D03*
X103905056Y-52050445D03*
D17*
X103905056Y-53999898D03*
X103905056Y-53250089D03*
D18*
X103905056Y-52550064D03*
X103905056Y-51550064D03*
X103905056Y-50048920D03*
X103905056Y-49050699D03*
D19*
X102625147Y-45224943D03*
X98024944Y-45224943D03*
X102625147Y-56375057D03*
X98024944Y-56375057D03*
%TD*%
D20*
%TO.C,JP9*%
X130175000Y-76230000D03*
D21*
X130175000Y-74930000D03*
D22*
X130175000Y-73630000D03*
%TD*%
D23*
%TO.C,C5*%
X128270000Y-61362500D03*
X128270000Y-59287500D03*
%TD*%
D24*
%TO.C,T2*%
X123825000Y-81915000D03*
X123825000Y-76915000D03*
X136475000Y-76915000D03*
X136475000Y-81915000D03*
%TD*%
D25*
%TO.C,C18*%
X146452500Y-60325000D03*
X144377500Y-60325000D03*
%TD*%
D26*
%TO.C,C1*%
X120650000Y-64367500D03*
X120650000Y-66442500D03*
%TD*%
D27*
%TO.C,TP31*%
X148590000Y-57785000D03*
%TD*%
D28*
%TO.C,R26*%
X139970000Y-67945000D03*
X141970000Y-67945000D03*
%TD*%
D27*
%TO.C,TP23*%
X148590000Y-67945000D03*
%TD*%
%TO.C,TP29*%
X154940000Y-49530000D03*
%TD*%
D28*
%TO.C,R25*%
X139970000Y-70485000D03*
X141970000Y-70485000D03*
%TD*%
D29*
%TO.C,R1*%
X135970000Y-49895000D03*
X135970000Y-47895000D03*
%TD*%
D27*
%TO.C,TP8*%
X126238000Y-58293000D03*
%TD*%
D30*
%TO.C,R14*%
X99060000Y-64405000D03*
X99060000Y-66405000D03*
%TD*%
D31*
%TO.C,C12*%
X140012500Y-52705000D03*
X142087500Y-52705000D03*
%TD*%
D29*
%TO.C,R2*%
X118110000Y-66405000D03*
X118110000Y-64405000D03*
%TD*%
D23*
%TO.C,C6*%
X136906000Y-61362500D03*
X136906000Y-59287500D03*
%TD*%
D29*
%TO.C,R32*%
X109220000Y-79740000D03*
X109220000Y-77740000D03*
%TD*%
D27*
%TO.C,TP26*%
X148590000Y-60285000D03*
%TD*%
%TO.C,TP33*%
X148590000Y-52705000D03*
%TD*%
D32*
%TO.C,JP6*%
X106060000Y-61595000D03*
D33*
X104760000Y-61595000D03*
%TD*%
D29*
%TO.C,R3*%
X116840000Y-75295000D03*
X116840000Y-73295000D03*
%TD*%
D34*
%TO.C,Q1*%
X114995000Y-66055000D03*
X114995000Y-65405000D03*
X114995000Y-64755000D03*
X112335000Y-64755000D03*
X112335000Y-65405000D03*
X112335000Y-66055000D03*
%TD*%
D25*
%TO.C,C20*%
X159787500Y-49530000D03*
X157712500Y-49530000D03*
%TD*%
D27*
%TO.C,TP12*%
X99060000Y-69850000D03*
%TD*%
D35*
%TO.C,R19*%
X112760000Y-56515000D03*
X110760000Y-56515000D03*
%TD*%
D36*
%TO.C,U1*%
X115015000Y-70830000D03*
X115015000Y-70180000D03*
X115015000Y-69520000D03*
X115015000Y-68870000D03*
X112315000Y-68870000D03*
X112315000Y-69520000D03*
X112315000Y-70180000D03*
X112315000Y-70830000D03*
%TD*%
D37*
%TO.C,U5*%
X162845000Y-71230000D03*
X162845000Y-61230000D03*
X162845000Y-60230000D03*
D38*
X154845000Y-51730000D03*
X153845000Y-51730000D03*
X152845000Y-51730000D03*
X151845000Y-51730000D03*
D39*
X150845000Y-53230000D03*
X150845000Y-54230000D03*
X150845000Y-55230000D03*
X150845000Y-56230000D03*
X150845000Y-57230000D03*
X150845000Y-58230000D03*
X150845000Y-59230000D03*
X150845000Y-60230000D03*
X150845000Y-61230000D03*
X150845000Y-62230000D03*
X150845000Y-63230000D03*
X150845000Y-65230000D03*
X150845000Y-66230000D03*
X150845000Y-67230000D03*
X150845000Y-68230000D03*
D40*
X154845000Y-72730000D03*
X155845000Y-72730000D03*
X156845000Y-72730000D03*
%TD*%
D27*
%TO.C,TP17*%
X114935000Y-82550000D03*
%TD*%
%TO.C,TP18*%
X117475000Y-82550000D03*
%TD*%
D41*
%TO.C,U3*%
X132143000Y-59050000D03*
D42*
X131318000Y-59050000D03*
D41*
X130493000Y-59050000D03*
X130493000Y-61600000D03*
D42*
X131318000Y-61600000D03*
D41*
X132143000Y-61600000D03*
D43*
X131318000Y-60325000D03*
%TD*%
D44*
%TO.C,U2*%
X120730000Y-56195000D03*
X120730000Y-55245000D03*
X120730000Y-54295000D03*
X118030000Y-54295000D03*
X118030000Y-55245000D03*
X118030000Y-56195000D03*
%TD*%
D45*
%TO.C,Q5*%
X123510000Y-55475000D03*
X125410000Y-55475000D03*
X124460000Y-52475000D03*
%TD*%
D46*
%TO.C,U4*%
X139065000Y-47945000D03*
X139065000Y-48895000D03*
X139065000Y-49845000D03*
X141765000Y-49845000D03*
X141765000Y-47945000D03*
%TD*%
D28*
%TO.C,R30*%
X144415000Y-57785000D03*
X146415000Y-57785000D03*
%TD*%
D27*
%TO.C,TP10*%
X144860000Y-45085000D03*
%TD*%
D28*
%TO.C,R28*%
X139970000Y-62865000D03*
X141970000Y-62865000D03*
%TD*%
D27*
%TO.C,TP16*%
X120015000Y-82550000D03*
%TD*%
D30*
%TO.C,R13*%
X109220000Y-64405000D03*
X109220000Y-66405000D03*
%TD*%
D26*
%TO.C,C13*%
X145495000Y-47857500D03*
X145495000Y-49932500D03*
%TD*%
D27*
%TO.C,TP15*%
X105410000Y-82550000D03*
%TD*%
%TO.C,TP21*%
X102870000Y-82550000D03*
%TD*%
D34*
%TO.C,Q3*%
X106740000Y-70500000D03*
X106740000Y-69850000D03*
X106740000Y-69200000D03*
X104080000Y-69200000D03*
X104080000Y-69850000D03*
X104080000Y-70500000D03*
%TD*%
D47*
%TO.C,JP8*%
X129525000Y-68580000D03*
D48*
X130825000Y-68580000D03*
%TD*%
D29*
%TO.C,R7*%
X101600000Y-75295000D03*
X101600000Y-73295000D03*
%TD*%
D25*
%TO.C,C11*%
X137642500Y-52705000D03*
X135567500Y-52705000D03*
%TD*%
D27*
%TO.C,TP20*%
X107950000Y-82550000D03*
%TD*%
D29*
%TO.C,R12*%
X101600000Y-66405000D03*
X101600000Y-64405000D03*
%TD*%
D49*
%TO.C,C7*%
X131885500Y-57277000D03*
X130750500Y-57277000D03*
%TD*%
D27*
%TO.C,TP7*%
X128270000Y-49530000D03*
%TD*%
%TO.C,TP9*%
X134191000Y-57018000D03*
%TD*%
D47*
%TO.C,JP11*%
X153640000Y-75565000D03*
D48*
X154940000Y-75565000D03*
%TD*%
D29*
%TO.C,R20*%
X115570000Y-52435000D03*
X115570000Y-50435000D03*
%TD*%
D27*
%TO.C,TP27*%
X165100000Y-64135000D03*
%TD*%
D26*
%TO.C,C3*%
X115570000Y-45317500D03*
X115570000Y-47392500D03*
%TD*%
D27*
%TO.C,TP24*%
X148590000Y-65405000D03*
%TD*%
D28*
%TO.C,R27*%
X139970000Y-65405000D03*
X141970000Y-65405000D03*
%TD*%
D27*
%TO.C,TP11*%
X144860000Y-52705000D03*
%TD*%
D47*
%TO.C,JP1*%
X124572000Y-60833000D03*
D48*
X125872000Y-60833000D03*
%TD*%
D27*
%TO.C,TP3*%
X109220000Y-61595000D03*
%TD*%
D30*
%TO.C,R15*%
X107950000Y-54483000D03*
X107950000Y-56483000D03*
%TD*%
D27*
%TO.C,TP19*%
X99060000Y-74295000D03*
%TD*%
D29*
%TO.C,R33*%
X101600000Y-79740000D03*
X101600000Y-77740000D03*
%TD*%
D27*
%TO.C,TP25*%
X148590000Y-62865000D03*
%TD*%
D50*
%TO.C,LED4*%
X141995000Y-57785000D03*
X139945000Y-57785000D03*
%TD*%
D29*
%TO.C,R9*%
X109220000Y-75295000D03*
X109220000Y-73295000D03*
%TD*%
D26*
%TO.C,C8*%
X134366000Y-59287500D03*
X134366000Y-61362500D03*
%TD*%
D51*
%TO.C,JP7*%
X100330000Y-58405000D03*
D52*
X100330000Y-59705000D03*
%TD*%
D35*
%TO.C,R29*%
X146415000Y-55245000D03*
X144415000Y-55245000D03*
%TD*%
D30*
%TO.C,R18*%
X113030000Y-45355000D03*
X113030000Y-47355000D03*
%TD*%
D31*
%TO.C,C17*%
X144377500Y-62865000D03*
X146452500Y-62865000D03*
%TD*%
D26*
%TO.C,C2*%
X114300000Y-73257500D03*
X114300000Y-75332500D03*
%TD*%
D53*
%TO.C,T1*%
X136475000Y-68025000D03*
X136475000Y-73025000D03*
X123825000Y-73025000D03*
X123825000Y-68025000D03*
%TD*%
D54*
%TO.C,D1*%
X126325000Y-46355000D03*
X121325000Y-46355000D03*
%TD*%
D31*
%TO.C,C10*%
X135567500Y-45085000D03*
X137642500Y-45085000D03*
%TD*%
D27*
%TO.C,TP28*%
X165100000Y-54610000D03*
%TD*%
D31*
%TO.C,C9*%
X140012500Y-45085000D03*
X142087500Y-45085000D03*
%TD*%
D27*
%TO.C,TP2*%
X107950000Y-52070000D03*
%TD*%
D47*
%TO.C,JP12*%
X140193000Y-60285000D03*
D48*
X141493000Y-60285000D03*
%TD*%
D31*
%TO.C,C15*%
X144377500Y-67945000D03*
X146452500Y-67945000D03*
%TD*%
D29*
%TO.C,R4*%
X120650000Y-70850000D03*
X120650000Y-68850000D03*
%TD*%
D50*
%TO.C,LED3*%
X141995000Y-55245000D03*
X139945000Y-55245000D03*
%TD*%
D55*
%TO.C,JP5*%
X127478000Y-63881000D03*
D56*
X128778000Y-63881000D03*
D57*
X130078000Y-63881000D03*
%TD*%
D27*
%TO.C,TP13*%
X99060000Y-82550000D03*
%TD*%
D35*
%TO.C,R22*%
X130286000Y-54986000D03*
X128286000Y-54986000D03*
%TD*%
D29*
%TO.C,R10*%
X109220000Y-70850000D03*
X109220000Y-68850000D03*
%TD*%
D58*
%TO.C,LED1*%
X110490000Y-51825000D03*
X110490000Y-49775000D03*
%TD*%
D27*
%TO.C,TP4*%
X118110000Y-46355000D03*
%TD*%
%TO.C,TP32*%
X152400000Y-49530000D03*
%TD*%
D20*
%TO.C,JP4*%
X132795000Y-52100000D03*
D21*
X132795000Y-50800000D03*
D22*
X132795000Y-49500000D03*
%TD*%
D51*
%TO.C,JP2*%
X132795000Y-45705000D03*
D52*
X132795000Y-47005000D03*
%TD*%
D59*
%TO.C,Y1*%
X157250000Y-76160000D03*
D60*
X158750000Y-74685000D03*
D59*
X160250000Y-76160000D03*
D60*
X158750000Y-77635000D03*
%TD*%
D27*
%TO.C,TP5*%
X124460000Y-49530000D03*
%TD*%
D31*
%TO.C,C16*%
X144377500Y-65405000D03*
X146452500Y-65405000D03*
%TD*%
D30*
%TO.C,R17*%
X110490000Y-45355000D03*
X110490000Y-47355000D03*
%TD*%
D58*
%TO.C,LED2*%
X113030000Y-51825000D03*
X113030000Y-49775000D03*
%TD*%
D27*
%TO.C,TP6*%
X121920000Y-49530000D03*
%TD*%
%TO.C,TP30*%
X148590000Y-55245000D03*
%TD*%
D23*
%TO.C,C19*%
X165100000Y-61362500D03*
X165100000Y-59287500D03*
%TD*%
D47*
%TO.C,JP10*%
X129510000Y-81280000D03*
D48*
X130810000Y-81280000D03*
%TD*%
D35*
%TO.C,R21*%
X134350000Y-54986000D03*
X132350000Y-54986000D03*
%TD*%
D27*
%TO.C,TP22*%
X148590000Y-70485000D03*
%TD*%
D23*
%TO.C,C4*%
X119380000Y-51202500D03*
X119380000Y-49127500D03*
%TD*%
D31*
%TO.C,C14*%
X144377500Y-70485000D03*
X146452500Y-70485000D03*
%TD*%
D30*
%TO.C,R5*%
X118110000Y-68850000D03*
X118110000Y-70850000D03*
%TD*%
D34*
%TO.C,Q2*%
X106740000Y-74945000D03*
X106740000Y-74295000D03*
X106740000Y-73645000D03*
X104080000Y-73645000D03*
X104080000Y-74295000D03*
X104080000Y-74945000D03*
%TD*%
D61*
%TO.C,JP3*%
X135158000Y-63881000D03*
D56*
X133858000Y-63881000D03*
D62*
X132558000Y-63881000D03*
%TD*%
D27*
%TO.C,TP1*%
X107950000Y-49530000D03*
%TD*%
D34*
%TO.C,Q6*%
X106740000Y-79390000D03*
X106740000Y-78740000D03*
X106740000Y-78090000D03*
X104080000Y-78090000D03*
X104080000Y-78740000D03*
X104080000Y-79390000D03*
%TD*%
%TO.C,Q4*%
X106740000Y-66055000D03*
X106740000Y-65405000D03*
X106740000Y-64755000D03*
X104080000Y-64755000D03*
X104080000Y-65405000D03*
X104080000Y-66055000D03*
%TD*%
D29*
%TO.C,R8*%
X111760000Y-75295000D03*
X111760000Y-73295000D03*
%TD*%
%TO.C,R31*%
X99060000Y-79740000D03*
X99060000Y-77740000D03*
%TD*%
%TO.C,R11*%
X101600000Y-70850000D03*
X101600000Y-68850000D03*
%TD*%
%TO.C,R16*%
X107950000Y-47355000D03*
X107950000Y-45355000D03*
%TD*%
%LPD*%
M02*
