%TF.GenerationSoftware,KiCad,Pcbnew,8.0.5*%
%TF.CreationDate,2025-04-06T12:02:06+02:00*%
%TF.ProjectId,btmdpcb,62746d64-7063-4622-9e6b-696361645f70,rev?*%
%TF.SameCoordinates,Original*%
%TF.FileFunction,Paste,Top*%
%TF.FilePolarity,Positive*%
%FSLAX46Y46*%
G04 Gerber Fmt 4.6, Leading zero omitted, Abs format (unit mm)*
G04 Created by KiCad (PCBNEW 8.0.5) date 2025-04-06 12:02:06*
%MOMM*%
%LPD*%
G01*
G04 APERTURE LIST*
G04 Aperture macros list*
%AMRoundRect*
0 Rectangle with rounded corners*
0 $1 Rounding radius*
0 $2 $3 $4 $5 $6 $7 $8 $9 X,Y pos of 4 corners*
0 Add a 4 corners polygon primitive as box body*
4,1,4,$2,$3,$4,$5,$6,$7,$8,$9,$2,$3,0*
0 Add four circle primitives for the rounded corners*
1,1,$1+$1,$2,$3*
1,1,$1+$1,$4,$5*
1,1,$1+$1,$6,$7*
1,1,$1+$1,$8,$9*
0 Add four rect primitives between the rounded corners*
20,1,$1+$1,$2,$3,$4,$5,0*
20,1,$1+$1,$4,$5,$6,$7,0*
20,1,$1+$1,$6,$7,$8,$9,0*
20,1,$1+$1,$8,$9,$2,$3,0*%
G04 Aperture macros list end*
%ADD10R,1.400000X0.550013*%
%ADD11R,1.400000X0.300000*%
%ADD12RoundRect,0.250000X0.475000X-0.337500X0.475000X0.337500X-0.475000X0.337500X-0.475000X-0.337500X0*%
%ADD13RoundRect,0.312500X-0.962500X0.312500X-0.962500X-0.312500X0.962500X-0.312500X0.962500X0.312500X0*%
%ADD14RoundRect,0.250000X0.337500X0.475000X-0.337500X0.475000X-0.337500X-0.475000X0.337500X-0.475000X0*%
%ADD15RoundRect,0.250000X-0.475000X0.337500X-0.475000X-0.337500X0.475000X-0.337500X0.475000X0.337500X0*%
%ADD16RoundRect,0.250000X-0.350000X-0.450000X0.350000X-0.450000X0.350000X0.450000X-0.350000X0.450000X0*%
%ADD17RoundRect,0.250000X0.450000X-0.350000X0.450000X0.350000X-0.450000X0.350000X-0.450000X-0.350000X0*%
%ADD18RoundRect,0.250000X-0.450000X0.350000X-0.450000X-0.350000X0.450000X-0.350000X0.450000X0.350000X0*%
%ADD19RoundRect,0.250000X-0.337500X-0.475000X0.337500X-0.475000X0.337500X0.475000X-0.337500X0.475000X0*%
%ADD20RoundRect,0.100000X0.650000X0.100000X-0.650000X0.100000X-0.650000X-0.100000X0.650000X-0.100000X0*%
%ADD21RoundRect,0.250000X0.350000X0.450000X-0.350000X0.450000X-0.350000X-0.450000X0.350000X-0.450000X0*%
%ADD22RoundRect,0.100000X0.680000X0.100000X-0.680000X0.100000X-0.680000X-0.100000X0.680000X-0.100000X0*%
%ADD23RoundRect,0.162500X0.337500X0.162500X-0.337500X0.162500X-0.337500X-0.162500X0.337500X-0.162500X0*%
%ADD24RoundRect,0.162500X-0.162500X0.337500X-0.162500X-0.337500X0.162500X-0.337500X0.162500X0.337500X0*%
%ADD25RoundRect,0.162500X-0.337500X-0.162500X0.337500X-0.162500X0.337500X0.162500X-0.337500X0.162500X0*%
%ADD26RoundRect,0.162500X0.162500X-0.337500X0.162500X0.337500X-0.162500X0.337500X-0.162500X-0.337500X0*%
%ADD27R,0.550000X0.450000*%
%ADD28R,0.500000X0.450000*%
%ADD29R,1.800000X1.500000*%
%ADD30RoundRect,0.162500X0.617500X0.162500X-0.617500X0.162500X-0.617500X-0.162500X0.617500X-0.162500X0*%
%ADD31RoundRect,0.200000X0.200000X-0.750000X0.200000X0.750000X-0.200000X0.750000X-0.200000X-0.750000X0*%
%ADD32RoundRect,0.162500X-0.617500X-0.162500X0.617500X-0.162500X0.617500X0.162500X-0.617500X0.162500X0*%
%ADD33RoundRect,0.155000X0.212500X0.155000X-0.212500X0.155000X-0.212500X-0.155000X0.212500X-0.155000X0*%
%ADD34RoundRect,0.250000X0.325000X0.450000X-0.325000X0.450000X-0.325000X-0.450000X0.325000X-0.450000X0*%
%ADD35RoundRect,0.312500X0.962500X-0.312500X0.962500X0.312500X-0.962500X0.312500X-0.962500X-0.312500X0*%
%ADD36RoundRect,0.250000X1.500000X0.650000X-1.500000X0.650000X-1.500000X-0.650000X1.500000X-0.650000X0*%
%ADD37RoundRect,0.250000X0.450000X-0.325000X0.450000X0.325000X-0.450000X0.325000X-0.450000X-0.325000X0*%
%ADD38R,1.000000X1.000000*%
%ADD39R,2.200000X1.050000*%
G04 APERTURE END LIST*
D10*
%TO.C,J2*%
X103905056Y-47599848D03*
X103905056Y-48349911D03*
D11*
X103905056Y-49551080D03*
X103905056Y-50549301D03*
X103905056Y-51049682D03*
X103905056Y-52050445D03*
D10*
X103905056Y-53999898D03*
X103905056Y-53250089D03*
D11*
X103905056Y-52550064D03*
X103905056Y-51550064D03*
X103905056Y-50048920D03*
X103905056Y-49050699D03*
%TD*%
D12*
%TO.C,C5*%
X128270000Y-61362500D03*
X128270000Y-59287500D03*
%TD*%
D13*
%TO.C,T2*%
X123825000Y-81915000D03*
X123825000Y-76915000D03*
X136475000Y-76915000D03*
X136475000Y-81915000D03*
%TD*%
D14*
%TO.C,C18*%
X146452500Y-60325000D03*
X144377500Y-60325000D03*
%TD*%
D15*
%TO.C,C1*%
X120650000Y-64367500D03*
X120650000Y-66442500D03*
%TD*%
D16*
%TO.C,R26*%
X139970000Y-67945000D03*
X141970000Y-67945000D03*
%TD*%
%TO.C,R25*%
X139970000Y-70485000D03*
X141970000Y-70485000D03*
%TD*%
D17*
%TO.C,R1*%
X135970000Y-49895000D03*
X135970000Y-47895000D03*
%TD*%
D18*
%TO.C,R14*%
X99060000Y-64405000D03*
X99060000Y-66405000D03*
%TD*%
D19*
%TO.C,C12*%
X140012500Y-52705000D03*
X142087500Y-52705000D03*
%TD*%
D17*
%TO.C,R2*%
X118110000Y-66405000D03*
X118110000Y-64405000D03*
%TD*%
D12*
%TO.C,C6*%
X136906000Y-61362500D03*
X136906000Y-59287500D03*
%TD*%
D17*
%TO.C,R32*%
X109220000Y-79740000D03*
X109220000Y-77740000D03*
%TD*%
%TO.C,R3*%
X116840000Y-75295000D03*
X116840000Y-73295000D03*
%TD*%
D20*
%TO.C,Q1*%
X114995000Y-66055000D03*
X114995000Y-65405000D03*
X114995000Y-64755000D03*
X112335000Y-64755000D03*
X112335000Y-65405000D03*
X112335000Y-66055000D03*
%TD*%
D14*
%TO.C,C20*%
X159787500Y-49530000D03*
X157712500Y-49530000D03*
%TD*%
D21*
%TO.C,R19*%
X112760000Y-56515000D03*
X110760000Y-56515000D03*
%TD*%
D22*
%TO.C,U1*%
X115015000Y-70830000D03*
X115015000Y-70180000D03*
X115015000Y-69520000D03*
X115015000Y-68870000D03*
X112315000Y-68870000D03*
X112315000Y-69520000D03*
X112315000Y-70180000D03*
X112315000Y-70830000D03*
%TD*%
D23*
%TO.C,U5*%
X162845000Y-71230000D03*
X162845000Y-61230000D03*
X162845000Y-60230000D03*
D24*
X154845000Y-51730000D03*
X153845000Y-51730000D03*
X152845000Y-51730000D03*
X151845000Y-51730000D03*
D25*
X150845000Y-53230000D03*
X150845000Y-54230000D03*
X150845000Y-55230000D03*
X150845000Y-56230000D03*
X150845000Y-57230000D03*
X150845000Y-58230000D03*
X150845000Y-59230000D03*
X150845000Y-60230000D03*
X150845000Y-61230000D03*
X150845000Y-62230000D03*
X150845000Y-63230000D03*
X150845000Y-65230000D03*
X150845000Y-66230000D03*
X150845000Y-67230000D03*
X150845000Y-68230000D03*
D26*
X154845000Y-72730000D03*
X155845000Y-72730000D03*
X156845000Y-72730000D03*
%TD*%
D27*
%TO.C,U3*%
X132143000Y-59050000D03*
D28*
X131318000Y-59050000D03*
D27*
X130493000Y-59050000D03*
X130493000Y-61600000D03*
D28*
X131318000Y-61600000D03*
D27*
X132143000Y-61600000D03*
D29*
X131318000Y-60325000D03*
%TD*%
D30*
%TO.C,U2*%
X120730000Y-56195000D03*
X120730000Y-55245000D03*
X120730000Y-54295000D03*
X118030000Y-54295000D03*
X118030000Y-55245000D03*
X118030000Y-56195000D03*
%TD*%
D31*
%TO.C,Q5*%
X123510000Y-55475000D03*
X125410000Y-55475000D03*
X124460000Y-52475000D03*
%TD*%
D32*
%TO.C,U4*%
X139065000Y-47945000D03*
X139065000Y-48895000D03*
X139065000Y-49845000D03*
X141765000Y-49845000D03*
X141765000Y-47945000D03*
%TD*%
D16*
%TO.C,R30*%
X144415000Y-57785000D03*
X146415000Y-57785000D03*
%TD*%
%TO.C,R28*%
X139970000Y-62865000D03*
X141970000Y-62865000D03*
%TD*%
D18*
%TO.C,R13*%
X109220000Y-64405000D03*
X109220000Y-66405000D03*
%TD*%
D15*
%TO.C,C13*%
X145495000Y-47857500D03*
X145495000Y-49932500D03*
%TD*%
D20*
%TO.C,Q3*%
X106740000Y-70500000D03*
X106740000Y-69850000D03*
X106740000Y-69200000D03*
X104080000Y-69200000D03*
X104080000Y-69850000D03*
X104080000Y-70500000D03*
%TD*%
D17*
%TO.C,R7*%
X101600000Y-75295000D03*
X101600000Y-73295000D03*
%TD*%
D14*
%TO.C,C11*%
X137642500Y-52705000D03*
X135567500Y-52705000D03*
%TD*%
D17*
%TO.C,R12*%
X101600000Y-66405000D03*
X101600000Y-64405000D03*
%TD*%
D33*
%TO.C,C7*%
X131885500Y-57277000D03*
X130750500Y-57277000D03*
%TD*%
D17*
%TO.C,R20*%
X115570000Y-52435000D03*
X115570000Y-50435000D03*
%TD*%
D15*
%TO.C,C3*%
X115570000Y-45317500D03*
X115570000Y-47392500D03*
%TD*%
D16*
%TO.C,R27*%
X139970000Y-65405000D03*
X141970000Y-65405000D03*
%TD*%
D18*
%TO.C,R15*%
X107950000Y-54483000D03*
X107950000Y-56483000D03*
%TD*%
D17*
%TO.C,R33*%
X101600000Y-79740000D03*
X101600000Y-77740000D03*
%TD*%
D34*
%TO.C,LED4*%
X141995000Y-57785000D03*
X139945000Y-57785000D03*
%TD*%
D17*
%TO.C,R9*%
X109220000Y-75295000D03*
X109220000Y-73295000D03*
%TD*%
D15*
%TO.C,C8*%
X134366000Y-59287500D03*
X134366000Y-61362500D03*
%TD*%
D21*
%TO.C,R29*%
X146415000Y-55245000D03*
X144415000Y-55245000D03*
%TD*%
D18*
%TO.C,R18*%
X113030000Y-45355000D03*
X113030000Y-47355000D03*
%TD*%
D19*
%TO.C,C17*%
X144377500Y-62865000D03*
X146452500Y-62865000D03*
%TD*%
D15*
%TO.C,C2*%
X114300000Y-73257500D03*
X114300000Y-75332500D03*
%TD*%
D35*
%TO.C,T1*%
X136475000Y-68025000D03*
X136475000Y-73025000D03*
X123825000Y-73025000D03*
X123825000Y-68025000D03*
%TD*%
D36*
%TO.C,D1*%
X126325000Y-46355000D03*
X121325000Y-46355000D03*
%TD*%
D19*
%TO.C,C10*%
X135567500Y-45085000D03*
X137642500Y-45085000D03*
%TD*%
%TO.C,C9*%
X140012500Y-45085000D03*
X142087500Y-45085000D03*
%TD*%
%TO.C,C15*%
X144377500Y-67945000D03*
X146452500Y-67945000D03*
%TD*%
D17*
%TO.C,R4*%
X120650000Y-70850000D03*
X120650000Y-68850000D03*
%TD*%
D34*
%TO.C,LED3*%
X141995000Y-55245000D03*
X139945000Y-55245000D03*
%TD*%
D21*
%TO.C,R22*%
X130286000Y-54986000D03*
X128286000Y-54986000D03*
%TD*%
D17*
%TO.C,R10*%
X109220000Y-70850000D03*
X109220000Y-68850000D03*
%TD*%
D37*
%TO.C,LED1*%
X110490000Y-51825000D03*
X110490000Y-49775000D03*
%TD*%
D38*
%TO.C,Y1*%
X157250000Y-76160000D03*
D39*
X158750000Y-74685000D03*
D38*
X160250000Y-76160000D03*
D39*
X158750000Y-77635000D03*
%TD*%
D19*
%TO.C,C16*%
X144377500Y-65405000D03*
X146452500Y-65405000D03*
%TD*%
D18*
%TO.C,R17*%
X110490000Y-45355000D03*
X110490000Y-47355000D03*
%TD*%
D37*
%TO.C,LED2*%
X113030000Y-51825000D03*
X113030000Y-49775000D03*
%TD*%
D12*
%TO.C,C19*%
X165100000Y-61362500D03*
X165100000Y-59287500D03*
%TD*%
D21*
%TO.C,R21*%
X134350000Y-54986000D03*
X132350000Y-54986000D03*
%TD*%
D12*
%TO.C,C4*%
X119380000Y-51202500D03*
X119380000Y-49127500D03*
%TD*%
D19*
%TO.C,C14*%
X144377500Y-70485000D03*
X146452500Y-70485000D03*
%TD*%
D18*
%TO.C,R5*%
X118110000Y-68850000D03*
X118110000Y-70850000D03*
%TD*%
D20*
%TO.C,Q2*%
X106740000Y-74945000D03*
X106740000Y-74295000D03*
X106740000Y-73645000D03*
X104080000Y-73645000D03*
X104080000Y-74295000D03*
X104080000Y-74945000D03*
%TD*%
%TO.C,Q6*%
X106740000Y-79390000D03*
X106740000Y-78740000D03*
X106740000Y-78090000D03*
X104080000Y-78090000D03*
X104080000Y-78740000D03*
X104080000Y-79390000D03*
%TD*%
%TO.C,Q4*%
X106740000Y-66055000D03*
X106740000Y-65405000D03*
X106740000Y-64755000D03*
X104080000Y-64755000D03*
X104080000Y-65405000D03*
X104080000Y-66055000D03*
%TD*%
D17*
%TO.C,R8*%
X111760000Y-75295000D03*
X111760000Y-73295000D03*
%TD*%
%TO.C,R31*%
X99060000Y-79740000D03*
X99060000Y-77740000D03*
%TD*%
%TO.C,R11*%
X101600000Y-70850000D03*
X101600000Y-68850000D03*
%TD*%
%TO.C,R16*%
X107950000Y-47355000D03*
X107950000Y-45355000D03*
%TD*%
M02*
