M48
; DRILL file {KiCad 8.0.5} date 2025-04-06T12:02:10+0200
; FORMAT={-:-/ absolute / inch / decimal}
; #@! TF.CreationDate,2025-04-06T12:02:10+02:00
; #@! TF.GenerationSoftware,Kicad,Pcbnew,8.0.5
; #@! TF.FileFunction,Plated,1,4,PTH
FMAT,2
INCH
; #@! TA.AperFunction,Plated,PTH,ViaDrill
T1C0.0118
; #@! TA.AperFunction,Plated,PTH,ComponentDrill
T2C0.0118
; #@! TA.AperFunction,Plated,PTH,ComponentDrill
T3C0.0319
%
G90
G05
T1
X3.85Y-1.7
X3.85Y-2.275
X3.85Y-2.4
X3.85Y-2.825
X3.85Y-3.3
X3.875Y-2.675
X3.9Y-2.4
X3.9Y-3.0
X3.9Y-3.2
X3.925Y-1.7
X3.95Y-2.225
X3.95Y-2.675
X3.95Y-2.9
X4.0Y-1.7
X4.0Y-2.4
X4.05Y-2.675
X4.05Y-2.825
X4.075Y-1.7
X4.075Y-2.275
X4.075Y-2.45
X4.1Y-3.05
X4.125Y-2.5
X4.175Y-1.7
X4.175Y-1.85
X4.175Y-1.9065
X4.175Y-2.0935
X4.175Y-2.15
X4.2Y-2.65
X4.2Y-2.825
X4.2Y-3.0
X4.2027Y-2.0
X4.25Y-1.725
X4.25Y-2.0
X4.25Y-3.15
X4.3Y-1.8
X4.3Y-2.225
X4.35Y-2.85
X4.4Y-3.3
X4.425Y-2.65
X4.45Y-2.1
X4.45Y-2.825
X4.45Y-3.0
X4.5144Y-3.05
X4.525Y-2.65
X4.55Y-1.925
X4.6Y-2.525
X4.65Y-2.85
X4.75Y-1.9
X4.75Y-2.475
X4.775Y-1.7
X4.805Y-2.205
X4.825Y-2.125
X4.825Y-2.4
X4.825Y-2.75
X4.85Y-1.9
X4.85Y-2.0
X4.875Y-3.3
X4.95Y-2.5
X5.0Y-2.2
X5.025Y-2.655
X5.05Y-2.225
X5.0831Y-2.4648
X5.11Y-2.355
X5.125Y-1.9
X5.17Y-2.295
X5.225Y-2.655
X5.24Y-2.385
X5.275Y-1.7
X5.275Y-2.075
X5.3Y-1.875
X5.35Y-2.25
X5.375Y-2.95
X5.4Y-2.275
X5.425Y-1.725
X5.475Y-3.3
X5.525Y-1.925
X5.525Y-3.05
X5.575Y-1.725
X5.625Y-2.375
X5.65Y-2.075
X5.8Y-1.95
X6.05Y-1.7
X6.1Y-2.1
X6.1Y-2.8
X6.15Y-1.95
X6.175Y-2.8
X6.175Y-2.925
X6.175Y-3.075
X6.225Y-2.9
X6.275Y-2.9
X6.35Y-2.8
X6.35Y-2.975
X6.35Y-3.025
X6.475Y-2.275
X6.475Y-2.8
X6.525Y-2.275
X6.55Y-1.7
X6.55Y-2.2
X6.55Y-2.6
X6.55Y-3.05
T2
X5.9173Y-3.125
T3
G00X3.8758Y-1.7805
M15
G01X3.8427Y-1.7805
M16
G05
G00X3.8758Y-2.2195
M15
G01X3.8427Y-2.2195
M16
G05
G00X4.0569Y-1.7805
M15
G01X4.0238Y-1.7805
M16
G05
G00X4.0569Y-2.2195
M15
G01X4.0238Y-2.2195
M16
G05
M30
